<?xml version="1.0" standalone="no"?> 
<!DOCTYPE svg PUBLIC "-//W3C//DTD SVG 1.1//EN" "http://www.w3.org/Graphics/SVG/1.1/DTD/svg11.dtd" >
<svg xmlns="http://www.w3.org/2000/svg">
<defs>
  <font id="icons" horiz-adv-x="1000">
    <font-face font-family="icons"
      units-per-em="1001" ascent="1001"
      descent="0" />
    <missing-glyph horiz-adv-x="0" />
    <glyph glyph-name="alphabet-down"
      unicode="&#xE001;"
      horiz-adv-x="1000.9999999999999" d=" M124.5244 970.3694C131.3312 988.7878 148.7486 1001 168.3682 1001H203.0028C222.6224 1001 240.24 988.7878 247.0468 970.3694L368.5682 640.4398C377.5772 616.2156 365.1648 589.1886 340.7404 580.1795999999999C316.5162 571.1706 289.4892 583.583 280.4802 608.0074L253.4532 681.4808H118.118L91.091 608.0074C82.082 583.7832000000001 55.2552 571.1706 30.8308 580.1795999999999C6.4064 589.1886000000001 -6.006 616.0154 3.003 640.4398000000001L124.5244 970.3694zM152.5524 775.3746H219.0188L185.7856 865.4646L152.5524 775.3746z M52.052 397.5972000000002C79.8798 417.6172000000002 111.7116 423.8234000000001 133.7336 423.8234000000001H290.0897999999999C315.9156 423.8234000000001 336.9366 402.8024000000002 336.9366 376.9766000000002V47.0470000000003C336.9366 21.2212000000003 315.9156 0.2002000000002 290.0897999999999 0.2002000000002S243.2429999999999 21.2212000000003 243.2429999999999 47.0470000000003V156.3562000000003H191.3912L83.8838 18.2182000000003C68.068 -2.4023999999998 38.6386 -6.0059999999999 18.2182 9.8098000000001S-6.006 55.2552000000002 10.01 75.6756000000002L80.8808 166.7666000000002C71.2712 170.5704000000001 61.4614 175.7756000000002 52.2522 182.3822000000001C21.8218 204.2040000000001 0 240.0398 0 290.0898000000001C0 339.9396000000001 21.8218 375.7754 52.052 397.5972000000002zM243.0428 250.0498V329.7294000000001H133.7336C126.7266 329.7294000000001 115.3152 327.3270000000001 106.9068 321.1208000000001C103.103 318.5182 100.3002 315.3150000000001 98.098 311.1108000000001C95.8958 307.1068 93.8938 300.5002000000001 93.8938 289.6894000000001C93.8938 279.0788 96.096 272.4722000000001 98.098 268.2680000000001C100.3002 264.0638 103.103 260.8606000000001 106.9068 258.2580000000001C115.3152 252.2520000000001 126.7266 249.6494 133.7336 249.6494H243.0428V250.0498z M734.9341999999999 1001C760.7599999999999 1001 781.781 979.979 781.781 954.1532V160.1600000000001L920.7197999999999 299.0988C939.1381999999998 317.5172 968.7677999999999 317.5172 986.9859999999998 299.0988C1005.4043999999998 280.6804000000001 1005.4043999999998 251.0508 986.9859999999998 232.8326L768.1673999999999 13.8138C749.7489999999999 -4.6045999999999 720.1193999999999 -4.6045999999999 701.9011999999999 13.8138L482.6821999999999 232.6324000000001C464.2637999999999 251.0508 464.2637999999999 280.6804000000001 482.6821999999999 298.8986000000001C501.1005999999999 317.3170000000001 530.7302 317.3170000000001 548.9483999999999 298.8986000000001L687.8872 159.9598000000001V954.1532C687.8872 979.979 708.9082 1001 734.9341999999999 1001z" />
    <glyph glyph-name="alphabet-up"
      unicode="&#xE002;"
      horiz-adv-x="1000.9999999999999" d=" M124.5244 970.3694C131.3312 988.7878 148.7486 1001 168.3682 1001H203.0028C222.6224 1001 240.24 988.7878 247.0468 970.3694L368.5682 640.4398C377.5772 616.2156 365.1648 589.1886 340.7404 580.1795999999999C316.5162 571.1706 289.4892 583.583 280.4802 608.0074L253.4532 681.4808H118.118L91.091 608.0074C82.082 583.7832000000001 55.2552 571.1706 30.8308 580.1795999999999C6.4064 589.1886000000001 -6.006 616.0154 3.003 640.4398000000001L124.5244 970.3694zM152.5524 775.3746H219.0188L185.7856 865.4646L152.5524 775.3746z M52.052 397.5972000000002C79.8798 417.6172000000002 111.7116 423.8234000000001 133.7336 423.8234000000001H290.0897999999999C315.9156 423.8234000000001 336.9366 402.8024000000002 336.9366 376.9766000000002V47.0470000000003C336.9366 21.2212000000003 315.9156 0.2002000000002 290.0897999999999 0.2002000000002S243.2429999999999 21.2212000000003 243.2429999999999 47.0470000000003V156.3562000000003H191.3912L83.8838 18.2182000000003C68.068 -2.4023999999998 38.6386 -6.0059999999999 18.2182 9.8098000000001S-6.006 55.2552000000002 10.01 75.6756000000002L80.8808 166.7666000000002C71.2712 170.5704000000001 61.4614 175.7756000000002 52.2522 182.3822000000001C21.8218 204.2040000000001 0 240.0398 0 290.0898000000001C0 339.9396000000001 21.8218 375.7754 52.052 397.5972000000002zM243.0428 250.0498V329.7294000000001H133.7336C126.7266 329.7294000000001 115.3152 327.3270000000001 106.9068 321.1208000000001C103.103 318.5182 100.3002 315.3150000000001 98.098 311.1108000000001C95.8958 307.1068 93.8938 300.5002000000001 93.8938 289.6894000000001C93.8938 279.0788 96.096 272.4722000000001 98.098 268.2680000000001C100.3002 264.0638 103.103 260.8606000000001 106.9068 258.2580000000001C115.3152 252.2520000000001 126.7266 249.6494 133.7336 249.6494H243.0428V250.0498z M734.9341999999999 1e-13C760.7599999999999 1e-13 781.781 21.0210000000001 781.781 46.8468V840.84L920.7197999999999 701.9012C939.1381999999998 683.4828 968.7677999999999 683.4828 986.9859999999998 701.9012C1005.4043999999998 720.3196 1005.4043999999998 749.9492 986.9859999999998 768.1674L768.1673999999999 987.1862C749.7489999999999 1005.6046 720.1193999999999 1005.6046 701.9011999999999 987.1862L482.6821999999999 768.3676C464.2637999999999 749.9492 464.2637999999999 720.3196 482.6821999999999 702.1014C501.1005999999999 683.683 530.7302 683.683 548.9483999999999 702.1014L687.8872 840.84V47.0470000000001C687.8872 21.0210000000001 708.9082 1e-13 734.9341999999999 1e-13z" />
    <glyph glyph-name="angle-down"
      unicode="&#xE003;"
      horiz-adv-x="1501.4999999999998" d=" M27.4274 872.4716C64.064 909.1082 123.5234 909.1082 160.16 872.4716L750.7499999999999 282.2820000000001L1341.34 872.4716C1377.9765999999997 909.1082 1437.436 909.1082 1474.0725999999997 872.4716C1510.7091999999996 835.835 1510.7091999999996 776.3756000000001 1474.0725999999997 739.739L817.0161999999999 83.4834000000001C780.3796 46.8468 720.9202 46.8468 684.2836 83.4834000000001L27.4274 739.9392C-9.2092 776.5758000000001 -9.2092 835.835 27.4274 872.4716z" />
    <glyph glyph-name="angle-left"
      unicode="&#xE004;"
      horiz-adv-x="666.6659999999999" d=" M596.1956 18.4184000000001C620.6199999999999 42.8428 620.6199999999999 82.4824000000001 596.1956 106.9068000000001L203.0028 500.5000000000001L596.1956 894.2934C620.6199999999999 918.7178 620.6199999999999 958.3574 596.1956 982.7818S532.1315999999999 1007.2062 507.9074 982.7818L70.4704 544.7442000000001C46.046 520.3198 46.046 480.6802000000001 70.4704 456.2558L507.9073999999999 18.4184000000001C532.3317999999999 -6.2062 571.7712 -6.2062 596.1956 18.4184000000001z" />
    <glyph glyph-name="angle-right"
      unicode="&#xE005;"
      horiz-adv-x="666.6659999999999" d=" M70.4704 18.4184000000001C46.046 42.8428 46.046 82.4824000000001 70.4704 106.7066000000001L463.6632 500.5000000000001L70.4704 894.2934C46.046 918.5176 46.046 958.1572 70.4704 982.5816S134.5344 1007.006 158.7586 982.5816L596.1956 544.7442000000001C620.6199999999999 520.3198000000001 620.6199999999999 480.6802000000001 596.1956 456.456L158.7586 18.4184000000001C134.3342 -6.2062 94.8948 -6.2062 70.4704 18.4184000000001z" />
    <glyph glyph-name="angle-up"
      unicode="&#xE006;"
      horiz-adv-x="1501.4999999999998" d=" M27.4274 184.5844000000001C64.064 147.9478 123.5234 147.9478 160.16 184.5844000000001L750.7499999999999 774.774L1341.34 184.5844000000001C1377.9765999999997 147.9478 1437.436 147.9478 1474.0725999999997 184.5844000000001C1510.7091999999996 221.2210000000001 1510.7091999999996 280.6804000000001 1474.0725999999997 317.3170000000001L817.0161999999999 973.5726C780.3796 1010.2092 720.9202 1010.2092 684.2836 973.5726L27.4274 317.1168C-9.2092 280.4802000000001 -9.2092 221.2210000000001 27.4274 184.5844000000001z" />
    <glyph glyph-name="answer"
      unicode="&#xE007;"
      horiz-adv-x="834.834" d=" M65.4654 1001C82.6826 1001 96.6966 986.986 96.6966 969.7688V474.474C96.6966 376.5762000000001 175.9758 297.2970000000001 273.8736 297.2970000000001H693.6929999999999L512.512 478.4780000000001C500.2997999999999 490.6902000000001 500.2997999999999 510.51 512.512 522.7222C524.7242 534.9344000000001 544.544 534.9344000000001 556.7562 522.7222L791.3906 288.0878C803.6028 275.8756 803.6028 256.0558000000001 791.3906 243.8436000000001L556.7562 9.2092000000001C544.544 -3.0029999999999 524.7242 -3.0029999999999 512.512 9.2092000000001C500.2997999999999 21.4214000000002 500.2997999999999 41.2412000000002 512.512 53.4534000000002L693.6929999999999 234.6344000000002H273.8736C141.5414 234.6344000000001 34.034 341.9416000000001 34.034 474.474V969.7688C34.034 986.986 48.048 1001 65.4654 1001z" />
    <glyph glyph-name="calendar"
      unicode="&#xE008;"
      horiz-adv-x="1000.9999999999999" d=" M288.8886 1001.2002C314.7144 1001.2002 335.7354 980.1792 335.7354 954.3534V880.2794H453.6532V954.3534C453.6532 980.1792 474.6742 1001.2002 500.5 1001.2002S547.3468 980.1792 547.3468 954.3534V880.2794H665.2646V954.3534C665.2646 980.1792 686.2855999999999 1001.2002 712.1113999999999 1001.2002S758.9581999999998 980.1792 758.9581999999998 954.3534V880.2794H923.7227999999998C949.5485999999999 880.2794 970.5695999999998 859.2584 970.5695999999998 833.4326000000001V47.0470000000001C970.5695999999998 21.2212000000002 949.5485999999999 0.2002000000001 923.7227999999998 0.2002000000001H77.2772C51.4514 0.2002000000001 30.4304 21.2212000000002 30.4304 47.0470000000001V833.0322C30.4304 858.858 51.4514 879.879 77.2772 879.879H242.0418V953.953C242.0418 979.979 263.0628 1001.2002 288.8886 1001.2002zM124.124 786.1854000000001V93.6936000000002H876.8759999999999V786.1854000000001H124.124zM242.0418 621.4208000000001C242.0418 647.2466000000001 263.0628 668.2676000000001 288.8886 668.2676000000001H712.3116C738.1373999999998 668.2676000000001 759.1583999999999 647.2466000000001 759.1583999999999 621.4208000000001S738.1373999999998 574.5740000000001 712.3116 574.5740000000001H288.8886C263.0628 574.5740000000001 242.0418 595.595 242.0418 621.4208000000001zM518.5179999999999 483.2828000000001C536.1356 476.0756 547.5469999999999 458.8584000000001 547.5469999999999 439.8394000000001V275.0748H561.1605999999999C586.9863999999999 275.0748 608.0074 254.0538 608.0074 228.2280000000001C608.0074 202.4022000000001 586.9863999999999 181.3812000000002 561.1605999999999 181.3812000000002H440.2398C414.414 181.3812000000002 393.393 202.4022000000001 393.393 228.2280000000001C393.393 254.0538 414.414 275.0748 440.2398 275.0748H453.8534V334.3340000000001C437.8374 329.5292000000002 419.8194 333.3330000000001 407.2068 346.1458C388.7884 364.5642000000001 388.7884 394.1938 407.2068 412.4120000000001L467.6671999999999 472.8724000000001C480.8804 486.6862000000001 501.1006 490.6902000000001 518.5179999999999 483.2828000000001z" />
    <glyph glyph-name="check"
      unicode="&#xE009;"
      horiz-adv-x="1334.7333999999998" d=" M1285.8845999999999 952.1512C1350.9495999999997 887.0862 1350.9495999999997 781.3806000000001 1285.8845999999999 716.1154L618.4177999999999 48.8488000000001C553.3527999999999 -16.2162 447.6471999999999 -16.2162 382.3819999999999 48.8488000000001L48.8488 382.5822000000001C-16.2162 447.6472000000001 -16.2162 553.3528000000001 48.8488 618.6180000000002C113.9138 683.6830000000001 219.6194 683.6830000000001 284.8846 618.6180000000002L500.4999999999999 402.8024000000001L1049.8487999999998 952.1512C1115.1139999999998 1017.2162 1220.6194 1017.2162 1285.8845999999999 952.1512z" />
    <glyph glyph-name="clean"
      unicode="&#xE00A;"
      horiz-adv-x="1000.9999999999999" d=" M275.6754 953.3524C282.4822 981.1802 307.5072 1000.7998 336.336 1000.7998H664.6639999999999C693.2926 1000.7998 718.3176 981.1802 725.3245999999999 953.3524L768.1673999999999 781.7810000000001H938.3373999999998C972.9719999999998 781.7810000000001 1000.9999999999998 753.753 1000.9999999999998 719.1184000000001S972.9719999999998 656.6560000000001 938.3373999999998 656.6560000000001H886.4856L836.4355999999999 57.2572000000001C833.6328 24.8248000000002 806.6057999999999 -0.2001999999998 774.1733999999999 -0.2001999999998H226.8266C194.194 -0.2001999999998 167.167 24.8248000000002 164.5644 57.2572000000001L114.5144 656.6560000000001H62.6626C28.028 656.8562 0 684.8842 0 719.5188S28.028 782.1814 62.6626 782.1814H232.8326L275.6754 953.3524zM240.0398 656.8562L284.284 125.3252000000001H716.7159999999999L760.9602 656.8562000000001H240.0398zM361.5612 781.7810000000001H639.2385999999998L615.8151999999999 875.6748H385.1848L361.5612 781.7810000000001z" />
    <glyph glyph-name="close"
      unicode="&#xE00B;"
      horiz-adv-x="1000.9999999999999" d=" M9.2092 991.7908C21.4214 1004.003 41.2412 1004.003 53.4534 991.7908L500.4999999999999 544.7442000000001L947.5465999999998 991.7908C959.7588 1004.003 979.5786 1004.003 991.7908 991.7908S1004.003 959.7588 991.7908 947.5466L544.7442 500.5000000000001L991.7908 53.4534000000001C1004.003 41.2412000000001 1004.003 21.4214000000001 991.7908 9.2092S959.7588 -3.003 947.5465999999998 9.2092L500.4999999999999 456.2558L53.4534 9.2092000000001C41.2412 -3.0029999999999 21.4214 -3.0029999999999 9.2092 9.2092000000001S-3.003 41.2412000000002 9.2092 53.4534000000002L456.2558 500.5000000000001L9.2092 947.5466C-3.003 959.7588 -3.003 979.5786 9.2092 991.7908z" />
    <glyph glyph-name="download"
      unicode="&#xE00C;"
      horiz-adv-x="1000.9999999999999" d=" M0 46.8468C0 72.6726 21.021 93.6936000000001 46.8468 93.6936000000001H953.9529999999997C979.7787999999998 93.6936000000001 1000.7997999999998 72.6726 1000.7997999999998 46.8468S979.979 1e-13 954.1532 1e-13H46.8468C21.021 1e-13 0 21.0210000000001 0 46.8468z M467.2667999999999 240.4402000000001C485.6852 222.0218000000001 515.3147999999999 222.0218000000001 533.5329999999999 240.4402000000001L835.8349999999999 542.7422000000001C854.2533999999998 561.1606 854.2533999999998 590.7902000000001 835.8349999999999 609.0084C817.4165999999999 627.4268000000001 787.7869999999999 627.4268000000001 769.5687999999999 609.0084L547.3467999999999 386.7864000000002V954.1532C547.3467999999999 979.979 526.3257999999998 1001 500.4999999999999 1001C474.6741999999999 1001 453.6531999999999 979.979 453.6531999999999 954.1532V386.9866000000001L231.4312 609.2086C213.0128 627.6270000000001 183.3832 627.6270000000001 165.165 609.2086C146.7466 590.7902000000001 146.7466 561.1606 165.165 542.9424000000001L467.2667999999999 240.4402000000001z" />
    <glyph glyph-name="edit"
      unicode="&#xE00D;"
      horiz-adv-x="1000.9999999999999" d=" M-44.2442 762.1614000000001C-44.2442 790.3896 -21.4214 813.2124 6.8068 813.2124H362.362C390.5901999999999 813.2124 413.413 790.3896 413.413 762.1614000000001C413.413 733.9331999999999 390.5901999999999 711.1104 362.362 711.1104H58.058V102.3022000000001H666.6659999999999V229.0288000000001C666.6659999999999 257.2570000000001 689.4887999999999 280.0798 717.7169999999999 280.0798S768.7679999999999 257.2570000000001 768.7679999999999 229.0288000000001V51.2512C768.7679999999999 23.023 745.9452 0.2002 717.7169999999999 0.2002H6.8068C-21.4214 0.2002 -44.2442 23.023 -44.2442 51.2512V762.1614000000001z M953.7527999999998 951.3504C887.4865999999998 1017.6166 780.1793999999999 1017.6166 713.9131999999998 951.3504L630.2295999999999 867.4666L253.0528 490.4900000000001C243.4432 480.8804 238.0378 467.8674000000001 238.0378 454.4540000000001V245.0448C238.0378 216.8166 260.8606 193.9938000000001 289.0888 193.9938000000001H498.4979999999999C512.1116 193.9938000000001 525.1246 199.3992000000001 534.534 209.0088000000001L995.3944 669.8692C1061.6605999999997 736.1353999999999 1061.6605999999997 843.4426 995.3944 909.7087999999998L953.7527999999998 951.3504zM803.4025999999999 622.0214000000001L666.2656 759.1584L361.5612 454.4540000000001L498.6981999999999 317.3170000000001L803.4025999999999 622.0214000000001zM786.1853999999998 879.0782C812.4115999999999 905.5046 855.2543999999999 905.5046 881.4806 879.0782L923.3224 837.2364C949.7487999999998 810.8100000000001 949.7487999999998 768.1674 923.3224 741.9412L875.6747999999999 694.2936L738.5377999999998 831.4306L786.1853999999998 879.0782zM375.375 296.0958000000001L340.34 331.1308V296.0958000000001H375.375z" />
    <glyph glyph-name="eye"
      unicode="&#xE00E;"
      horiz-adv-x="1601.6" d=" M1583.27169 549.8573080000001C1580.63906 553.400848 1576.84527 558.400843 1571.9503799999998 564.651087C1562.1606 577.1435670000001 1547.91637 594.669075 1529.5279999999998 615.5509360000001C1492.8513599999999 657.220564 1439.2678299999998 712.7520400000001 1371.41004 768.41765C1236.94571 878.711834 1038.97794 995.52578125 800.8 995.52578125C562.618056 995.52578125 364.651287 878.711834 230.191962 768.41765C162.330168 712.7520400000001 108.751643 657.220564 72.0690971 615.5509360000001C53.6868332 594.669075 39.4367974 577.1435670000001 29.6485189 564.651087C24.7516269 558.400843 20.9631422 553.400848 18.324306 549.8573080000001L13.8871733 543.7952520000001C-4.62905443 517.750233 -4.62905443 482.838356 13.8871733 456.7933370000001L18.324306 450.73028C20.9631422 447.1877410000001 24.7516269 442.186745 29.6485189 435.937502C39.4367974 423.445022 53.6868332 405.9185130000001 72.0690971 385.037653C108.751643 343.368025 162.330168 287.835548 230.191962 232.1709390000001C364.651287 121.876755 562.618056 5.0630580000001 800.8 5.0630580000001C1038.97794 5.0630580000001 1236.94571 121.876755 1371.41004 232.1709390000001C1439.2678299999998 287.835548 1492.8513599999999 343.368025 1529.5279999999998 385.037653C1547.91637 405.9185130000001 1562.1606 423.445022 1571.9503799999998 435.937502C1576.84527 442.186745 1580.63906 447.1877410000001 1583.27169 450.73028L1587.7161299999998 456.7933370000001C1606.2246199999997 482.838356 1606.1945899999998 517.795278 1587.67609 543.840297L1583.27169 549.8573080000001zM170.91074 500.293794C175.161987 495.277783 179.784605 489.915426 184.770586 484.251768C217.439222 447.1416950000001 265.225961 397.6352380000001 325.418093 348.260913C447.065619 248.4762280000001 611.9623509999999 155.2130580000001 800.8 155.2130580000001C989.63865 155.2130580000001 1154.5333799999999 248.4762280000001 1276.18491 348.260913C1336.37504 397.6352380000001 1384.1627799999999 447.1416950000001 1416.82541 484.251768C1421.81039 489.915426 1426.43501 495.277783 1430.6892599999999 500.293794C1426.43501 505.3108060000001 1421.81039 510.673163 1416.82541 516.3368210000001C1384.1627799999999 553.4458930000001 1336.37504 602.953351 1276.18491 652.3276760000001C1154.5333799999999 752.11136 989.63865 845.375531 800.8 845.375531C611.9623509999999 845.375531 447.065619 752.11136 325.418093 652.3276760000001C265.225961 602.953351 217.439222 553.4458930000001 184.770586 516.3368210000001C179.784605 510.673163 175.161987 505.3108060000001 170.91074 500.293794z M800.803003 233.0147820000001C948.468521 233.0147820000001 1068.1771099999999 352.7213690000001 1068.1771099999999 500.3868870000001C1068.1771099999999 648.052405 948.468521 767.758992 800.803003 767.758992C765.668904 767.758992 732.117386 760.982222 701.384684 748.6649170000001C729.153425 729.346618 747.328582 697.201505 747.328582 660.81015C747.328582 601.744143 699.445747 553.861308 640.37974 553.861308C603.989386 553.861308 571.843272 572.036465 552.5249729999999 599.805206C540.207668 569.072504 533.430898 535.520986 533.430898 500.3868870000001C533.430898 352.7213690000001 653.137485 233.0147820000001 800.803003 233.0147820000001z" />
    <glyph glyph-name="file"
      unicode="&#xE00F;"
      horiz-adv-x="1000.9999999999999" d=" M587.7872 939.939C669.2686 1021.4204 801.4005999999999 1021.4204 882.6818 939.939C964.1632 858.4576 964.1632 726.3256000000001 882.6818 645.0444L505.5049999999999 267.6674000000001C455.6551999999999 217.8176000000001 374.7744 217.8176000000001 324.9246 267.6674000000001S275.0748 398.398 324.9246 448.2478L633.6329999999999 756.9562C652.0514 775.3746 681.6809999999999 775.3746 699.8992 756.9562C718.1174 738.5378000000001 718.3176 708.9082 699.8992 690.69L391.1908 381.9816000000001C377.9776 368.7684000000001 377.9776 347.3470000000001 391.1908 333.9336000000001C404.404 320.7204000000001 425.8254 320.7204000000001 439.2388 333.9336000000001L816.4155999999999 711.1104C861.2603999999999 755.9552000000001 861.2603999999999 828.6278000000001 816.4155999999999 873.4726S698.8982 918.3174 654.0534 873.4726L208.4082 427.6272000000002C131.9318 351.1508000000001 131.9318 227.4272000000001 208.4082 150.9508000000002C284.8846 74.6746000000002 408.6082 74.6746000000002 485.0845999999999 150.9508000000002L862.2613999999999 528.1276000000001C880.6797999999999 546.546 910.3093999999998 546.546 928.5275999999998 528.1276000000001C946.7458 509.7092000000002 946.946 480.0796000000001 928.5275999999998 461.8614000000001L551.3507999999999 84.6846000000002C438.2377999999999 -28.4284 255.0547999999999 -28.4284 142.142 84.6846000000002C29.0289999999999 197.7976000000001 29.0289999999999 380.9806000000001 142.142 493.8934000000001L587.7872 939.939z" />
    <glyph glyph-name="filter"
      unicode="&#xE010;"
      horiz-adv-x="1091.09" d=" M-13.4134 826.4256C-13.4134 845.6448 2.2022 861.2604 21.6216 861.2604H161.3612C180.5804 861.2604 196.3962 845.6448 196.3962 826.4256S180.7806 791.5908 161.3612 791.5908H21.4214C2.2022 791.3906 -13.4134 807.2064 -13.4134 826.4256zM405.8053999999999 826.4256C405.8053999999999 845.6448 421.421 861.2604 440.8404 861.2604H1069.6685999999997C1088.8877999999997 861.2604 1104.7035999999998 845.6448 1104.7035999999998 826.4256S1089.088 791.5908 1069.6685999999997 791.5908H440.6402C421.421 791.3906 405.8053999999999 807.2064 405.8053999999999 826.4256z M-13.4134 174.5744000000001C-13.4134 193.7936000000001 2.2022 209.4092000000001 21.6216 209.4092000000001H161.3612C180.5804 209.4092000000001 196.3962 193.7936 196.3962 174.5744000000001C196.3962 155.3552 180.7806 139.7396000000001 161.3612 139.7396000000001H21.4214C2.2022 139.7396000000001 -13.4134 155.3552000000002 -13.4134 174.5744000000001zM405.8053999999999 174.5744000000001C405.8053999999999 193.7936000000001 421.421 209.4092000000001 440.8404 209.4092000000001H1069.6685999999997C1088.8877999999997 209.4092000000001 1104.7035999999998 193.7936 1104.7035999999998 174.5744000000001C1104.7035999999998 155.3552 1089.088 139.7396000000001 1069.6685999999997 139.7396000000001H440.6402C421.421 139.7396000000001 405.8053999999999 155.3552000000002 405.8053999999999 174.5744000000001z M-13.4134 500.5000000000001C-13.4134 519.7192 2.2022 535.3348000000001 21.6216 535.3348000000001H650.4498C669.6690000000001 535.3348000000001 685.4848 519.7192 685.4848 500.5000000000001C685.4848 481.2808 669.8692 465.6652000000001 650.4498 465.6652000000001H21.4214C2.2022 465.6652000000001 -13.4134 481.2808 -13.4134 500.5000000000001zM894.8939999999999 500.5000000000001C894.8939999999999 519.7192 910.5096 535.3348000000001 929.9289999999997 535.3348000000001H1069.6685999999997C1088.8877999999997 535.3348000000001 1104.7035999999998 519.7192 1104.7035999999998 500.5000000000001C1104.7035999999998 481.2808 1089.088 465.6652000000001 1069.6685999999997 465.6652000000001H929.9289999999997C910.5096 465.6652000000001 894.8939999999999 481.2808 894.8939999999999 500.5000000000001z M300.9006 931.1302C243.0428 931.1302 196.196 884.2834 196.196 826.4256S243.0428 721.721 301.1008 721.721S406.0056 768.5678 406.0056 826.4256S358.9586 931.1302 300.9006 931.1302zM126.3262 826.4256C126.3262 922.922 204.6044 1001 300.9006 1001S475.6752 922.922 475.6752 826.4256S397.397 651.8512000000001 300.9006 651.8512000000001S126.3262 729.9292 126.3262 826.4256z M300.9006 279.2790000000001C243.0428 279.2790000000001 195.9958 232.4322000000001 195.9958 174.5744000000001C195.9958 116.7166000000001 242.8426 69.8698000000001 300.9006 69.8698000000001S405.8054 116.7166 405.8054 174.5744000000001C405.8053999999999 232.4322000000001 358.9586 279.2790000000001 300.9006 279.2790000000001zM126.3262 174.5744000000001C126.3262 271.0708000000001 204.6044 349.1488000000001 301.1008 349.1488000000001S475.8753999999999 271.0708000000001 475.8753999999999 174.5744000000001S397.397 1e-13 300.9006 1e-13S126.3262 78.0780000000001 126.3262 174.5744000000001z M790.1893999999999 605.2046C732.3316 605.2046 685.2846 558.3578 685.2846 500.5000000000001C685.2846 442.6422000000001 732.1313999999999 395.7954000000001 790.1893999999999 395.7954000000001S894.8939999999999 442.6422000000001 894.8939999999999 500.5000000000001C894.8939999999999 558.3578 848.0472 605.2046 790.1893999999999 605.2046zM615.4147999999999 500.5000000000001C615.4147999999999 596.9964 693.6929999999999 675.0744 790.1893999999999 675.0744S964.964 596.9964 964.964 500.5000000000001C964.964 404.0036000000001 886.6857999999999 325.9256000000002 790.1893999999999 325.9256000000002S615.4147999999999 404.0036000000001 615.4147999999999 500.5000000000001z" />
    <glyph glyph-name="key"
      unicode="&#xE011;"
      horiz-adv-x="1000.9999999999999" d=" M639.2385999999999 907.1062C590.7902 907.1062 546.3458 895.0942 505.3047999999999 871.0702L504.9044 870.87C465.0646 847.847 433.0326 816.2154 408.6082 774.5738C385.9856 734.734 374.374 691.0904 374.374 642.2416000000001C374.374 614.2136 378.7783999999999 586.7862 387.9876 559.559L397.1968 532.1316L91.091 226.2260000000001V94.0940000000001H280.6804V207.4072000000001H393.9935999999999V320.9206000000002H504.7041999999999L563.3627999999999 386.9866000000001L589.3887999999998 382.1818000000002C605.4047999999999 379.1788000000002 621.8211999999999 377.5772000000001 639.2385999999998 377.5772000000001C713.1123999999998 377.5772000000001 774.3735999999998 402.8024000000002 825.8249999999998 454.2538000000002C878.4775999999998 506.9064000000001 904.3033999999998 568.9684000000002 904.3033999999998 642.642S878.6777999999997 777.3766 826.2253999999998 828.8280000000001L825.8249999999998 829.0282000000001L825.4245999999998 829.4286000000001C773.9731999999999 881.4806 712.9122 907.1062 639.2385999999999 907.1062zM458.0576 952.1512C513.7132 984.5836 574.3738 1001 639.2385999999999 1001C737.9372 1001 823.0222 965.3644 892.0912 895.0942C962.3614 826.0252 997.9969999999998 740.9402 997.9969999999998 642.2416000000001S962.3613999999998 457.6572000000001 892.0912 387.5872000000002C823.0222 318.5182000000001 737.737 283.4832000000001 639.2385999999999 283.4832000000001C625.6249999999999 283.4832000000001 612.2116 284.2840000000001 598.9984 285.6854000000002L573.3727999999999 256.8566000000002C555.9553999999999 237.0368000000003 532.1315999999998 226.8266000000002 506.3057999999999 226.8266000000002H487.6871999999999V202.8026000000002C487.6871999999999 178.7786000000002 478.6781999999999 156.7566000000003 461.4609999999999 139.5394000000002C444.2437999999999 122.3222000000002 422.2217999999999 113.3132000000002 398.1977999999999 113.3132000000002H374.1737999999999V89.2892000000002C374.1737999999999 65.2652000000002 365.1647999999999 43.2432000000001 347.9475999999999 26.0260000000001C330.7303999999999 8.8088 308.7084 -0.2001999999999 284.6844 -0.2001999999999H86.2862C62.2622 -0.2001999999999 40.2402 8.8088 23.023 26.0260000000001C5.8058 43.2432000000001 -3.2032 65.2652000000002 -3.2032 89.2892000000002V227.4272000000001C-3.2032 251.4512000000001 5.8058 273.4732000000002 23.023 290.6904000000002L290.6904 558.3578000000001C283.8836 585.7852 280.4802 613.8132 280.4802 642.2416000000001C280.4802 706.7060000000001 296.0958 766.9662000000001 327.5272 821.6208000000001L327.7274 822.0212000000001C359.9596 877.0762 403.6032 920.7198 458.0576 952.1512zM630.8302 820.6198C656.2556 846.0452 688.2876 859.2584 724.3235999999999 859.2584S792.3915999999999 846.2454 817.8169999999999 820.6198C843.2423999999999 795.1944000000001 856.4555999999999 763.1624 856.4555999999999 727.1264S843.4426 659.0584 817.8169999999999 633.633C792.1913999999999 608.2076000000001 760.3595999999999 594.9944 724.3235999999999 594.9944S656.2556 608.0074 630.8302 633.633C605.4048 659.0584 592.1916 691.0904 592.1916 727.1264S605.4047999999999 795.1944000000001 630.8302 820.6198zM724.3235999999999 765.3646C712.9122 765.3646 704.9042 761.9612 697.2965999999999 754.3536C689.689 746.7460000000001 686.2855999999999 738.5378000000001 686.2855999999999 727.3266000000001S689.689 707.9072000000001 697.2965999999999 700.2996S713.1123999999999 689.2886000000001 724.3235999999999 689.2886000000001S743.7429999999999 692.692 751.3506 700.2996S762.3616 716.1154000000001 762.3616 727.3266000000001S758.9581999999999 746.7460000000001 751.3506 754.3536S735.5347999999999 765.3646 724.3235999999999 765.3646z" />
    <glyph glyph-name="lock"
      unicode="&#xE012;"
      horiz-adv-x="1000.9999999999999" d=" M211.8116 712.1114C211.8116 871.6708 341.1407999999999 1000.7998 500.7002 1000.7998S789.5888 871.4706 789.5888 712.1114V638.0373999999999H833.4326C870.8699999999999 638.0373999999999 904.3033999999998 624.4238 930.93 597.7972C957.5565999999998 571.1706 971.1702 537.9374 971.1702 500.2998V137.5374000000001C971.1702 100.1000000000001 957.5565999999998 66.6666000000001 930.93 40.0400000000001C904.3033999999998 13.4134000000001 871.0702 -0.2001999999999 833.4326 -0.2001999999999H167.9678C130.5304 -0.2001999999999 97.097 13.4134000000001 70.4704 40.0400000000001C44.044 66.8668 30.4304 100.3002000000001 30.4304 137.7376000000002V500.5000000000001C30.4304 537.9374 44.044 571.3708 70.6706 597.9974S130.5304 638.2375999999999 168.168 638.2375999999999H212.0118L211.8116 712.1114L211.8116 712.1114zM305.7054 638.0373999999999H695.6949999999999V712.1114C695.6949999999999 819.819 608.4077999999998 907.1062 500.7001999999999 907.1062S305.7054 819.819 305.7054 712.1114L305.7054 638.0373999999999L305.7054 638.0373999999999zM167.9678 544.3438000000001C155.155 544.3438000000001 145.5454 540.3398000000001 136.9368 531.5310000000001C128.128 522.9224 124.124 513.3128 124.124 500.5000000000001V137.7376000000002C124.124 124.9248000000001 128.128 115.3152000000001 136.9368 106.7066000000001C145.7456 97.8978000000002 155.155 93.8938000000002 167.9678 93.8938000000002H833.2324C846.0451999999999 93.8938000000002 855.6548 97.8978000000002 864.2634 106.7066000000001C873.0722 115.5154000000001 877.0762 124.9248000000001 877.0762 137.7376000000002V500.5000000000001C877.0762 513.3128 873.0722 522.9224 864.2634 531.5310000000001C855.4546 540.3398000000001 846.0451999999999 544.3438000000001 833.2324 544.3438000000001H167.9678z" />
    <glyph glyph-name="menu"
      unicode="&#xE013;"
      horiz-adv-x="1333.3319999999999" d=" M0 935.7348C0 971.7708 28.028 1001 62.4624 1001H1270.8696C1305.3039999999999 1001 1333.3319999999999 971.7708 1333.3319999999999 935.7348C1333.3319999999999 899.6988 1305.3039999999999 870.4696 1270.8695999999998 870.4696H62.4624C28.028 870.4696 0 899.6988 0 935.7348z M0 500.5000000000001C0 536.5360000000001 28.028 565.7652 62.4624 565.7652H1270.8696C1305.3039999999999 565.7652 1333.3319999999999 536.5360000000001 1333.3319999999999 500.5000000000001S1305.3039999999999 435.2348000000001 1270.8695999999998 435.2348000000001H62.4624C28.028 435.2348000000001 0 464.4640000000001 0 500.5000000000001z M0 65.2652000000002C0 101.3012000000001 28.028 130.5304000000002 62.4624 130.5304000000002H1270.8696C1305.304 130.5304000000002 1333.332 101.3012000000001 1333.332 65.2652000000002C1333.332 29.2292000000001 1305.304 1e-13 1270.8696 1e-13H62.4624C28.028 1e-13 0 29.2292000000001 0 65.2652000000002z" />
    <glyph glyph-name="more"
      unicode="&#xE014;"
      horiz-adv-x="1000.9999999999999" d=" M6.006 100.1000000000001C6.006 44.8162965419377 50.8222965419376 1e-13 106.106 1e-13C161.3897034580624 1e-13 206.206 44.8162965419377 206.206 100.1000000000001C206.206 155.3837034580624 161.3897034580624 200.2000000000001 106.106 200.2000000000001C50.8222965419376 200.2000000000001 6.006 155.3837034580624 6.006 100.1000000000001z M406.406 100.1000000000001C406.406 44.8162965419377 451.2222965419375 1e-13 506.506 1e-13C561.7897034580624 1e-13 606.6059999999999 44.8162965419377 606.6059999999999 100.1000000000001C606.6059999999999 155.3837034580624 561.7897034580624 200.2000000000001 506.506 200.2000000000001C451.2222965419375 200.2000000000001 406.406 155.3837034580624 406.406 100.1000000000001z M806.8059999999999 100.1000000000001C806.8059999999999 44.8162965419377 851.6222965419375 1e-13 906.906 1e-13C962.1897034580622 1e-13 1007.0059999999997 44.8162965419377 1007.0059999999997 100.1000000000001C1007.0059999999997 155.3837034580624 962.1897034580622 200.2000000000001 906.906 200.2000000000001C851.6222965419375 200.2000000000001 806.8059999999999 155.3837034580624 806.8059999999999 100.1000000000001z" />
    <glyph glyph-name="notification-hover"
      unicode="&#xE015;"
      horiz-adv-x="916.9159999999999" d=" M531.7312 969.7688C531.7312 986.986 517.7171999999999 1001 500.5 1001C483.2828 1001 469.2688 986.986 469.2688 969.7688V911.7108C309.309 895.895 183.9838 760.76 183.9838 596.596V486.8864C183.9838 347.9476 128.128 289.0888 97.097 266.6664000000001C74.6746 250.2500000000001 52.2522 222.2220000000001 52.2522 186.5864C52.2522 141.1410000000001 89.089 104.3042 134.5344 104.3042H367.367C370.5702 87.4874000000001 377.377 69.069 389.1888 52.4524000000001C410.6102 22.0220000000002 447.0466 1e-13 500.4999999999999 1e-13S590.3897999999999 21.8218000000001 611.8112 52.2522000000001C623.6229999999999 69.0690000000001 630.2296 87.2872000000001 633.6329999999999 104.104H866.4655999999999C911.911 104.104 948.7478 140.9408000000001 948.7478 186.3862000000002C948.7478 222.0218000000001 926.3254 250.0498000000001 903.903 266.4662000000001C872.8720000000001 288.8886000000001 817.0162 347.7474000000002 817.0162 486.6862000000001V596.596C817.0162 760.9602 692.0914000000001 896.0952 531.9314 911.7108L531.7312 969.7688L531.7312 969.7688zM432.2318 104.3042000000002C434.2338 98.8988000000002 436.8364 93.4934000000002 440.44 88.4884000000002C449.6492 75.4754000000002 466.2658 62.6626000000002 500.7001999999999 62.6626000000002S551.7512 75.4754000000002 560.9603999999999 88.4884000000002C564.564 93.4934000000002 567.1666 98.8988000000002 569.1686 104.3042000000002H432.2318z" />
    <glyph glyph-name="notification"
      unicode="&#xE016;"
      horiz-adv-x="916.9159999999999" d=" M458.458 1001C475.6752 1001 489.6891999999999 986.986 489.6891999999999 969.7688V911.7108C649.8492 896.0952 774.7739999999999 760.9602 774.7739999999999 596.596V486.8864C774.7739999999999 347.9476 830.6297999999998 289.0888 861.6607999999999 266.6664000000001C884.0831999999998 250.2500000000001 906.5055999999998 222.2220000000001 906.5055999999998 186.5864C906.5055999999998 141.1410000000001 869.6687999999998 104.3042 824.2233999999997 104.3042H591.3907999999999C588.1875999999999 87.4874000000001 581.3807999999999 69.069 569.569 52.4524000000001C548.1476 21.8218000000001 511.9113999999999 1e-13 458.458 1e-13C405.0046 1e-13 368.7684 21.8218000000001 347.1468 52.2522000000001C335.335 69.0690000000001 328.7284 87.2872000000001 325.325 104.104H92.6926C47.2472 104.104 10.4104 140.9408000000001 10.4104 186.3862000000002C10.4104 222.0218000000001 32.8328 250.0498000000001 55.2552 266.4662000000001C86.2862 288.8886000000001 142.142 347.7474000000002 142.142 486.6862000000001V596.596C142.142 760.9602 267.267 896.0952 427.2268 911.7108V969.7688C427.2268 986.986 441.2408 1001 458.458 1001zM390.1898 104.3042000000002C392.1918 98.8988000000002 394.7944 93.4934000000002 398.398 88.4884000000002C407.6071999999999 75.4754000000002 424.2238 62.6626000000002 458.458 62.6626000000002S509.509 75.4754000000002 518.5179999999999 88.4884000000002C521.9214 93.4934000000002 524.7242 98.8988000000002 526.7262 104.3042000000002H390.1898zM458.458 850.6498C318.318 850.6498 204.6044 736.9362000000001 204.6044 596.596V486.8864C204.6044 327.7274000000001 138.9388 250.2500000000001 92.092 216.0158C79.079 206.4062 73.073 194.9948000000001 73.073 186.5864C73.073 175.7756000000002 81.8818 166.7666000000002 92.8928 166.7666000000002H824.4235999999999C835.2343999999998 166.7666000000002 844.2433999999997 175.5754000000001 844.2433999999997 186.5864C844.2433999999997 194.9948000000001 838.2373999999998 206.4062 825.2243999999997 216.0158C778.1773999999998 250.2500000000001 712.7119999999998 327.7274000000001 712.7119999999998 486.8864V596.596C712.3116 736.9362000000001 598.598 850.6498 458.458 850.6498z" />
    <glyph glyph-name="plus"
      unicode="&#xE017;"
      horiz-adv-x="1000.9999999999999" d=" M500.4999999999999 1000.7998C535.1346 1000.7998 563.1626 972.7718 563.1626 938.1372V562.9624H938.5375999999998C973.1722 562.9624 1001.2001999999998 534.9344000000001 1001.2001999999998 500.2998S973.1722 437.6372 938.5375999999998 437.6372H563.1626V62.4624C563.1626 27.8277999999999 535.1346 -0.2002 500.4999999999999 -0.2002S437.8374 27.8277999999999 437.8374 62.4624V437.8374H62.6626C28.028 437.8374 0 465.8654 0 500.5000000000001S28.028 563.1626000000001 62.6626 563.1626000000001H438.0376V938.1372C438.0376 972.7718 465.8653999999999 1000.7998 500.4999999999999 1000.7998z" />
    <glyph glyph-name="power"
      unicode="&#xE018;"
      horiz-adv-x="874.8739999999999" d=" M248.4482 755.5548C264.0638 734.9342 259.8596 705.5048 239.0388 689.8892000000001C158.5584 629.4288000000001 106.7066 533.3328000000001 106.7066 424.8244000000002C106.7066 242.0418000000002 254.8546 93.6936000000003 437.437 93.6936000000003S768.1673999999999 241.8416000000002 768.1673999999999 424.8244000000002C768.1673999999999 533.1326000000001 716.3155999999999 629.2286000000001 635.8352 689.8892000000001C615.2145999999999 705.5048000000002 611.0104 734.7340000000002 626.4258 755.5548000000001C642.0414000000001 776.1754000000001 671.2706 780.3796000000001 692.0914 764.9642000000001C794.9942 687.6870000000001 861.861 564.1636000000002 861.861 425.0246000000002C861.861 190.3902000000003 671.8711999999999 2e-13 437.4370000000001 2e-13S13.0130000000001 190.1900000000002 13.0130000000001 425.0246000000002C13.0130000000001 564.1636000000002 79.6796000000001 687.4868000000001 182.7826000000001 764.9642000000001C203.6034 780.3796 232.8326 776.1754000000001 248.4482 755.5548z M437.6372 1001C463.463 1001 484.4839999999999 979.979 484.4839999999999 954.1532V651.6510000000001C484.4839999999999 625.8252 463.463 604.8042 437.6372 604.8042S390.7903999999999 625.8252 390.7903999999999 651.6510000000001V954.1532C390.5901999999999 979.979 411.6112 1001 437.6372 1001z" />
    <glyph glyph-name="qoute"
      unicode="&#xE019;"
      horiz-adv-x="1597.340425531915" d=" M1212.6518659574467 1107.4893617021276C995.1132680851063 1107.4893617021276 823.3459276595744 931.1127357446808 823.3459276595744 713.5745638297872C823.3459276595744 496.0359659574469 1002.0095191489362 319.6597659574469 1219.5481170212765 319.6597659574469C1221.7247595744682 319.6597659574469 1225.0067617021277 319.9536765957447 1227.1834042553191 319.9920127659575C1141.1719468085105 251.4980553191489 1033.1406191489361 210.2270382978725 914.8905723404254 210.2270382978725C860.4894170212766 210.2270382978725 816.7073808510638 166.112755319149 816.7073808510638 111.7478063829786C816.7073808510638 57.3807276595745 851.7104340425532 13.268574468085 906.1137191489362 13.268574468085C1292.2462744680852 13.3047808510638 1597.3446851063832 327.4420085106384 1597.3446851063832 713.5745638297872C1597.3446851063832 713.6491063829787 1597.3446851063832 713.7215191489362 1597.3446851063832 713.8322680851064C1597.3446851063832 931.26033 1430.1159212765958 1107.4893617021276 1212.6518659574467 1107.4893617021276z M290.0067382978724 1107.4893617021276C72.4689923404255 1107.4893617021276 -99.5922587234043 931.1127357446808 -99.5922587234043 713.5745638297872C-99.5922587234043 496.0359659574469 78.9235255319149 319.6597659574469 296.498329787234 319.6597659574469C298.6749723404256 319.6597659574469 301.8845617021277 319.9536765957447 304.0590744680851 319.9920127659575C218.0476170212766 251.4980553191489 109.9794440425532 210.2270382978725 -8.2688137446808 210.2270382978725C-62.6717580851064 210.2270382978725 -106.4893617021276 166.112755319149 -106.4893617021276 111.7478063829786C-106.4893617021276 57.3807276595745 -70.9338417021277 13.268574468085 -16.5306843829787 13.268574468085C369.6011468085107 13.3047808510638 675.2554319148936 327.4420085106384 675.2554319148936 713.5745638297872C675.2554319148936 713.6491063829787 675.2554319148936 713.7215191489362 675.2554319148936 713.8322680851064C675.2554319148936 931.26033 507.4729234042553 1107.4893617021276 290.0067382978724 1107.4893617021276z" />
    <glyph glyph-name="save"
      unicode="&#xE01A;"
      horiz-adv-x="1000.9999999999999" d=" M0.2002 954.1532C0.2002 979.979 21.2212 1001 47.047 1001H744.7439999999999C757.1563999999998 1001 769.1683999999999 995.995 777.9771999999999 987.1862L987.3864 777.777C996.1951999999998 768.9682 1001.2001999999998 756.9562000000001 1001.2001999999998 744.5438V46.8468C1001.2001999999998 21.0210000000001 980.1792 1e-13 954.3534 1e-13H46.8468C21.021 1e-13 0.2002 21.0210000000001 0.2002 46.8468V954.1532zM93.8938 907.1062V93.8938000000002H907.1061999999998V725.3246L725.3245999999998 907.1062H721.9211999999999V674.8742000000001C721.9211999999999 649.0484000000001 700.9001999999998 628.0274000000001 675.0743999999999 628.0274000000001H326.1258C300.3 628.0274000000001 279.279 649.0484000000001 279.279 674.8742000000001V907.1062C279.279 907.1062 93.8938 907.1062 93.8938 907.1062zM372.9726 907.1062V721.9212H628.0274000000001V907.1062H372.9726z M500.4999999999999 280.2800000000001C544.9444 280.2800000000001 581.1805999999999 316.3160000000001 581.1805999999999 360.9606000000001C581.1805999999999 405.4050000000001 545.1446 441.6412000000002 500.4999999999999 441.6412000000002C456.0556 441.6412000000002 419.8193999999999 405.6052000000001 419.8193999999999 360.9606000000001C419.8193999999999 316.3160000000001 456.0556 280.2800000000001 500.4999999999999 280.2800000000001zM500.4999999999999 186.3862000000002C596.7962 186.3862000000002 674.8742 264.4642000000001 674.8742 360.7604000000001S596.7962 535.1346000000001 500.5 535.1346000000001S326.1258000000001 457.0566000000002 326.1258000000001 360.7604000000001C326.1258 264.6644000000001 404.2038 186.3862000000002 500.4999999999999 186.3862000000002z" />
    <glyph glyph-name="search"
      unicode="&#xE01B;"
      horiz-adv-x="1000.9999999999999" d=" M468.0676 907.1062C261.4612 907.1062 93.8938 739.5388 93.8938 532.9324S261.4612 158.7586 468.0676 158.7586C571.3708 158.7586 664.8642 200.6003999999999 732.732 268.4682S842.4415999999999 429.8294 842.4415999999999 533.1325999999999C842.4415999999999 739.5388 674.8742 907.1062 468.0676 907.1062zM0 532.9324C0 791.3906 209.6094 1001 468.0676 1001C726.7259999999999 1001 936.1352 791.3906 936.1352 532.9324C936.1352 420.6202 896.4956 317.5172000000001 830.6297999999999 236.8366L987.1862 80.2802C1005.6045999999998 61.8618 1005.6045999999998 32.2322 987.1862 14.014C968.7678 -4.4044 939.1382 -4.4044 920.9199999999998 14.014L764.3635999999999 170.5704C683.6829999999999 104.7046 580.5799999999999 65.0649999999999 468.2678 65.0649999999999C209.6094 64.8648000000001 0 274.2740000000001 0 532.9324z" />
    <glyph glyph-name="sort-down"
      unicode="&#xE01C;"
      horiz-adv-x="2001.9999999999998" d=" M893.4925999999999 38.6386000000001L44.6446 775.7750000000001C-50.8508 858.858 16.8168 1001 152.152 1001H1849.8479999999995C1985.1831999999995 1001 2053.051 858.858 1957.3554 775.7750000000001L1108.5074 38.6386000000001C1049.0479999999998 -12.8127999999998 952.9519999999998 -12.8127999999998 893.4925999999999 38.6386000000001z" />
    <glyph glyph-name="sort-full"
      unicode="&#xE01D;"
      horiz-adv-x="832.8319999999999" d=" M379.379 15.2152000000002L88.2882 306.9066000000002C55.4554 339.7394000000001 78.6786 395.9956000000001 125.125 395.9956000000001H707.5067999999999C753.9531999999998 395.9956000000001 777.1764 339.7394000000001 744.3435999999998 306.9066000000002L453.0526 15.2152000000002C432.8324 -5.0049999999999 399.7994 -5.0049999999999 379.379 15.2152000000002z M379.379 985.7848L88.2882 694.0934C55.4554 661.2606000000001 78.6786 605.0044 125.125 605.0044H707.5067999999999C753.9531999999998 605.0044 777.1764 661.2606000000001 744.3435999999998 694.0934L453.0526 985.7848C432.8324 1006.005 399.7994 1006.005 379.379 985.7848z" />
    <glyph glyph-name="sort-up"
      unicode="&#xE01E;"
      horiz-adv-x="2001.9999999999998" d=" M893.4925999999999 962.3614L44.6446 225.2250000000002C-50.8508 142.1420000000001 16.8168 1e-13 152.152 1e-13H1849.8479999999995C1985.1831999999995 1e-13 2053.051 142.1420000000001 1957.3554 225.2250000000002L1108.5074 962.3614C1049.0479999999998 1013.8128 952.9519999999998 1013.8128 893.4925999999999 962.3614z" />
    <glyph glyph-name="sort"
      unicode="&#xE01F;"
      horiz-adv-x="1000.9999999999999" d=" M0 1001H1000.9999999999998V750.75H0V1001zM250.25 625.625H1000.9999999999998V375.3750000000001H250.25V625.625zM500.4999999999999 250.2500000000001H1000.9999999999998V1e-13H500.4999999999999V250.2500000000001z" />
    <glyph glyph-name="sorting-down"
      unicode="&#xE020;"
      horiz-adv-x="1221.2199999999998" d=" M268.8686 984.1832C291.291 1006.6056 327.5272 1006.6056 349.9496 984.1832L603.4027999999998 730.9302C625.8251999999999 708.5078000000001 625.8251999999999 672.2716 603.4027999999998 649.8492000000001C580.9803999999999 627.4268000000001 544.7441999999999 627.4268000000001 522.3217999999999 649.8492000000001L366.7663999999999 805.2044V57.2572C366.7663999999999 25.6256 341.1407999999999 0 309.309 0C277.6773999999999 0 251.8516 25.6256 251.8516 57.2572V805.4046000000001L96.2962 650.0494C73.8738 627.6270000000001 37.6376 627.6270000000001 15.2152 650.0494C-7.2072 672.4718 -7.2072 708.7080000000001 15.2152 731.1304L268.8686 984.1832z M649.2485999999999 604.4038C671.6709999999999 626.8262 707.9072 626.8262 730.3295999999999 604.4038L857.0562 477.8774000000001C879.4785999999999 455.455 879.4785999999999 419.2188 857.0562 396.7964000000001C834.6338 374.374 798.3975999999999 374.374 775.9752 396.7964000000001L747.1464 425.6252V57.4574C747.1464 25.8258 721.5208 0.2001999999999 689.6890000000001 0.2001999999999C658.0574 0.2001999999999 632.2316000000001 25.8258 632.2316000000001 57.4574V425.4250000000001L603.4028000000001 396.5962000000001C580.9804000000001 374.1738000000002 544.7442000000001 374.1738000000002 522.3218000000002 396.5962000000001C499.8994000000001 419.0186000000001 499.8994000000001 455.2548000000002 522.3218000000002 477.6772000000001L649.2485999999999 604.4038z M1070.069 367.9676000000001C1085.2841999999998 367.9676000000001 1099.8988 361.9616000000001 1110.7095999999997 351.1508000000001L1205.8045999999997 256.2560000000002C1228.2269999999999 233.8336000000003 1228.2269999999999 197.5974000000002 1205.8045999999997 175.1750000000002C1184.3831999999998 153.7536000000002 1150.149 152.7526000000003 1127.5263999999997 172.5724000000001V57.4574000000002C1127.5263999999997 25.8258000000002 1101.9008 0.2002000000001 1070.0689999999997 0.2002000000001C1038.4373999999998 0.2002000000001 1012.6115999999998 25.8258000000002 1012.6115999999998 57.4574000000002V172.5724000000001C989.9889999999996 152.9528000000002 955.7547999999998 153.7536000000002 934.3333999999996 175.1750000000002C911.9109999999998 197.5974000000002 911.9109999999998 233.8336000000003 934.3333999999996 256.2560000000002L1029.4283999999996 351.1508000000001C1040.4394 361.7614000000001 1054.8537999999999 367.9676000000001 1070.069 367.9676000000001z" />
    <glyph glyph-name="sorting-up"
      unicode="&#xE021;"
      horiz-adv-x="1221.2199999999998" d=" M952.1512 984.1832C929.7288 1006.6056 893.4925999999999 1006.6056 871.0702 984.1832L617.617 730.9302C595.1945999999999 708.5078000000001 595.1945999999999 672.2716 617.617 649.8492000000001C640.0393999999999 627.4268000000001 676.2755999999999 627.4268000000001 698.698 649.8492000000001L854.2533999999998 805.2044V57.2572C854.2533999999998 25.6256 879.8789999999999 0 911.7107999999998 0C943.3423999999998 0 969.1681999999998 25.6256 969.1681999999998 57.2572V805.4046000000001L1124.7235999999998 650.0494C1147.146 627.6270000000001 1183.3821999999998 627.6270000000001 1205.8045999999997 650.0494C1228.2269999999999 672.4718 1228.2269999999999 708.7080000000001 1205.8045999999997 731.1304L952.1512 984.1832z M571.9713999999999 604.4038C549.549 626.8262 513.3127999999999 626.8262 490.8903999999999 604.4038L364.1637999999999 477.8774000000001C341.7414 455.455 341.7414 419.2188 364.1637999999999 396.7964000000001C386.5861999999999 374.374 422.8223999999999 374.374 445.2447999999999 396.7964000000001L474.0735999999999 425.6252V57.4574C474.0735999999999 25.8258 499.6991999999999 0.2001999999999 531.531 0.2001999999999C563.1626 0.2001999999999 588.9884 25.8258 588.9884 57.4574V425.4250000000001L617.8171999999998 396.5962000000001C640.2395999999999 374.1738000000002 676.4757999999999 374.1738000000002 698.8981999999999 396.5962000000001C721.3205999999998 419.0186000000001 721.3205999999998 455.2548000000002 698.8981999999999 477.6772000000001L571.9713999999999 604.4038z M151.151 367.9676000000001C135.9358 367.9676000000001 121.3212 361.9616000000001 110.5104 351.1508000000001L15.4154 256.0558000000001C-7.007 233.6334000000001 -7.007 197.3972 15.4154 174.9748000000001C36.8368 153.5534000000001 71.071 152.5524 93.6936 172.3722V57.2572C93.6936 25.6256 119.3192 0 151.151 0C182.7826 0 208.6084 25.6256 208.6084 57.2572V172.3722C231.231 152.7526 265.4652 153.5534000000001 286.8866 174.9748000000001C309.309 197.3972 309.309 233.6334000000001 286.8866 256.0558000000001L191.7916 350.9506C180.9808 361.7614000000001 166.3662 367.9676000000001 151.151 367.9676000000001z" />
    <glyph glyph-name="upload"
      unicode="&#xE022;"
      horiz-adv-x="1000.9999999999999" d=" M0 46.8468C0 72.6726 21.021 93.6936000000001 46.8468 93.6936000000001H953.9529999999997C979.7787999999998 93.6936000000001 1000.7997999999998 72.6726 1000.7997999999998 46.8468S979.979 1e-13 954.1532 1e-13H46.8468C21.021 1e-13 0 21.0210000000001 0 46.8468z M467.2667999999999 240.4402000000001C485.6852 222.0218000000001 515.3147999999999 222.0218000000001 533.5329999999999 240.4402000000001L835.8349999999999 542.7422000000001C854.2533999999998 561.1606 854.2533999999998 590.7902000000001 835.8349999999999 609.0084C817.6167999999999 627.4268000000001 787.7869999999999 627.4268000000001 769.5687999999999 609.0084L547.3467999999999 386.7864000000002V954.1532C547.3467999999999 979.979 526.3257999999998 1001 500.4999999999999 1001C474.6741999999999 1001 453.6531999999999 979.979 453.6531999999999 954.1532V386.9866000000001L231.4312 609.2086C213.0128 627.6270000000001 183.3832 627.6270000000001 165.165 609.2086C146.7466 590.7902000000001 146.7466 561.1606 165.165 542.9424000000001L467.2667999999999 240.4402000000001z" />
  </font>
</defs>
</svg>
