<?xml version="1.0" encoding="utf-8"?>
<!-- Generator: Adobe Illustrator 24.1.2, SVG Export Plug-In . SVG Version: 6.00 Build 0)  -->
<svg version="1.1" id="Слой_1" xmlns="http://www.w3.org/2000/svg" xmlns:xlink="http://www.w3.org/1999/xlink" x="0px" y="0px"
	 width="16.1px" height="16px" viewBox="0 0 16.1 16" style="enable-background:new 0 0 16.1 16;" xml:space="preserve">
<style type="text/css">
	.st0{fill-rule:evenodd;clip-rule:evenodd;fill:#04092A;}
</style>
<path class="st0" d="M2,0.5C2.1,0.2,2.4,0,2.7,0h0.6C3.6,0,3.8,0.2,4,0.5l1.9,5.3c0.1,0.4-0.1,0.8-0.4,1c-0.4,0.1-0.8-0.1-1-0.4
	L4.1,5.1H1.9L1.5,6.3c-0.1,0.4-0.6,0.6-1,0.4c-0.4-0.1-0.6-0.6-0.4-1L2,0.5z M2.4,3.6h1.1L3,2.2L2.4,3.6z"/>
<path class="st0" d="M0.8,9.6c0.4-0.3,1-0.4,1.3-0.4h2.5c0.4,0,0.7,0.3,0.7,0.7v5.3c0,0.4-0.3,0.7-0.7,0.7s-0.7-0.3-0.7-0.7v-1.7
	H3.1l-1.7,2.2c-0.3,0.3-0.7,0.4-1,0.1s-0.4-0.7-0.1-1.1l1.1-1.5c-0.2-0.1-0.3-0.1-0.5-0.2C0.4,12.7,0,12.2,0,11.4
	C0,10.6,0.4,10,0.8,9.6z M3.9,12v-1.3H2.1c-0.1,0-0.3,0-0.4,0.1c-0.1,0-0.1,0.1-0.1,0.2c0,0.1-0.1,0.2-0.1,0.3c0,0.2,0,0.3,0.1,0.3
	c0,0.1,0.1,0.1,0.1,0.2C1.8,12,2,12,2.1,12L3.9,12L3.9,12z"/>
<path class="st0" d="M11.8,16c0.4,0,0.7-0.3,0.7-0.7V2.6l2.2,2.2c0.3,0.3,0.8,0.3,1.1,0c0.3-0.3,0.3-0.8,0-1.1l-3.5-3.5
	c-0.3-0.3-0.8-0.3-1.1,0L7.7,3.7C7.4,4,7.4,4.5,7.7,4.8c0.3,0.3,0.8,0.3,1.1,0L11,2.6v12.7C11,15.7,11.3,16,11.8,16z"/>
</svg>
