<?xml version="1.0" encoding="utf-8"?>
<!-- Generator: Adobe Illustrator 24.1.2, SVG Export Plug-In . SVG Version: 6.00 Build 0)  -->
<svg version="1.1" id="Слой_1" xmlns="http://www.w3.org/2000/svg" xmlns:xlink="http://www.w3.org/1999/xlink" x="0px" y="0px"
	 width="16.1px" height="16px" viewBox="0 0 16.1 16" style="enable-background:new 0 0 16.1 16;" xml:space="preserve">
<style type="text/css">
	.st0{fill-rule:evenodd;clip-rule:evenodd;fill:#04092A;}
</style>
<path class="st0" d="M2.1,0.5C2.2,0.2,2.5,0,2.8,0h0.6C3.7,0,4,0.2,4.1,0.5L6,5.8c0.1,0.4-0.1,0.8-0.4,1c-0.4,0.1-0.8-0.1-1-0.4
	L4.2,5.1H2L1.6,6.3C1.4,6.7,1,6.9,0.6,6.7C0.2,6.6,0,6.2,0.2,5.8L2.1,0.5z M2.6,3.6h1.1L3.1,2.2L2.6,3.6z"/>
<path class="st0" d="M0.9,9.6c0.4-0.3,1-0.4,1.3-0.4h2.5c0.4,0,0.7,0.3,0.7,0.7v5.3c0,0.4-0.3,0.7-0.7,0.7S4,15.7,4,15.2v-1.7H3.2
	l-1.7,2.2c-0.3,0.3-0.7,0.4-1,0.1S0,15.1,0.3,14.8l1.1-1.5c-0.2-0.1-0.3-0.1-0.5-0.2c-0.5-0.3-0.8-0.9-0.8-1.7
	C0.1,10.6,0.5,10,0.9,9.6z M4,12v-1.3H2.3c-0.1,0-0.3,0-0.4,0.1c-0.1,0-0.1,0.1-0.1,0.2c0,0.1-0.1,0.2-0.1,0.3c0,0.2,0,0.3,0.1,0.3
	c0,0.1,0.1,0.1,0.1,0.2C2,12,2.1,12,2.3,12L4,12L4,12z"/>
<path class="st0" d="M11.9,0c0.4,0,0.7,0.3,0.7,0.7v12.7l2.2-2.2c0.3-0.3,0.8-0.3,1.1,0c0.3,0.3,0.3,0.8,0,1.1l-3.5,3.5
	c-0.3,0.3-0.8,0.3-1.1,0l-3.5-3.5c-0.3-0.3-0.3-0.8,0-1.1c0.3-0.3,0.8-0.3,1.1,0l2.2,2.2V0.7C11.1,0.3,11.4,0,11.9,0z"/>
</svg>
