<?xml version="1.0" encoding="utf-8"?>
<!-- Generator: Adobe Illustrator 24.1.2, SVG Export Plug-In . SVG Version: 6.00 Build 0)  -->
<svg version="1.1" id="Слой_1" xmlns="http://www.w3.org/2000/svg" xmlns:xlink="http://www.w3.org/1999/xlink" x="0px" y="0px"
	 width="417px" height="500px" viewBox="0 0 417 500" enable-background="new 0 0 417 500" xml:space="preserve">
<path fill-rule="evenodd" clip-rule="evenodd" fill="#1D1D1B" d="M32.7,0c8.6,0,15.6,7,15.6,15.6V263c0,48.9,39.6,88.5,88.5,88.5
	h209.7L256,261c-6.1-6.1-6.1-16,0-22.1c6.1-6.1,16-6.1,22.1,0l117.2,117.2c6.1,6.1,6.1,16,0,22.1L278.1,495.4
	c-6.1,6.1-16,6.1-22.1,0c-6.1-6.1-6.1-16,0-22.1l90.5-90.5H136.8C70.7,382.8,17,329.2,17,263V15.6C17,7,24,0,32.7,0z"/>
</svg>
