<?xml version="1.0" encoding="utf-8"?>
<!-- Generator: Adobe Illustrator 24.1.2, SVG Export Plug-In . SVG Version: 6.00 Build 0)  -->
<svg version="1.1" id="Слой_1" xmlns="http://www.w3.org/2000/svg" xmlns:xlink="http://www.w3.org/1999/xlink" x="0px" y="0px"
	  viewBox="0 0 500 500" enable-background="new 0 0 500 500" xml:space="preserve">
<path fill-rule="evenodd" clip-rule="evenodd" d="M144.3-0.1c12.9,0,23.4,10.5,23.4,23.4v37h58.9v-37
	c0-12.9,10.5-23.4,23.4-23.4s23.4,10.5,23.4,23.4v37h58.9v-37c0-12.9,10.5-23.4,23.4-23.4s23.4,10.5,23.4,23.4v37h82.3
	c12.9,0,23.4,10.5,23.4,23.4v392.8c0,12.9-10.5,23.4-23.4,23.4H38.6c-12.9,0-23.4-10.5-23.4-23.4V83.9c0-12.9,10.5-23.4,23.4-23.4
	h82.3v-37C120.9,10.5,131.4-0.1,144.3-0.1z M62,107.3v345.9h376V107.3H62z M120.9,189.6c0-12.9,10.5-23.4,23.4-23.4h211.5
	c12.9,0,23.4,10.5,23.4,23.4S368.7,213,355.8,213H144.3C131.4,213,120.9,202.5,120.9,189.6z M259,258.6c8.8,3.6,14.5,12.2,14.5,21.7
	v82.3h6.8c12.9,0,23.4,10.5,23.4,23.4c0,12.9-10.5,23.4-23.4,23.4h-60.4c-12.9,0-23.4-10.5-23.4-23.4c0-12.9,10.5-23.4,23.4-23.4
	h6.8V333c-8,2.4-17,0.5-23.3-5.9c-9.2-9.2-9.2-24,0-33.1l30.2-30.2C240.2,256.9,250.3,254.9,259,258.6z"/>
</svg>
