<svg viewBox="0 0 16 16" fill="none" xmlns="http://www.w3.org/2000/svg">
<path d="M0 2C0 0.895431 0.895431 0 2 0H14C15.1046 0 16 0.895431 16 2V14C16 15.1046 15.1046 16 14 16H2C0.895431 16 0 15.1046 0 14V2Z" fill="white"/>
<path fill-rule="evenodd" clip-rule="evenodd" d="M11.7071 5.29289C12.0976 5.68342 12.0976 6.31658 11.7071 6.70711L7.70711 10.7071C7.31658 11.0976 6.68342 11.0976 6.29289 10.7071L4.29289 8.70711C3.90237 8.31658 3.90237 7.68342 4.29289 7.29289C4.68342 6.90237 5.31658 6.90237 5.70711 7.29289L7 8.58579L10.2929 5.29289C10.6834 4.90237 11.3166 4.90237 11.7071 5.29289Z" />
<path d="M2 2H14V-2H2V2ZM14 2V14H18V2H14ZM14 14H2V18H14V14ZM2 14V2H-2V14H2ZM2 14H2H-2C-2 16.2091 -0.209139 18 2 18V14ZM14 14V18C16.2091 18 18 16.2091 18 14H14ZM14 2V2H18C18 -0.209139 16.2091 -2 14 -2V2ZM2 -2C-0.209139 -2 -2 -0.209139 -2 2H2L2 2V-2Z" />
</svg>
