<?xml version="1.0" encoding="utf-8"?>
<!-- Generator: Adobe Illustrator 24.1.2, SVG Export Plug-In . SVG Version: 6.00 Build 0)  -->
<svg version="1.1" id="Слой_1" xmlns="http://www.w3.org/2000/svg" xmlns:xlink="http://www.w3.org/1999/xlink" x="0px" y="0px"
	 viewBox="0 0 500 500" enable-background="new 0 0 500 500" xml:space="preserve">
<path fill-rule="evenodd" clip-rule="evenodd" d="M137.7,23.8C141.1,9.9,153.6,0.1,168,0.1h164
	c14.3,0,26.8,9.8,30.3,23.7l21.4,85.7h85c17.3,0,31.3,14,31.3,31.3S486,172,468.7,172h-25.9l-25,299.4
	c-1.4,16.2-14.9,28.7-31.1,28.7H113.3c-16.3,0-29.8-12.5-31.1-28.7L57.2,172H31.3C14,171.9,0,157.9,0,140.6s14-31.3,31.3-31.3h85
	L137.7,23.8z M119.9,171.9L142,437.4h216l22.1-265.5H119.9z M180.6,109.5h138.7l-11.7-46.9H192.4L180.6,109.5z"/>
</svg>
