<?xml version="1.0" encoding="utf-8"?>
<!-- Generator: Adobe Illustrator 20.1.0, SVG Export Plug-In . SVG Version: 6.00 Build 0)  -->
<svg version="1.1" id="Слой_1" xmlns="http://www.w3.org/2000/svg" xmlns:xlink="http://www.w3.org/1999/xlink" x="0px" y="0px"
	 viewBox="0 0 500 500" enable-background="new 0 0 500 500" xml:space="preserve">
<path d="M0,476.6c0-12.9,10.5-23.4,23.4-23.4h453.1c12.9,0,23.4,10.5,23.4,23.4S489.5,500,476.6,500H23.4
	C10.5,500,0,489.5,0,476.6z"/>
<path d="M233.4,379.9c9.2,9.2,24,9.2,33.1,0l151-151c9.2-9.2,9.2-24,0-33.1c-9.2-9.2-24-9.2-33.1,0l-111,111V23.4
	C273.4,10.5,262.9,0,250,0c-12.9,0-23.4,10.5-23.4,23.4v283.3l-111-111c-9.2-9.2-24-9.2-33.1,0c-9.2,9.2-9.2,24,0,33.1L233.4,379.9z
	"/>
</svg>
