<?xml version="1.0" encoding="utf-8"?>
<!-- Generator: Adobe Illustrator 24.1.2, SVG Export Plug-In . SVG Version: 6.00 Build 0)  -->
<svg version="1.1" id="Слой_1" xmlns="http://www.w3.org/2000/svg" xmlns:xlink="http://www.w3.org/1999/xlink" x="0px" y="0px"
	 viewBox="0 0 500 500" enable-background="new 0 0 500 500" xml:space="preserve">
<path fill-rule="evenodd" clip-rule="evenodd" d="M-22.1,119.3c0-14.1,11.4-25.5,25.5-25.5H181
	c14.1,0,25.5,11.4,25.5,25.5c0,14.1-11.4,25.5-25.5,25.5H29v304.1h304v-63.3c0-14.1,11.4-25.5,25.5-25.5s25.5,11.4,25.5,25.5v88.8
	c0,14.1-11.4,25.5-25.5,25.5H3.4c-14.1,0-25.5-11.4-25.5-25.5V119.3z"/>
<path fill-rule="evenodd" clip-rule="evenodd" d="M476.4,24.8c-33.1-33.1-86.7-33.1-119.8,0l-41.8,41.9L126.4,255
	c-4.8,4.8-7.5,11.3-7.5,18v104.6c0,14.1,11.4,25.5,25.5,25.5H249c6.8,0,13.3-2.7,18-7.5l230.2-230.2c33.1-33.1,33.1-86.7,0-119.8
	L476.4,24.8z M401.3,189.3l-68.5-68.5L180.6,273l68.5,68.5L401.3,189.3z M392.7,60.9c13.1-13.2,34.5-13.2,47.6,0l20.9,20.9
	c13.2,13.2,13.2,34.5,0,47.6l-23.8,23.8l-68.5-68.5L392.7,60.9z M187.5,352.1L170,334.6v17.5H187.5z"/>
</svg>
