<svg viewBox="0 0 16 16" fill="none" xmlns="http://www.w3.org/2000/svg">
<path d="M1.7074 8.00254C1.74987 8.05266 1.79605 8.10623 1.84586 8.16281C2.17222 8.53354 2.64961 9.02811 3.25093 9.52136C4.46619 10.5182 6.11351 11.4499 8 11.4499C8.08785 11.4499 8.17517 11.4479 8.26196 11.4439L9.59371 12.7757C9.08621 12.8867 8.55399 12.9499 8 12.9499C5.62056 12.9499 3.64287 11.7829 2.29962 10.6811C1.62168 10.125 1.08643 9.57024 0.719971 9.15396C0.536332 8.94535 0.393975 8.77027 0.296189 8.64547C0.247269 8.58303 0.209422 8.53308 0.18306 8.49768L0.138733 8.43712C-0.0462443 8.17693 -0.0462443 7.82816 0.138733 7.56797L0.18306 7.5074C0.209422 7.47201 0.247269 7.42205 0.296189 7.35962C0.393975 7.23482 0.536332 7.05973 0.719971 6.85113C1.07075 6.45266 1.57618 5.92731 2.21338 5.39536L3.27889 6.46087L3.25093 6.48373C2.64961 6.97698 2.17222 7.47155 1.84586 7.84228C1.79605 7.89886 1.74987 7.95243 1.7074 8.00254Z" />
<path d="M12.7491 9.52136C13.3504 9.02811 13.8278 8.53354 14.1541 8.16281C14.2039 8.10623 14.2501 8.05266 14.2926 8.00254C14.2501 7.95243 14.2039 7.89886 14.1541 7.84228C13.8278 7.47155 13.3504 6.97698 12.7491 6.48373C11.5338 5.48688 9.8865 4.55518 8 4.55518C7.9138 4.55518 7.8281 4.55712 7.74291 4.56093L6.41047 3.22849C6.91671 3.11809 7.44753 3.05518 8 3.05518C10.3794 3.05518 12.3571 4.22215 13.7004 5.32399C14.3783 5.88008 14.9136 6.43485 15.28 6.85113C15.4637 7.05973 15.606 7.23482 15.7038 7.35962C15.7527 7.42205 15.7906 7.47201 15.8169 7.5074L15.8609 7.56752C16.0459 7.82771 16.0462 8.17693 15.8613 8.43712L15.8169 8.49768C15.7906 8.53308 15.7527 8.58303 15.7038 8.64547C15.606 8.77027 15.4637 8.94535 15.28 9.15396C14.9298 9.55185 14.4253 10.0763 13.7894 10.6074L12.7239 9.54193L12.7491 9.52136Z" />
<path d="M7.43084 10.6128C6.41088 10.3914 5.60818 9.58747 5.38867 8.56682L7.43084 10.6128Z" />
<path d="M8.57568 5.39368C9.58864 5.6162 10.3861 6.4137 10.6087 7.42667L8.57568 5.39368Z" />
<path fill-rule="evenodd" clip-rule="evenodd" d="M0.21967 0.21967C0.512563 -0.0732233 0.987437 -0.0732233 1.28033 0.21967L15.7803 14.7197C16.0732 15.0126 16.0732 15.4874 15.7803 15.7803C15.4874 16.0732 15.0126 16.0732 14.7197 15.7803L0.21967 1.28033C-0.0732233 0.987437 -0.0732233 0.512563 0.21967 0.21967Z" />
</svg>
