<?xml version="1.0" encoding="utf-8"?>
<!-- Generator: Adobe Illustrator 20.1.0, SVG Export Plug-In . SVG Version: 6.00 Build 0)  -->
<svg version="1.1" id="Слой_1" xmlns="http://www.w3.org/2000/svg" xmlns:xlink="http://www.w3.org/1999/xlink" x="0px" y="0px"
	 viewBox="0 0 16 10" style="enable-background:new 0 0 16 10;" xml:space="preserve">

<path class="st0" d="M8,2c-0.3,0-0.6,0-0.9,0.1c0.1,0.2,0.2,0.4,0.2,0.7c0,0.8-0.7,1.4-1.6,1.4C5.5,4.3,5.3,4.2,5,4.1
	C4.6,5.6,5.5,7.2,7.1,7.6C8.8,8,10.5,7.2,11,5.7c0.5-1.5-0.5-3.1-2.1-3.5C8.6,2.1,8.3,2,8,2z M15.9,4.5C14.4,1.8,11.4,0,8,0
	S1.6,1.8,0.1,4.5C0,4.7,0,5,0.1,5.3C1.6,7.9,4.6,9.8,8,9.8s6.4-1.8,7.9-4.5C16,5,16,4.7,15.9,4.5z M8,8.5c-2.7,0-5.3-1.4-6.6-3.7
	C2.7,2.6,5.3,1.2,8,1.2s5.3,1.4,6.6,3.7C13.3,7.1,10.7,8.5,8,8.5z"/>
</svg>
