<?xml version="1.0" encoding="utf-8"?>
<!-- Generator: Adobe Illustrator 24.1.2, SVG Export Plug-In . SVG Version: 6.00 Build 0)  -->
<svg version="1.1" id="Слой_1" xmlns="http://www.w3.org/2000/svg" xmlns:xlink="http://www.w3.org/1999/xlink" x="0px" y="0px"
	  viewBox="0 0 500 500" enable-background="new 0 0 500 500" xml:space="preserve">
<path fill-rule="evenodd" clip-rule="evenodd"  d="M293.6,30.5c40.7-40.7,106.7-40.7,147.3,0
	c40.7,40.7,40.7,106.7,0,147.3L252.5,366.3c-24.9,24.9-65.3,24.9-90.2,0s-24.9-65.3,0-90.2l154.2-154.2c9.2-9.2,24-9.2,33.1,0
	c9.1,9.2,9.2,24,0,33.1L195.4,309.2c-6.6,6.6-6.6,17.3,0,24c6.6,6.6,17.3,6.6,24,0l188.4-188.4c22.4-22.4,22.4-58.7,0-81.1
	s-58.7-22.4-81.1,0L104.1,286.4c-38.2,38.2-38.2,100,0,138.2c38.2,38.1,100,38.1,138.2,0l188.4-188.4c9.2-9.2,24-9.2,33.1,0
	c9.1,9.2,9.2,24,0,33.1L275.4,457.7c-56.5,56.5-148,56.5-204.4,0c-56.5-56.5-56.5-148,0-204.4L293.6,30.5z"/>
</svg>
