<?xml version="1.0" encoding="utf-8"?>
<!-- Generator: Adobe Illustrator 24.1.2, SVG Export Plug-In . SVG Version: 6.00 Build 0)  -->
<svg version="1.1" id="Слой_1" xmlns="http://www.w3.org/2000/svg" xmlns:xlink="http://www.w3.org/1999/xlink" x="0px" y="0px"
	  viewBox="0 0 545 500" enable-background="new 0 0 545 500" xml:space="preserve">
<path fill-rule="evenodd" clip-rule="evenodd"  d="M-6.7,87.2c0-9.6,7.8-17.4,17.5-17.4h69.8
	c9.6,0,17.5,7.8,17.5,17.4s-7.8,17.4-17.5,17.4H10.7C1.1,104.7-6.7,96.8-6.7,87.2z M202.7,87.2c0-9.6,7.8-17.4,17.5-17.4h314.1
	c9.6,0,17.5,7.8,17.5,17.4s-7.8,17.4-17.5,17.4H220.1C210.5,104.7,202.7,96.8,202.7,87.2z"/>
<path fill-rule="evenodd" clip-rule="evenodd"  d="M-6.7,412.8c0-9.6,7.8-17.4,17.5-17.4h69.8
	c9.6,0,17.5,7.8,17.5,17.4c0,9.6-7.8,17.4-17.5,17.4H10.7C1.1,430.2-6.7,422.4-6.7,412.8z M202.7,412.8c0-9.6,7.8-17.4,17.5-17.4
	h314.1c9.6,0,17.5,7.8,17.5,17.4c0,9.6-7.8,17.4-17.5,17.4H220.1C210.5,430.2,202.7,422.4,202.7,412.8z"/>
<path fill-rule="evenodd" clip-rule="evenodd"  d="M-6.7,250c0-9.6,7.8-17.4,17.5-17.4h314.1
	c9.6,0,17.5,7.8,17.5,17.4c0,9.6-7.8,17.4-17.5,17.4H10.7C1.1,267.4-6.7,259.6-6.7,250z M447,250c0-9.6,7.8-17.4,17.5-17.4h69.8
	c9.6,0,17.5,7.8,17.5,17.4c0,9.6-7.8,17.4-17.5,17.4h-69.8C454.8,267.4,447,259.6,447,250z"/>
<path fill-rule="evenodd" clip-rule="evenodd"  d="M150.3,34.9C121.4,34.9,98,58.3,98,87.2s23.4,52.3,52.4,52.3
	s52.4-23.4,52.4-52.3S179.3,34.9,150.3,34.9z M63.1,87.2C63.1,39,102.2,0,150.3,0s87.3,39,87.3,87.2s-39.1,87.2-87.3,87.2
	S63.1,135.4,63.1,87.2z"/>
<path fill-rule="evenodd" clip-rule="evenodd"  d="M150.3,360.5c-28.9,0-52.4,23.4-52.4,52.3
	c0,28.9,23.4,52.3,52.4,52.3s52.4-23.4,52.4-52.3C202.7,383.9,179.3,360.5,150.3,360.5z M63.1,412.8c0-48.2,39.1-87.2,87.3-87.2
	s87.3,39,87.3,87.2S198.5,500,150.3,500S63.1,461,63.1,412.8z"/>
<path fill-rule="evenodd" clip-rule="evenodd"  d="M394.7,197.7c-28.9,0-52.4,23.4-52.4,52.3
	c0,28.9,23.4,52.3,52.4,52.3S447,278.9,447,250C447,221.1,423.6,197.7,394.7,197.7z M307.4,250c0-48.2,39.1-87.2,87.3-87.2
	s87.3,39,87.3,87.2c0,48.2-39.1,87.2-87.3,87.2S307.4,298.2,307.4,250z"/>
</svg>
