<?xml version="1.0" encoding="utf-8"?>
<!-- Generator: Adobe Illustrator 24.1.2, SVG Export Plug-In . SVG Version: 6.00 Build 0)  -->
<svg version="1.1" id="Слой_1" xmlns="http://www.w3.org/2000/svg" xmlns:xlink="http://www.w3.org/1999/xlink" x="0px" y="0px"
	  viewBox="0 0 500 500" enable-background="new 0 0 500 500" xml:space="preserve">
<path fill-rule="evenodd" clip-rule="evenodd" d="M319.3,46.9c-24.2,0-46.4,6-66.9,18l-0.2,0.1
	c-19.9,11.5-35.9,27.3-48.1,48.1C192.8,133,187,154.8,187,179.2c0,14,2.2,27.7,6.8,41.3l4.6,13.7L45.5,387v66h94.7v-56.6h56.6v-56.7
	h55.3l29.3-33l13,2.4c8,1.5,16.2,2.3,24.9,2.3c36.9,0,67.5-12.6,93.2-38.3c26.3-26.3,39.2-57.3,39.2-94.1s-12.8-67.3-39-93l-0.2-0.1
	l-0.2-0.2C386.6,59.7,356.1,46.9,319.3,46.9z M228.8,24.4c27.8-16.2,58.1-24.4,90.5-24.4c49.3,0,91.8,17.8,126.3,52.9
	c35.1,34.5,52.9,77,52.9,126.3s-17.8,92.2-52.9,127.2c-34.5,34.5-77.1,52-126.3,52c-6.8,0-13.5-0.4-20.1-1.1l-12.8,14.4
	c-8.7,9.9-20.6,15-33.5,15h-9.3v12c0,12-4.5,23-13.1,31.6c-8.6,8.6-19.6,13.1-31.6,13.1h-12v12c0,12-4.5,23-13.1,31.6
	c-8.6,8.6-19.6,13.1-31.6,13.1H43.1c-12,0-23-4.5-31.6-13.1c-8.6-8.6-13.1-19.6-13.1-31.6v-69c0-12,4.5-23,13.1-31.6l133.7-133.7
	c-3.4-13.7-5.1-27.7-5.1-41.9c0-32.2,7.8-62.3,23.5-89.6l0.1-0.2C179.8,61.9,201.6,40.1,228.8,24.4z M315.1,90.1
	c12.7-12.7,28.7-19.3,46.7-19.3s34,6.5,46.7,19.3c12.7,12.7,19.3,28.7,19.3,46.7s-6.5,34-19.3,46.7c-12.8,12.7-28.7,19.3-46.7,19.3
	s-34-6.5-46.7-19.3c-12.7-12.7-19.3-28.7-19.3-46.7S302.4,102.8,315.1,90.1z M361.8,117.7c-5.7,0-9.7,1.7-13.5,5.5
	c-3.8,3.8-5.5,7.9-5.5,13.5s1.7,9.7,5.5,13.5s7.9,5.5,13.5,5.5s9.7-1.7,13.5-5.5s5.5-7.9,5.5-13.5s-1.7-9.7-5.5-13.5
	S367.4,117.7,361.8,117.7z"/>
</svg>
