<?xml version="1.0" encoding="utf-8"?>
<!-- Generator: Adobe Illustrator 24.1.2, SVG Export Plug-In . SVG Version: 6.00 Build 0)  -->
<svg version="1.1" id="Слой_1" xmlns="http://www.w3.org/2000/svg" xmlns:xlink="http://www.w3.org/1999/xlink" x="0px" y="0px"
	 viewBox="0 0 500 500" enable-background="new 0 0 500 500" xml:space="preserve">
<path fill-rule="evenodd" clip-rule="evenodd" d="M105.8,144.3c0-79.7,64.6-144.2,144.3-144.2
	s144.3,64.6,144.3,144.2v37h21.9c18.7,0,35.4,6.8,48.7,20.1c13.3,13.3,20.1,29.9,20.1,48.7v181.2c0,18.7-6.8,35.4-20.1,48.7
	c-13.3,13.3-29.9,20.1-48.7,20.1H83.9c-18.7,0-35.4-6.8-48.7-20.1c-13.2-13.4-20-30.1-20-48.8V250c0-18.7,6.8-35.4,20.1-48.7
	s29.9-20.1,48.7-20.1h21.9L105.8,144.3L105.8,144.3z M152.7,181.3h194.8v-37c0-53.8-43.6-97.4-97.4-97.4s-97.4,43.6-97.4,97.4
	L152.7,181.3L152.7,181.3z M83.9,228.1c-6.4,0-11.2,2-15.5,6.4C64,238.8,62,243.6,62,250v181.2c0,6.4,2,11.2,6.4,15.5
	c4.4,4.4,9.1,6.4,15.5,6.4h332.3c6.4,0,11.2-2,15.5-6.4c4.4-4.4,6.4-9.1,6.4-15.5V250c0-6.4-2-11.2-6.4-15.5
	c-4.4-4.4-9.1-6.4-15.5-6.4H83.9z"/>
</svg>