<?xml version="1.0" encoding="utf-8"?>
<!-- Generator: Adobe Illustrator 24.1.2, SVG Export Plug-In . SVG Version: 6.00 Build 0)  -->
<svg version="1.1" id="Слой_1" xmlns="http://www.w3.org/2000/svg" xmlns:xlink="http://www.w3.org/1999/xlink" x="0px" y="0px"
	 width="666px" height="500px" viewBox="0 0 666 500" enable-background="new 0 0 666 500" xml:space="preserve">
<path fill-rule="evenodd" clip-rule="evenodd" fill="#04092A" d="M0,32.6C0,14.6,14,0,31.2,0h603.6C652,0,666,14.6,666,32.6
	c0,18-14,32.6-31.2,32.6H31.2C14,65.2,0,50.6,0,32.6z"/>
<path fill-rule="evenodd" clip-rule="evenodd" fill="#04092A" d="M0,250c0-18,14-32.6,31.2-32.6h603.6C652,217.4,666,232,666,250
	s-14,32.6-31.2,32.6H31.2C14,282.6,0,268,0,250z"/>
<path fill-rule="evenodd" clip-rule="evenodd" fill="#04092A" d="M0,467.4c0-18,14-32.6,31.2-32.6h603.6c17.2,0,31.2,14.6,31.2,32.6
	c0,18-14,32.6-31.2,32.6H31.2C14,500,0,485.4,0,467.4z"/>
</svg>
