<svg width="22" height="24" viewBox="0 0 22 24" fill="none" xmlns="http://www.w3.org/2000/svg">
<path d="M11.25 2.14185C11.25 2.39909 11.4452 2.61435 11.7012 2.63946C15.2887 2.99131 18.0921 6.01793 18.0921 9.69805V12.3289C18.0921 15.8233 19.5103 17.3808 20.3808 18.0135C20.8455 18.3512 21.25 18.8924 21.25 19.5266C21.25 20.3403 20.5903 21 19.7766 21H14.19C13.9506 21 13.7448 21.1697 13.6992 21.4047C13.6316 21.7527 13.4953 22.1233 13.2602 22.4566C12.8436 23.0474 12.1295 23.5 11 23.5C9.87052 23.5 9.15643 23.0474 8.73978 22.4566C8.50471 22.1233 8.36842 21.7527 8.30081 21.4047C8.25516 21.1697 8.04936 21 7.80998 21H2.22345C1.40969 21 0.75 20.3403 0.75 19.5266C0.75 18.8924 1.15447 18.3512 1.61915 18.0135L1.3356 17.6233L1.61915 18.0135C2.48969 17.3808 3.90789 15.8233 3.90789 12.3289V9.69805C3.90789 6.01793 6.71132 2.99131 10.2988 2.63946C10.5548 2.61435 10.75 2.39909 10.75 2.14185V0.75C10.75 0.611929 10.8619 0.5 11 0.5C11.1381 0.5 11.25 0.611929 11.25 0.75V2.14185ZM9.36129 21C9.19827 21 9.04549 21.0795 8.9519 21.2129C8.85831 21.3464 8.83566 21.5171 8.89122 21.6704C8.95154 21.8368 9.03501 22.0077 9.14838 22.1684C9.46604 22.6188 10.0236 23 11 23C11.9764 23 12.534 22.6188 12.8516 22.1684C12.965 22.0077 13.0485 21.8368 13.1088 21.6704C13.1643 21.5171 13.1417 21.3464 13.0481 21.2129C12.9545 21.0795 12.8017 21 12.6387 21H9.36129Z" stroke-linecap="round" stroke-linejoin="round"/>
</svg>
