<svg viewBox="0 0 16 16" fill="none" xmlns="http://www.w3.org/2000/svg">
<path fill-rule="evenodd" clip-rule="evenodd" d="M3.38499 4.61667C3.38499 2.06695 5.45194 0 8.00165 0C9.74412 0 11.26 0.96564 12.0452 2.38741C12.2455 2.74999 12.1139 3.20627 11.7513 3.40653C11.3887 3.60678 10.9324 3.47518 10.7322 3.11259C10.2003 2.14953 9.1763 1.5 8.00165 1.5C6.28036 1.5 4.88499 2.89538 4.88499 4.61667V5.8H13.3183C13.9177 5.8 14.4515 6.01839 14.8757 6.44259C15.2999 6.86678 15.5183 7.40058 15.5183 8V13.8C15.5183 14.3994 15.2999 14.9332 14.8757 15.3574C14.4515 15.7816 13.9177 16 13.3183 16H2.68499C2.08556 16 1.55177 15.7816 1.12757 15.3574C0.703378 14.9332 0.484985 14.3994 0.484985 13.8V8C0.484985 7.40058 0.703378 6.86678 1.12757 6.44259C1.55177 6.01839 2.08557 5.8 2.68499 5.8H3.38499V4.61667ZM2.68499 7.3C2.47885 7.3 2.32793 7.36355 2.18823 7.50325C2.04854 7.64294 1.98499 7.79386 1.98499 8V13.8C1.98499 14.0061 2.04854 14.1571 2.18823 14.2968C2.32793 14.4364 2.47885 14.5 2.68499 14.5H13.3183C13.5245 14.5 13.6754 14.4364 13.8151 14.2968C13.9548 14.1571 14.0183 14.0061 14.0183 13.8V8C14.0183 7.79386 13.9548 7.64294 13.8151 7.50325C13.6754 7.36355 13.5245 7.3 13.3183 7.3H2.68499Z" />
</svg>
