<?xml version="1.0" encoding="utf-8"?>
<!-- Generator: Adobe Illustrator 24.1.2, SVG Export Plug-In . SVG Version: 6.00 Build 0)  -->
<svg version="1.1" id="Слой_1" xmlns="http://www.w3.org/2000/svg" xmlns:xlink="http://www.w3.org/1999/xlink" x="0px" y="0px"
	 viewBox="0 0 437 500" enable-background="new 0 0 437 500" xml:space="preserve">
<path fill-rule="evenodd" clip-rule="evenodd"  d="M124.1,122.6c7.8,10.3,5.7,25-4.7,32.8
	c-40.2,30.2-66.1,78.2-66.1,132.4c0,91.3,74,165.4,165.2,165.4s165.2-74,165.2-165.4c0-54.1-25.9-102.1-66.1-132.4
	c-10.3-7.8-12.4-22.4-4.7-32.8c7.8-10.3,22.4-12.4,32.8-4.7c51.4,38.6,84.8,100.3,84.8,169.8c0,117.2-94.9,212.3-212,212.3
	s-212-95-212-212.3c0-69.5,33.3-131.1,84.8-169.8C101.7,110.2,116.3,112.3,124.1,122.6z"/>
<path fill-rule="evenodd" clip-rule="evenodd"  d="M218.6,0C231.5,0,242,10.5,242,23.4v151.1
	c0,12.9-10.5,23.4-23.4,23.4s-23.4-10.5-23.4-23.4V23.4C195.1,10.5,205.6,0,218.6,0z"/>
</svg>
