<?xml version="1.0" encoding="utf-8"?>
<!-- Generator: Adobe Illustrator 24.1.2, SVG Export Plug-In . SVG Version: 6.00 Build 0)  -->
<svg version="1.1" id="Слой_1" xmlns="http://www.w3.org/2000/svg" xmlns:xlink="http://www.w3.org/1999/xlink" x="0px" y="0px"
	 width="500px" height="500px" viewBox="0 0 500 500" enable-background="new 0 0 500 500" xml:space="preserve">
<path fill-rule="evenodd" clip-rule="evenodd" fill="#04092A" d="M0.1,23.4c0-12.9,10.5-23.4,23.4-23.4H372c6.2,0,12.2,2.5,16.6,6.9
	l104.6,104.6c4.4,4.4,6.9,10.4,6.9,16.6v348.5c0,12.9-10.5,23.4-23.4,23.4H23.4C10.5,500,0.1,489.5,0.1,476.6V23.4z M46.9,46.9
	v406.2h406.2V137.7l-90.8-90.8h-1.7v116c0,12.9-10.5,23.4-23.4,23.4H162.9c-12.9,0-23.4-10.5-23.4-23.4v-116
	C139.5,46.9,46.9,46.9,46.9,46.9z M186.3,46.9v92.5h127.4V46.9H186.3z"/>
<path fill-rule="evenodd" clip-rule="evenodd" fill="#04092A" d="M250,360c22.2,0,40.3-18,40.3-40.3c0-22.2-18-40.3-40.3-40.3
	c-22.2,0-40.3,18-40.3,40.3C209.7,342,227.8,360,250,360z M250,406.9c48.1,0,87.1-39,87.1-87.1s-39-87.1-87.1-87.1
	s-87.1,39-87.1,87.1C162.9,367.8,201.9,406.9,250,406.9z"/>
</svg>
