<?xml version="1.0" encoding="utf-8"?>
<!-- Generator: Adobe Illustrator 24.1.2, SVG Export Plug-In . SVG Version: 6.00 Build 0)  -->
<svg version="1.1" id="Слой_1" xmlns="http://www.w3.org/2000/svg" xmlns:xlink="http://www.w3.org/1999/xlink" x="0px" y="0px"
	 viewBox="0 0 500 500" enable-background="new 0 0 500 500" xml:space="preserve">
<path fill-rule="evenodd" clip-rule="evenodd" d="M233.8,46.9c-103.2,0-186.9,83.7-186.9,186.9
	s83.7,186.9,186.9,186.9c51.6,0,98.3-20.9,132.2-54.8s54.8-80.6,54.8-132.2C420.8,130.6,337.1,46.9,233.8,46.9z M0,233.8
	C0,104.7,104.7,0,233.8,0C363,0,467.6,104.7,467.6,233.8c0,56.1-19.8,107.6-52.7,147.9l78.2,78.2c9.2,9.2,9.2,24,0,33.1
	c-9.2,9.2-24,9.2-33.1,0l-78.2-78.2c-40.3,32.9-91.8,52.7-147.9,52.7C104.7,467.6,0,363,0,233.8z"/>
</svg>
