<?xml version="1.0" encoding="utf-8"?>
<!-- Generator: Adobe Illustrator 24.1.2, SVG Export Plug-In . SVG Version: 6.00 Build 0)  -->
<svg version="1.1" id="Слой_1" xmlns="http://www.w3.org/2000/svg" xmlns:xlink="http://www.w3.org/1999/xlink" x="0px" y="0px"
	 width="16px" height="13.1px" viewBox="0 0 16 13.1" style="enable-background:new 0 0 16 13.1;" xml:space="preserve">
<style type="text/css">
	.st0{fill-rule:evenodd;clip-rule:evenodd;fill:#04092A;}
</style>
<path class="st0" d="M3.5,0.2c0.3-0.3,0.8-0.3,1.1,0l3.3,3.3c0.3,0.3,0.3,0.8,0,1.1s-0.8,0.3-1.1,0l-2-2v9.8c0,0.4-0.3,0.7-0.8,0.7
	c-0.4,0-0.8-0.3-0.8-0.7V2.6l-2,2C1,4.9,0.5,4.9,0.2,4.6s-0.3-0.8,0-1.1L3.5,0.2z"/>
<path class="st0" d="M8.5,5.2c0.3-0.3,0.8-0.3,1.1,0l1.7,1.7c0.3,0.3,0.3,0.8,0,1.1s-0.8,0.3-1.1,0L9.8,7.5v4.8
	c0,0.4-0.3,0.7-0.8,0.7c-0.4,0-0.8-0.3-0.8-0.7V7.5L7.9,7.9c-0.3,0.3-0.8,0.3-1.1,0c-0.3-0.3-0.3-0.8,0-1.1L8.5,5.2z"/>
<path class="st0" d="M14,8.3c0.2,0,0.4,0.1,0.5,0.2l1.2,1.2c0.3,0.3,0.3,0.8,0,1.1c-0.3,0.3-0.7,0.3-1,0v1.5c0,0.4-0.3,0.7-0.8,0.7
	c-0.4,0-0.8-0.3-0.8-0.7v-1.5c-0.3,0.3-0.7,0.2-1,0c-0.3-0.3-0.3-0.8,0-1.1l1.2-1.2C13.6,8.4,13.8,8.3,14,8.3z"/>
</svg>
