<?xml version="1.0" encoding="utf-8"?>
<!-- Generator: Adobe Illustrator 24.1.2, SVG Export Plug-In . SVG Version: 6.00 Build 0)  -->
<svg version="1.1" id="Слой_1" xmlns="http://www.w3.org/2000/svg" xmlns:xlink="http://www.w3.org/1999/xlink" x="0px" y="0px"
	 width="16px" height="13.1px" viewBox="0 0 16 13.1" style="enable-background:new 0 0 16 13.1;" xml:space="preserve">
<style type="text/css">
	.st0{fill-rule:evenodd;clip-rule:evenodd;fill:#04092A;}
</style>
<path class="st0" d="M12.5,0.2c-0.3-0.3-0.8-0.3-1.1,0L8.1,3.5c-0.3,0.3-0.3,0.8,0,1.1c0.3,0.3,0.8,0.3,1.1,0l2-2v9.8
	c0,0.4,0.3,0.7,0.8,0.7c0.4,0,0.8-0.3,0.8-0.7V2.6l2,2c0.3,0.3,0.8,0.3,1.1,0s0.3-0.8,0-1.1L12.5,0.2z"/>
<path class="st0" d="M7.5,5.2c-0.3-0.3-0.8-0.3-1.1,0L4.8,6.8c-0.3,0.3-0.3,0.8,0,1.1s0.8,0.3,1.1,0l0.4-0.4v4.8
	c0,0.4,0.3,0.7,0.8,0.7c0.4,0,0.8-0.3,0.8-0.7V7.5l0.4,0.4c0.3,0.3,0.8,0.3,1.1,0c0.3-0.3,0.3-0.8,0-1.1L7.5,5.2z"/>
<path class="st0" d="M2,8.3c-0.2,0-0.4,0.1-0.5,0.2L0.2,9.7c-0.3,0.3-0.3,0.8,0,1.1c0.3,0.3,0.7,0.3,1,0v1.5c0,0.4,0.3,0.7,0.8,0.7
	c0.4,0,0.8-0.3,0.8-0.7v-1.5c0.3,0.3,0.7,0.2,1,0C4,10.5,4,10,3.8,9.7L2.5,8.5C2.4,8.4,2.2,8.3,2,8.3z"/>
</svg>
