<svg width="75" height="47" viewBox="0 0 75 47" fill="none" xmlns="http://www.w3.org/2000/svg">
<path d="M56.9377 -5C46.7236 -5 38.6586 3.28142 38.6586 13.4955C38.6586 23.7096 47.0474 31.991 57.2615 31.991C57.3637 31.991 57.5178 31.9772 57.62 31.9754C53.5815 35.1914 48.5091 37.1292 42.9569 37.1292C40.4026 37.1292 38.3469 39.2005 38.3469 41.7531C38.3469 44.3058 39.9904 46.377 42.5448 46.377C60.6749 46.3753 75.0002 31.6256 75.0002 13.4955C75.0002 13.492 75.0002 13.4886 75.0002 13.4834C75.0002 3.27449 67.1483 -5 56.9377 -5Z" fill="#E5E5EB"/>
<path d="M13.6167 -5C3.40264 -5 -4.67616 3.28142 -4.67616 13.4955C-4.67616 23.7096 3.7057 31.991 13.9215 31.991C14.0237 31.991 14.1744 31.9772 14.2765 31.9754C10.238 35.1914 5.16387 37.1292 -0.388246 37.1292C-2.94263 37.1292 -5 39.2005 -5 41.7531C-5 44.3058 -3.33056 46.377 -0.776166 46.377C17.3539 46.3753 31.7053 31.6256 31.7053 13.4955C31.7053 13.492 31.7053 13.4886 31.7053 13.4834C31.7053 3.27449 23.8274 -5 13.6167 -5Z" fill="#E5E5EB"/>
</svg>
