<svg width="45" height="45" viewBox="0 0 45 45" fill="none" xmlns="http://www.w3.org/2000/svg">
<path d="M30.8133 15.1109C30.1098 14.497 29.098 14.5109 28.5175 14.6894C28.8978 14.2246 29.7835 13.8434 30.0445 13.7972C30.2433 13.8713 30.8133 14.4544 30.8133 15.1109ZM33.0595 12.5687C32.5968 10.105 26.845 11.7374 23.9485 10.691C23.893 11.4092 24.8403 12.5598 25.7463 12.9858C24.1975 14.3237 22.807 17.0194 22.5265 20.3128C22.2468 17.0194 20.8563 14.3237 19.3075 12.9858C20.2135 12.5598 21.1615 11.4092 21.1053 10.691C18.2088 11.7374 12.4571 10.105 11.9936 12.5687C11.8961 13.09 12.1481 13.8846 12.4203 14.1129C12.4691 13.9477 12.7233 13.4073 13.5251 13.2861C17.5773 12.6766 20.9605 18.8934 17.9065 21.407C17.86 21.4451 17.8863 21.5156 17.9493 21.5156H27.1053C27.1675 21.5156 27.1938 21.4451 27.148 21.407C24.0933 18.8934 27.4765 12.6766 31.5288 13.2861C32.3313 13.4073 32.5848 13.9477 32.6335 14.1129C32.9058 13.8846 33.1578 13.09 33.0595 12.5687ZM34.045 6.91438C33.9723 6.6816 36.3483 6.67572 36.3483 8.15612C36.3483 9.14819 34.927 9.61815 34.927 10.6477C34.927 11.1272 35.4453 11.4789 35.6043 11.4789C35.2383 9.82596 36.7518 10.691 37.1605 11.0001C36.3483 8.77735 38.1768 8.7913 37.9968 7.77207C37.8715 7.05977 36.2823 7.27493 35.707 6.91438C34.6863 6.27478 33.4788 3.78617 32.683 6.27478C34.1665 7.64576 33.3033 9.66368 31.42 9.66368C31.42 9.66368 31.4095 9.95961 31.4268 9.98311C33.673 9.8737 34.456 8.23028 34.045 6.91438ZM7.83856 11.0001C8.24731 10.691 9.76081 9.82596 9.39556 11.4789C9.55381 11.4789 10.0721 11.1272 10.0721 10.6477C10.0721 9.61815 8.65081 9.14819 8.65081 8.15612C8.65081 6.67572 11.0268 6.6816 10.9541 6.91438C10.5438 8.23028 11.3268 9.8737 13.5731 9.98311C13.5896 9.95961 13.5791 9.66368 13.5791 9.66368C11.6966 9.66368 10.8333 7.64576 12.3161 6.27478C11.5203 3.78617 10.3128 6.27478 9.29206 6.91438C8.71681 7.27493 7.12756 7.05977 7.00231 7.77207C6.82306 8.7913 8.65081 8.77735 7.83856 11.0001ZM14.2165 15.1109C14.9208 14.497 15.9325 14.5109 16.5123 14.6894C16.1335 14.2246 15.2463 13.8434 14.986 13.7972C14.7873 13.8713 14.2165 14.4544 14.2165 15.1109ZM23.5953 1.32986L22.4995 0L21.4038 1.32986L22.4995 2.72948L23.5953 1.32986ZM29.8503 5.35101L29.071 4.40593L28.2925 5.35101L29.071 6.27478L29.8503 5.35101ZM36.1705 32.6693L35.1828 31.6287L34.195 32.6693L35.1828 33.582L36.1705 32.6693ZM16.7073 5.35101L15.928 4.40593L15.1495 5.35101L15.928 6.27478L16.7073 5.35101ZM14.4753 9.98311H17.3815C19.825 9.98311 20.9245 8.49023 21.2568 7.19562H23.743C24.0753 8.49023 25.174 9.98311 27.6183 9.98311H30.5245C30.5245 9.98311 31.033 9.29652 31.1605 8.95653C31.6195 7.73315 31.033 7.16258 30.1773 7.16258L29.071 8.16052L27.9648 7.16258C27.109 7.16258 26.5225 7.73315 26.9815 8.95653C27.04 9.11294 27.1803 9.34278 27.313 9.54472C26.2818 9.40373 24.9655 8.70098 24.6768 7.19562C24.6768 7.19562 25.4388 5.9906 25.63 5.50301C26.317 3.74945 25.4395 3.03275 24.1563 3.03275L22.4995 4.97136L20.8428 3.03275C19.5595 3.03275 18.682 3.74945 19.3698 5.50301C19.5603 5.9906 20.323 7.19562 20.323 7.19562C20.0335 8.70098 18.7173 9.40373 17.686 9.54472C17.8195 9.34278 17.959 9.11294 18.0175 8.95653C18.4758 7.73315 17.8908 7.16258 17.0343 7.16258L15.928 8.16052L14.8218 7.16258C13.9653 7.16258 13.3803 7.73315 13.8386 8.95653C13.9661 9.29652 14.4753 9.98311 14.4753 9.98311ZM44.5225 18.9507C43.9615 19.2334 40.6705 20.7681 36.4548 20.2005C36.499 20 36.535 19.7981 36.5658 19.5961C39.3715 19.262 41.6523 18.7884 43.1058 17.9836C44.7625 17.0656 45.487 14.8744 44.6508 13.2442C44.629 13.2031 44.569 13.1958 44.539 13.2303C44.0808 13.7553 41.1993 16.8755 36.6595 17.8455C36.6475 17.6098 36.6265 17.377 36.595 17.1457C38.8 15.901 40.9525 14.4669 41.9778 13.1554C43.5273 11.1727 43.3848 8.64371 41.9103 7.35424C41.8788 7.32633 41.8278 7.33441 41.806 7.36892C41.3395 8.13482 36.973 15.1601 32.179 18.1928C32.131 18.2237 32.0665 18.2633 32.002 18.3022C31.8648 18.3852 31.8498 18.5629 31.9668 18.6687C32.5195 19.1673 32.863 19.8612 32.863 20.6315C32.863 21.9709 31.8258 23.0849 30.4548 23.3265C29.758 23.4609 28.7523 23.4219 27.7863 23.104C27.7428 23.09 27.6978 23.1187 27.6978 23.162V27.4042C27.6978 27.4725 27.802 27.4893 27.8268 27.424C28.414 25.8753 30.172 25.5463 30.9408 25.5463C31.2175 27.2015 31.7118 28.5725 32.3538 29.3105C33.3993 30.5096 35.1063 30.4927 35.8465 29.6637C35.872 29.635 35.8645 29.5902 35.83 29.5712C35.395 29.3222 32.9065 27.8014 32.4085 25.3091C32.605 25.2416 32.797 25.1652 32.9808 25.0749C33.784 26.3981 34.9533 27.5767 35.8945 28.0269C37.4755 28.7818 38.923 28.4146 39.565 27.3094C39.5883 27.2705 39.5598 27.2221 39.5125 27.2177C38.5345 27.1398 35.533 26.2836 34.255 24.1974C34.4013 24.0637 34.5445 23.9242 34.678 23.7759C36.0153 24.7892 37.906 25.6851 39.2598 25.868C40.8438 26.0824 42.6385 25.5794 42.682 23.7458C42.6828 23.7091 42.6498 23.679 42.6108 23.6812C42.0475 23.7149 38.3193 23.8765 35.6628 22.3586C35.755 22.1846 35.8405 22.0069 35.9208 21.8255C35.9208 21.8255 39.9348 22.7699 41.8368 22.457C43.7268 22.1464 44.8338 20.7439 44.62 18.9991C44.614 18.9558 44.563 18.9301 44.5225 18.9507ZM9.07831 21.8255C9.15856 22.0069 9.24481 22.1846 9.33706 22.3586C6.68131 23.8757 2.95456 23.7157 2.38906 23.6812C2.34931 23.679 2.31631 23.7105 2.31706 23.7465C2.36131 25.5794 4.15531 26.0824 5.73931 25.868C7.09231 25.6851 8.98381 24.7892 10.3211 23.7759C10.4553 23.9242 10.5978 24.0637 10.7441 24.1974C9.46531 26.2836 6.46456 27.1398 5.48656 27.2177C5.43931 27.2221 5.41156 27.2705 5.43406 27.3094C6.07606 28.4146 7.52356 28.7818 9.10531 28.0269C10.0458 27.5767 11.2151 26.3981 12.0183 25.0749C12.2028 25.1652 12.3948 25.2416 12.5906 25.3091C12.0926 27.8014 9.60405 29.3222 9.16905 29.5712C9.13531 29.5902 9.12706 29.635 9.15256 29.6637C9.89281 30.4927 11.6006 30.5096 12.6461 29.3105C13.2881 28.5725 13.7816 27.2015 14.0583 25.5463C14.8278 25.5463 16.585 25.8753 17.1723 27.424C17.1978 27.4893 17.302 27.4725 17.302 27.4042V23.162C17.302 23.1187 17.2563 23.09 17.2128 23.104C16.2468 23.4219 15.241 23.4609 14.545 23.3265C13.1733 23.0849 12.1361 21.9709 12.1361 20.6315C12.1361 19.8612 12.4803 19.1665 13.0323 18.6679C13.1501 18.5629 13.1343 18.3852 12.9978 18.3022C12.9326 18.2633 12.8681 18.2237 12.8193 18.1928C8.02831 15.1616 3.66406 8.14143 3.19381 7.37039C3.17206 7.33441 3.11956 7.32707 3.08731 7.35497C1.61506 8.64517 1.47181 11.1734 3.02131 13.1554C4.04656 14.4669 6.19906 15.901 8.40331 17.1457C8.37256 17.377 8.35081 17.6098 8.33956 17.8455C3.80356 16.8762 0.924314 13.7612 0.461565 13.2325C0.430815 13.1965 0.369315 13.2038 0.348315 13.245C-0.486434 14.8759 0.238065 17.0656 1.89331 17.9836C3.34681 18.7884 5.62756 19.262 8.43331 19.5961C8.46406 19.7981 8.50006 20 8.54431 20.2005C4.33306 20.7674 1.04356 19.2363 0.478064 18.9514C0.436065 18.9301 0.385065 18.9565 0.379815 19.0006C0.166815 20.7453 1.27306 22.1464 3.16306 22.457C5.06431 22.7699 9.07831 21.8255 9.07831 21.8255ZM35.1828 34.9222L33.7203 33.7766C33.1368 34.1225 32.7078 34.6718 32.5413 35.3158C31.6615 35.4384 29.263 34.9082 29.4963 34.5565C32.125 30.876 30.1143 28.6848 27.6978 28.8067V31.2785C27.6978 32.0723 27.0018 32.7155 26.1445 32.7155H24.4758C23.2788 32.7155 22.4995 33.9132 22.4995 33.9132C22.4995 33.9132 21.7203 32.7155 20.5233 32.7155H18.8545C17.9965 32.7155 17.302 32.0723 17.302 31.2785V28.8067C14.8855 28.6848 12.8733 30.876 15.5028 34.5565C15.7338 34.9045 13.2686 35.4619 12.1121 35.3209C11.8076 35.0066 11.3681 34.8083 10.8761 34.8083C10.6593 34.8083 10.4531 34.848 10.2633 34.9178C10.2633 34.9178 5.71906 30.6352 5.63581 30.5933L5.67331 30.5067C5.93206 30.025 5.53606 29.4999 5.28556 29.5366C5.57656 29.1893 5.59006 27.6685 3.97606 27.3168C4.02331 27.6223 4.04731 28.2457 4.04731 28.2457C4.04731 28.2457 2.80156 27.5753 2.17606 28.1539C1.62631 28.8016 2.38906 29.9765 2.38906 29.9765C2.38906 29.9765 1.75156 29.9919 1.43731 29.9655C1.89931 31.5208 3.44881 31.4106 3.78406 31.1037C3.76231 31.3512 4.32256 31.7036 4.79731 31.4209L5.00581 31.3203C5.04256 31.3695 9.4683 35.5316 9.4683 35.5316C9.26505 35.832 9.16831 36.2006 9.23506 36.5935C9.34006 37.2074 9.8538 37.7163 10.5101 37.8484C10.9736 37.941 11.4093 37.8514 11.7588 37.648L12.9303 38.7304C13.0346 38.8244 13.1756 38.8831 13.3331 38.8721C13.6196 38.853 13.8341 38.6217 13.8123 38.3566C13.8033 38.2369 13.7418 38.1341 13.6571 38.0562C13.6383 38.0357 12.4638 36.9504 12.4638 36.9504C13.4328 36.274 15.238 35.7975 16.7365 35.7975C16.9998 35.7975 17.1235 35.5757 17.0328 35.3583C16.354 33.7333 17.8135 32.5562 19.3233 33.5145C19.9818 33.9323 20.6508 34.7555 21.1548 36.1287C18.6775 36.7257 15.5673 38.3705 14.938 40.166C14.6958 40.8592 15.496 41.8042 16.468 41.9944C16.5048 42.0025 16.54 41.9783 16.5468 41.9437C17.0545 39.2635 19.9503 37.2661 21.457 36.9269C21.5328 37.1288 21.508 37.0634 21.5838 37.2646C19.9428 38.0372 18.3513 39.6666 17.8968 41.6038C17.6883 42.4908 18.682 43.2905 19.5025 43.5093C19.5438 43.5203 19.5843 43.4917 19.5865 43.452C19.7425 41.0023 20.8293 38.922 21.8028 37.9755C21.829 38.1576 21.8493 38.3441 21.8628 38.5328C21.8628 38.5328 20.866 41.2976 20.866 43.3147C20.866 44.2532 22.267 44.9082 22.474 45C22.7328 44.9082 24.133 44.2532 24.133 43.3147C24.133 41.2976 23.1363 38.5328 23.1363 38.5328C23.1505 38.3441 23.17 38.1576 23.197 37.9755C24.1698 38.922 25.2573 41.0016 25.4125 43.4513C25.4148 43.491 25.456 43.5203 25.4965 43.5093C26.3178 43.2905 27.3108 42.4908 27.103 41.6038C26.6478 39.6666 25.057 38.0372 23.416 37.2646C23.491 37.0634 23.4663 37.1288 23.542 36.9269C25.0495 37.2661 27.9445 39.2635 28.4523 41.9437C28.459 41.9783 28.495 42.0025 28.531 41.9944C29.5023 41.8042 30.304 40.8592 30.0603 40.166C29.4325 38.3705 26.3215 36.7257 23.8443 36.1287C24.349 34.7555 25.018 33.9323 25.6765 33.5145C27.1855 32.5562 28.645 33.7333 27.9663 35.3583C27.8755 35.5757 27.9985 35.7975 28.2625 35.7975C29.9575 35.7975 32.0455 36.407 32.872 37.2243C33.4 38.0129 34.3758 38.5174 35.4768 38.4095C36.7278 38.2876 37.7478 37.352 37.8888 36.1955C38.0118 35.1821 37.4853 34.2723 36.646 33.7766L35.1828 34.9222Z" fill="white"/>
<path fill-rule="evenodd" clip-rule="evenodd" d="M20.0111 23.5899C20.0394 23.6291 20.0751 23.6622 20.1161 23.6875C20.1572 23.7127 20.2029 23.7296 20.2506 23.7372C20.2982 23.7448 20.3469 23.7428 20.3938 23.7315C20.4407 23.7202 20.4849 23.6998 20.5239 23.6713L20.5727 23.6306C20.7273 23.4923 20.8413 23.2807 21.0122 23.2563C21.0852 23.2481 21.1589 23.2481 21.2319 23.2563H21.2889C21.1755 23.24 21.0604 23.24 20.9471 23.2563C20.711 23.2563 20.5808 23.5655 20.4425 23.5574C20.3243 23.5817 20.2025 23.5817 20.0844 23.5574C20.2227 23.7039 20.3692 23.6306 20.3692 23.6876C20.3692 23.7446 20.1902 23.7446 20.0111 23.6876" fill="white"/>
<path fill-rule="evenodd" clip-rule="evenodd" d="M20.6297 23.1827C20.907 23.2124 21.1873 23.1704 21.4436 23.0606L20.9716 23.4106C21.0196 23.4509 21.0756 23.4804 21.136 23.4973C21.1963 23.5141 21.2596 23.5179 21.3215 23.5083C21.5159 23.4993 21.7016 23.4255 21.8491 23.2986C21.9967 23.1717 22.0974 22.9991 22.1354 22.8083C22.1354 22.6293 22.4121 22.5316 22.6644 22.5235C23.0918 22.5628 23.4935 22.7447 23.805 23.0399C24.1165 23.3352 24.3196 23.7266 24.3817 24.1512H25.4804C25.4398 23.5582 25.1843 23.0004 24.7618 22.5824C24.3392 22.1643 23.7787 21.9148 23.1853 21.8805H23.0551C22.2412 21.8805 22.0215 22.2793 21.6389 22.2793H21.5087C21.4095 22.2854 21.3164 22.329 21.2483 22.4014L20.8251 22.5397C20.1902 22.7514 20.5158 23.1176 20.6297 23.1827Z" fill="white"/>
<path d="M19.1973 24.3218C19.6205 25.1357 20.9471 25.7949 22.5097 25.7949C24.0724 25.7949 25.399 25.1357 25.8222 24.3218H19.1973Z" fill="white"/>
<path d="M23.6005 29.7264C23.4465 29.909 23.2717 30.0729 23.0796 30.2148H24.7073C24.3676 29.9925 23.9937 29.8276 23.6005 29.7264Z" fill="white"/>
<path d="M22.4528 29.5961C21.6925 29.595 20.9475 29.8095 20.3042 30.2147H21.6959C21.9234 29.9799 22.1774 29.7723 22.4528 29.5961Z" fill="white"/>
<path fill-rule="evenodd" clip-rule="evenodd" d="M23.1201 31.5494C23.1201 32.4365 21.4272 32.5261 21.4272 31.1425C21.4272 29.9786 23.055 29.5147 23.055 29.1322V28.2614C23.272 28.2862 23.473 28.3875 23.6221 28.5471C23.7712 28.7066 23.8587 28.914 23.8689 29.1322C23.8689 29.8728 22.1109 30.4181 22.1109 31.2157C22.1109 32.0133 23.1282 31.875 23.1934 31.5494" fill="white"/>
<path d="M22.1433 28.0904V29.4821H22.5096H22.6154C22.713 29.4007 22.8004 29.3078 22.8758 29.2054V27.7567C22.6479 27.8706 22.4526 27.9846 22.1433 28.0904Z" fill="white"/>
<path d="M22.8758 26.5682V25.9496H22.5096H22.1433V26.9751C22.3712 26.8367 22.6235 26.7065 22.8758 26.5682Z" fill="white"/>
<path fill-rule="evenodd" clip-rule="evenodd" d="M25.342 25.0706C24.9841 25.3275 24.5888 25.5279 24.17 25.6647C23.5929 26.2738 22.9015 26.7633 22.1353 27.1053C21.9147 27.207 21.724 27.3637 21.5814 27.5604C21.4389 27.7571 21.3494 27.9871 21.3214 28.2284C21.3214 28.8714 22.0376 28.8795 22.0376 28.8795V28.3098C21.8667 28.3098 21.8911 28.0982 22.0376 28.0494C23.4212 27.5041 25.0083 26.5844 25.3501 25.0706" fill="white"/>
</svg>
