<svg width="174" height="296" viewBox="0 0 174 296" fill="none" xmlns="http://www.w3.org/2000/svg">
<g opacity="0.1">
<path d="M183.754 13.376L187.115 13.031L186.785 16.4877H189.468L189.134 13.031L192.499 13.3613V10.5982L189.137 10.9431L189.471 7.49012H186.785L187.115 10.9578L183.754 10.6128V13.376Z" fill="white"/>
<path d="M190.646 28.9051C190.646 32.5342 189.515 39.8182 188.125 39.8182C186.73 39.8182 185.603 32.5342 185.603 28.9051C185.603 26.9237 186.734 25.6247 188.125 25.6247C189.515 25.6247 190.646 26.9237 190.646 28.9051Z" fill="white"/>
<path d="M202.579 36.457C202.579 38.5191 201.57 42.7905 200.674 45.6012H175.656C174.764 42.7905 173.755 38.5191 173.755 36.457C173.755 32.6884 175.78 28.5163 183.094 27.2319C183.094 31.7856 185.303 42.9446 187.974 42.9446H188.275C190.954 42.9446 193.155 31.87 193.155 27.2319C200.491 28.5126 202.579 32.6847 202.579 36.457Z" fill="white"/>
<path d="M189.291 23.0566C188.943 23.2777 188.537 23.3898 188.125 23.3788C187.856 23.3756 187.59 23.3193 187.344 23.2132C187.097 23.1072 186.873 22.9534 186.685 22.7609C186.498 22.5683 186.35 22.3406 186.251 22.091C186.152 21.8412 186.102 21.5744 186.106 21.3057C186.107 20.8933 186.23 20.4904 186.46 20.1483C186.69 19.8063 187.017 19.5407 187.399 19.3855C187.781 19.2304 188.201 19.1927 188.605 19.2772C189.008 19.3618 189.377 19.5648 189.665 19.8603C189.953 20.1557 190.146 20.5303 190.22 20.936C190.293 21.3417 190.244 21.7602 190.079 22.138C189.913 22.5157 189.639 22.8355 189.291 23.0566Z" fill="white"/>
<path d="M199.804 47.9461C199.144 49.7807 198.627 51.0542 198.627 51.0542H177.703C177.703 51.0542 177.186 49.7807 176.529 47.9461H199.804Z" fill="white"/>
<path d="M236.76 55.0465C233.674 58.0958 233.388 64.3596 233.388 64.3596C233.388 64.3596 229.696 57.7142 232.742 50.6614C235.788 43.6088 242.014 38.1888 235.912 34.0681C239.637 34.1012 243.677 33.2426 245.453 35.7707C246.002 36.5598 246.516 38.5156 244.656 41.2933C242.293 44.827 236.395 53.043 241.23 58.5142C237.695 57.8609 236.76 55.0465 236.76 55.0465Z" fill="white"/>
<path d="M241.447 32.2481C236.367 32.083 232.947 33.7012 226.562 27.8777H226.573C219.036 21.0011 215.458 22.1754 215.458 22.1754C219.304 19.6691 224.669 18.5352 226.511 20.003C228.353 21.4708 230.844 25.3347 235.028 28.1016C240.933 31.9986 246.998 30.9712 247.27 34.604H247.105C247.105 34.604 246.523 32.4133 241.447 32.2481Z" fill="white"/>
<path d="M215.157 38.4054C212.772 46.9884 206.78 51.0907 200.634 51.0907L201.015 49.924C204.59 49.4763 209.631 44.3756 210.574 34.9342C211.525 25.4265 213.855 24.2009 213.855 24.2009C216.262 22.5386 222.309 26.9421 223.63 28.4098C223.63 28.4098 217.543 29.8226 215.157 38.4054Z" fill="white"/>
<path d="M151.191 33.9177H159.712C161.227 43.4877 166.845 50.023 175.52 50.023L175.887 51.0174C164.75 51.0174 154.046 47.2012 151.191 33.9177Z" fill="white"/>
<path d="M106.791 16.473H104.105L104.442 13.031L101.081 13.376V10.6128L104.442 10.9578L104.105 7.5048H106.794L106.46 10.9578L109.822 10.6128V13.376L106.46 13.031L106.791 16.473Z" fill="white"/>
<path d="M107.972 28.9051C107.972 32.5342 106.842 39.8182 105.451 39.8182C104.06 39.8182 102.93 32.5342 102.93 28.9051C102.93 26.9237 104.06 25.6247 105.451 25.6247C106.842 25.6247 107.972 26.9237 107.972 28.9051Z" fill="white"/>
<path d="M119.828 36.457C119.828 38.5191 118.819 42.7905 117.927 45.6012H92.9091C92.0137 42.7905 91.0047 38.5191 91.0047 36.457C91.0047 32.6847 93.0888 28.5126 100.428 27.2319C100.428 31.87 102.637 42.9446 105.308 42.9446H105.609C108.288 42.9446 110.49 31.7856 110.49 27.2319C117.803 28.5163 119.828 32.6884 119.828 36.457Z" fill="white"/>
<path d="M106.618 23.0566C106.27 23.2777 105.863 23.3898 105.451 23.3788C104.909 23.3712 104.392 23.1485 104.013 22.7598C103.635 22.3711 103.426 21.8481 103.433 21.3057C103.433 20.8933 103.556 20.4904 103.787 20.1483C104.017 19.8063 104.344 19.5407 104.726 19.3855C105.108 19.2304 105.528 19.1927 105.931 19.2772C106.335 19.3618 106.704 19.5648 106.992 19.8603C107.28 20.1557 107.473 20.5303 107.546 20.936C107.62 21.3417 107.571 21.7602 107.406 22.138C107.24 22.5157 106.966 22.8355 106.618 23.0566Z" fill="white"/>
<path d="M115.862 51.0542H94.9456C94.9456 51.0542 94.4319 49.7807 93.7714 47.9461H117.036C116.379 49.7807 115.862 51.0542 115.862 51.0542Z" fill="white"/>
<path d="M60.1772 64.3596C60.1772 64.3596 59.8912 58.0958 56.8051 55.0465C56.8051 55.0465 55.8693 57.8609 52.3393 58.5142C57.1721 53.0356 51.2751 44.827 48.9121 41.2933C47.0516 38.5156 47.5653 36.5598 48.1158 35.7707C49.8881 33.2426 53.9281 34.1012 57.6563 34.0681C51.554 38.1853 57.7774 43.6014 60.8267 50.6614C63.876 57.7216 60.1772 64.3596 60.1772 64.3596Z" fill="white"/>
<path d="M66.9988 27.8777C60.614 33.7158 57.194 32.083 52.1156 32.2481C47.0407 32.4168 46.4572 34.604 46.4572 34.604H46.2921C46.5635 30.9712 52.6293 31.9986 58.537 28.1016C62.7277 25.3347 65.2191 21.4488 67.0612 20.003C68.9033 18.5572 74.2682 19.6691 78.1137 22.1754C78.1137 22.1754 74.536 21.0011 66.9988 27.8777Z" fill="white"/>
<path d="M78.4035 38.4054C76.0221 29.8226 69.9307 28.4098 69.9307 28.4098H69.9344C71.2553 26.9347 77.3028 22.535 79.7209 24.2009C79.7209 24.2009 82.0509 25.4265 83.0014 34.9342C83.9444 44.3756 88.9863 49.4763 92.5605 49.924L92.9275 51.0907C86.7809 51.0907 80.7851 46.9884 78.4035 38.4054Z" fill="white"/>
<path d="M117.704 51.0174L118.071 50.023H118.074C126.73 50.023 132.349 43.4877 133.864 33.9177H142.399C139.544 47.2012 128.84 51.0174 117.704 51.0174Z" fill="white"/>
<path d="M26.1907 102.772C28.264 105.869 32.1756 109.347 37.8044 113.083C26.9172 111.373 13.7915 107.05 7.41761 100.775C-4.6843 88.8828 1.7703 74.3554 3.35919 71.2693C11.1935 81.0375 26.1907 91.4147 40.1567 96.9188C35.4451 97.5061 30.6086 98.4968 27.1263 99.8544C21.5488 97.4803 13.6961 92.1449 10.0707 88.4423C9.59361 89.0626 8.28728 92.1742 12.4044 95.6309C15.4024 98.1481 21.4864 100.937 26.1907 102.772Z" fill="white"/>
<path d="M36.1423 81.5035C36.3881 85.7526 38.2486 90.677 40.1567 94.3465C31.636 88.6993 21.8643 80.0284 17.4243 74.2121C11.6522 66.653 9.27437 59.0388 10.3275 51.7184C11.3807 44.3977 15.6776 39.2054 18.1728 37.1395C20.3892 42.9263 29.5702 57.6921 37.7605 66.6054C36.726 70.2635 36.1698 74.0402 36.1056 77.8412C29.0602 72.003 21.2882 60.3782 20.0957 56.2244C18.5324 57.3765 17.7252 60.7305 19.9269 64.5505C23.7467 71.1665 30.3556 76.9533 36.1423 81.5035Z" fill="white"/>
<path d="M40.9272 129.625C37.037 130.174 33.1137 130.458 29.1849 130.476C22.5799 130.476 16.6647 129.79 12.9512 128.579C9.41749 127.438 -1.78543 122.462 0.243794 105.95C9.13493 110.65 24.9321 115.549 37.3056 115.442C34.4367 117.161 31.7481 119.163 29.2802 121.42C24.066 121.112 17.0133 119.516 12.8631 117.846C12.7787 118.598 12.709 121.882 17.5087 123.35C20.7855 124.348 25.8493 124.455 29.5923 124.528C32.5865 126.432 37.1916 128.355 40.9272 129.625Z" fill="white"/>
<path d="M37.9477 141.459C39.0302 141.91 43.7086 143.063 48.5707 143.686V143.69C41.7565 146.108 31.8526 148.629 25.6256 148.611C14.0447 148.611 8.8744 138.468 8.61386 133.151C21.5231 135.162 34.9607 133.738 41.54 131.926C39.8179 133.921 38.2712 136.061 36.9165 138.322C30.4877 139.764 22.4551 139.422 22.4551 139.422C22.4551 139.422 22.9321 142.85 27.3942 143.092C29.3612 143.202 35.4158 142.193 37.9477 141.459Z" fill="white"/>
<path d="M42.916 158.83C45.8444 158.46 49.3633 156.236 50.1595 155.7V155.704C52.4823 156.023 57.3298 155.917 59.1793 155.55C53.3558 159.696 42.9895 165.277 35.7423 165.277C27.9007 165.277 21.7139 157.326 20.1177 153.535C28.0914 153.429 41.5363 150.2 49.7779 145.609C49.0526 147.981 48.5174 150.407 48.1781 152.864C44.6481 154.54 40.8826 155.666 37.0119 156.203C37.0119 156.203 37.577 159.505 42.916 158.83Z" fill="white"/>
<path d="M64.5916 165.34C67.0835 165.101 69.5435 164.6 71.9307 163.846C67.7988 169.05 58.904 177.471 50.3358 177.49C43.727 177.49 38.4284 172.617 36.9605 169.516C44.4793 168.433 55.2419 162.841 60.97 157.087C60.9933 159.199 61.2393 161.302 61.7037 163.362C59.5756 165.619 56.273 167.211 56.273 167.211C56.5716 167.725 57 168.151 57.5154 168.447C58.0305 168.744 58.6144 168.9 59.2086 168.899C61.7847 168.899 64.5916 165.34 64.5916 165.34Z" fill="white"/>
<path d="M97.7821 171.787C97.764 171.792 97.7459 171.796 97.7277 171.801C95.1176 174.146 92.6881 179.25 93.3309 184.693C85.7977 184.476 85.2398 176.781 87.6065 171.787C88.0484 172.859 88.6509 173.858 89.3937 174.748C88.7405 177.284 89.6102 178.499 91.1881 178.216C91.2572 177.216 91.4814 176.234 91.8521 175.303C91.8521 175.303 95.4668 172.392 97.7277 171.801C97.7397 171.79 97.7517 171.78 97.7637 171.769L97.7821 171.787Z" fill="white"/>
<path d="M74.8295 174.323C74.9212 174.866 77.7063 176.356 79.6916 172.521L79.6733 172.492C81.5465 172.121 83.3835 171.586 85.1628 170.892C82.7593 175.728 80.6493 179.684 77.3137 181.86C72.3563 185.096 64.4047 184.37 61.8358 180.803C66.1954 178.436 71.4058 172.37 74.2388 166.4C74.9519 168.239 75.7614 170.038 76.6642 171.791C76.1279 172.687 75.5142 173.534 74.8295 174.323Z" fill="white"/>
<path d="M135.446 119.504C134.84 116.143 133.093 112.327 131.13 109.171C129.637 115.325 123.879 121.303 117.935 121.75C121.803 116.73 121.964 108.052 121.689 105.164C124.261 101.161 125.956 97.5463 126.767 95.0914C128.503 96.8198 131.215 100.177 133.64 104.056C133.744 100.465 134.09 96.8854 134.675 93.3412C137.174 95.6014 141.698 97.2344 144.117 97.8693C145.249 100.296 146.143 102.826 146.788 105.425C147.437 102.822 148.336 100.288 149.474 97.8582C151.892 97.2235 156.417 95.5905 158.916 93.33C159.501 96.8744 159.847 100.454 159.95 104.045C162.376 100.166 165.073 96.8088 166.823 95.0805C167.63 97.5354 169.333 101.15 171.902 105.153C171.619 108.041 171.788 116.719 175.656 121.739C169.697 121.28 163.939 115.314 162.446 109.171C160.482 112.327 158.736 116.125 158.13 119.504C156.248 117.226 154.259 113.27 152.912 108.54C151.261 110.602 148.377 114.807 146.788 118.279C145.199 114.807 142.315 110.602 140.664 108.54C139.317 113.266 137.328 117.226 135.446 119.504Z" fill="white"/>
<path d="M164.651 82.8612C169.85 83.3675 173.538 81.5951 175.876 78.4798V78.4907C176.511 80.2926 176.701 82.2849 176.364 84.8609C174.316 89.323 173.314 97.6086 173.949 102.24C170.676 97.6747 169.223 92.5412 168.287 88.4351C166.161 90.6209 164.156 92.9216 162.28 95.3263C161.987 92.9265 161.47 89.9395 161.018 87.7893C158.574 90.123 153.503 93.0549 150.072 94.0933C152.38 84.3509 156.332 78.1421 156.332 78.1421C159.686 78.4798 165.084 77.6614 167.509 75.2726C167.077 78.8026 164.651 82.8612 164.651 82.8612Z" fill="white"/>
<path d="M117.212 84.8609C116.874 82.274 117.061 80.2814 117.696 78.4798V78.4907C120.037 81.6061 123.722 83.3784 128.929 82.8721C128.929 82.8721 126.499 78.8137 126.066 75.2837C128.496 77.6726 133.893 78.4907 137.247 78.1533C137.247 78.1533 141.196 84.3619 143.504 94.0933C140.073 93.0549 135.002 90.123 132.558 87.7893C132.106 89.9395 131.589 92.9154 131.295 95.3263C129.42 92.9216 127.415 90.6209 125.288 88.4351C124.349 92.5412 122.896 97.6747 119.627 102.24C120.258 97.6086 119.267 89.323 117.212 84.8609Z" fill="white"/>
<path d="M176.984 53.6228C165.825 53.6228 158.27 51.2854 153.499 48.9333V48.9442C154.307 52.1182 157.672 55.7363 159 56.4556C157.231 57.3949 154.508 58.1472 152.674 57.7288C153.984 60.1691 158.56 61.9012 160.666 62.0479C159.297 63.633 157.018 65.3026 155.143 65.7614C155.987 66.62 160.075 67.3282 163.051 66.6384C160.919 69.8528 156.692 73.4747 153.444 73.3498C157.257 76.267 164.368 75.2726 170.133 70.2198C170.676 73.4819 169.983 78.3368 169.399 79.5658C171.847 79.0191 175.601 74.7442 176.984 72.4619C179.024 76.9019 178.991 78.7623 178.991 78.7623C183.387 72.7921 194.513 69.5226 198.594 55.7363C198.979 54.4116 198.539 53.6777 197.357 53.6777L176.984 53.6228Z" fill="white"/>
<path d="M218.31 82.2154C218.453 82.1235 218.658 82.1528 218.478 82.3914V82.4023C217.455 83.7637 214.56 87.8993 208.215 84.1858C201.87 80.4723 198.597 78.454 198.597 78.454C199.195 79.7791 199.28 81.2788 198.836 82.663C198.792 82.8023 198.645 82.7986 198.586 82.663C197.955 81.1767 192.443 76.8763 185.417 76.2781C187.992 74.0249 190.818 72.0142 190.818 72.0142C193.823 72.4837 199.639 74.5607 207.169 79.4558C214.699 84.3509 218.167 82.307 218.31 82.2154Z" fill="white"/>
<path d="M214.339 75.2286C214.703 74.7847 220.574 68.3814 216.328 62.5321V62.5433C212.083 56.6977 201.261 57.0647 201.269 57.0684C200.006 61.78 196.113 67.6107 192.829 70.2198C192.473 70.5868 192.719 70.5793 193.086 70.4765C210.85 65.7284 213.939 74.7002 213.903 75.0488C213.866 75.3974 214.086 75.5405 214.339 75.2286Z" fill="white"/>
<path d="M85.3719 84.2042C79.0128 87.9065 76.1212 83.7637 75.0975 82.4023C74.9177 82.164 75.1377 82.1419 75.2735 82.2337C75.4093 82.3254 78.877 84.373 86.4177 79.4742C93.9584 74.5754 99.7635 72.5167 102.765 72.0326C102.765 72.0326 105.602 74.0433 108.17 76.2965C101.143 76.8944 95.6319 81.1951 95.0007 82.6814C94.9419 82.8098 94.7914 82.8135 94.7474 82.6814C94.3042 81.2968 94.3907 79.797 94.9895 78.4723C94.9895 78.4723 91.7312 80.5016 85.3719 84.2042Z" fill="white"/>
<path d="M140.047 48.9442C135.277 51.2963 127.74 53.6337 116.563 53.6337L96.1674 53.6888C94.9861 53.6888 94.5419 54.4409 94.9309 55.7474C99.0114 69.5335 110.126 72.803 114.53 78.7733C114.53 78.7733 114.5 76.9128 116.537 72.4728C117.924 74.7551 121.681 79.0302 124.125 79.577C123.545 78.3477 122.848 73.493 123.391 70.2307C129.156 75.2837 136.264 76.2781 140.08 73.3609C136.833 73.4856 132.602 69.8637 130.473 66.6493C133.446 67.3393 137.537 66.6309 138.381 65.7723C136.502 65.3137 134.227 63.644 132.855 62.0588C134.98 61.9121 139.541 60.18 140.851 57.7398C139.016 58.1581 136.293 57.4061 134.521 56.4665C135.871 55.7363 139.24 52.1182 140.047 48.9442Z" fill="white"/>
<path d="M100.751 70.216C97.4482 67.6072 93.5695 61.7654 92.3109 57.0647C92.3109 57.0647 81.497 56.6793 77.2477 62.5286C72.9984 68.3777 78.8695 74.7809 79.2365 75.2249C79.4898 75.5368 79.7026 75.3314 79.6695 75.0451C79.6365 74.7588 82.7263 65.7393 100.497 70.473C100.875 70.583 101.118 70.583 100.751 70.216Z" fill="white"/>
<path d="M152.523 -1.84503C151.8 6.79659 148.99 15.9299 146.788 15.9299C144.634 15.9299 141.684 6.2168 141.049 -1.84503C141.049 -3.59537 143.24 -6.27042 146.788 -6.34014C150.322 -6.27042 152.523 -3.59537 152.523 -1.84503Z" fill="white"/>
<path d="M168.39 7.0351C168.39 14.1686 164.746 21.2323 164.012 22.146H129.556C128.822 21.2323 125.178 14.1686 125.178 7.0351C125.178 0.617184 133.233 -2.91651 138.022 -3.07797C138.568 6.17278 142.381 20.4837 146.784 20.4837C151.43 20.4837 154.993 6.0957 155.547 -3.07797C160.339 -2.91651 168.39 0.617184 168.39 7.0351Z" fill="white"/>
<path d="M162.046 24.8409C162.208 25.067 162.3 25.3358 162.31 25.6137C162.317 25.9956 162.172 26.3644 161.907 26.6398C161.642 26.9149 161.279 27.0737 160.897 27.0814C160.619 27.0819 160.347 27.0007 160.115 26.8477C159.883 26.6947 159.7 26.4765 159.591 26.2207C159.482 25.9651 159.451 25.6828 159.501 25.4093C159.551 25.1358 159.681 24.883 159.874 24.6828C160.067 24.4823 160.314 24.3433 160.586 24.2826C160.857 24.2221 161.14 24.2426 161.4 24.3419C161.66 24.4412 161.884 24.6147 162.046 24.8409Z" fill="white"/>
<path d="M133.597 24.8412C133.759 25.0672 133.85 25.3358 133.86 25.6137C133.864 25.803 133.83 25.9912 133.76 26.1674C133.691 26.3437 133.588 26.5047 133.456 26.6409C133.325 26.7772 133.168 26.8863 132.994 26.9619C132.82 27.0374 132.633 27.0781 132.444 27.0814C132.166 27.0812 131.894 26.9993 131.663 26.8458C131.431 26.6923 131.25 26.4742 131.141 26.2181C131.032 25.9623 131.002 25.6802 131.052 25.407C131.103 25.1337 131.233 24.8814 131.426 24.6814C131.619 24.4814 131.866 24.3426 132.137 24.2823C132.409 24.2221 132.692 24.2428 132.951 24.3423C133.211 24.4416 133.435 24.6151 133.597 24.8412Z" fill="white"/>
<path d="M133.78 31.25C133.32 31.2584 132.863 31.1863 132.429 31.0372C132.015 30.89 131.651 30.6298 131.377 30.286C131.104 29.9423 130.931 29.5288 130.881 29.0923H162.691C162.641 29.5288 162.469 29.9423 162.195 30.286C161.921 30.6298 161.557 30.89 161.143 31.0372C160.709 31.1868 160.252 31.2588 159.793 31.25H133.78Z" fill="white"/>
<path d="M140.676 24.8412C140.837 25.0672 140.929 25.3358 140.939 25.6137C140.942 25.803 140.908 25.9912 140.839 26.1674C140.77 26.3437 140.666 26.5047 140.535 26.6409C140.403 26.7772 140.246 26.8863 140.072 26.9619C139.899 27.0374 139.712 27.0781 139.522 27.0814C139.244 27.0812 138.973 26.9993 138.741 26.8458C138.509 26.6923 138.328 26.4742 138.219 26.2181C138.111 25.9623 138.08 25.6802 138.13 25.407C138.181 25.1337 138.311 24.8814 138.504 24.6814C138.697 24.4814 138.945 24.3426 139.216 24.2823C139.487 24.2221 139.77 24.2428 140.03 24.3423C140.289 24.4416 140.514 24.6151 140.676 24.8412Z" fill="white"/>
<path d="M148.59 -18.1595H144.983L145.371 -22.5629L141.449 -22.1262V-25.5865L145.371 -25.1681L144.983 -29.5349H148.59L148.201 -25.1681L152.123 -25.5865V-22.1409L148.201 -22.5629L148.59 -18.1595Z" fill="white"/>
<path d="M144.627 -10.8904C144.323 -11.3118 144.149 -11.8132 144.127 -12.3324V-12.3507C144.122 -12.7057 144.186 -13.0584 144.317 -13.3885C144.447 -13.7186 144.642 -14.0198 144.889 -14.2747C145.136 -14.5296 145.431 -14.7334 145.757 -14.8742C146.082 -15.015 146.433 -15.0903 146.788 -15.0955C147.307 -15.0936 147.815 -14.9392 148.248 -14.6514C148.68 -14.3636 149.019 -13.955 149.221 -13.4765C149.424 -12.998 149.482 -12.4705 149.387 -11.9596C149.292 -11.4486 149.05 -10.9767 148.69 -10.6024C148.329 -10.2281 147.867 -9.96781 147.36 -9.85395C146.853 -9.74007 146.324 -9.7776 145.837 -9.96183C145.352 -10.1461 144.931 -10.469 144.627 -10.8904Z" fill="white"/>
<path d="M154.964 24.8412C155.126 25.0672 155.218 25.3358 155.228 25.6137C155.232 25.8033 155.198 25.9916 155.129 26.1681C155.06 26.3444 154.956 26.5056 154.825 26.6421C154.693 26.7784 154.536 26.8874 154.362 26.9628C154.188 27.0384 154.001 27.0786 153.811 27.0814C153.533 27.0812 153.262 26.9993 153.03 26.8458C152.798 26.6923 152.617 26.4742 152.508 26.2181C152.4 25.9623 152.369 25.6802 152.42 25.407C152.47 25.1337 152.6 24.8814 152.793 24.6814C152.986 24.4814 153.234 24.3426 153.505 24.2823C153.776 24.2221 154.059 24.2428 154.319 24.3423C154.578 24.4416 154.803 24.6151 154.964 24.8412Z" fill="white"/>
<path d="M147.82 24.8412C147.982 25.0672 148.073 25.3358 148.083 25.6137H148.087C148.09 25.8033 148.056 25.9919 147.987 26.1684C147.917 26.3449 147.813 26.5058 147.681 26.6423C147.55 26.7786 147.392 26.8877 147.218 26.963C147.044 27.0384 146.857 27.0786 146.667 27.0814C146.389 27.0812 146.117 26.9993 145.886 26.8458C145.654 26.6923 145.472 26.4742 145.364 26.2181C145.255 25.9623 145.224 25.6802 145.275 25.407C145.326 25.1337 145.456 24.8814 145.649 24.6814C145.841 24.4814 146.089 24.3426 146.36 24.2823C146.632 24.2221 146.915 24.2428 147.174 24.3423C147.434 24.4416 147.658 24.6151 147.82 24.8412Z" fill="white"/>
<path d="M30.0179 102.273C34.8688 100.731 44.45 99.6307 49.8844 99.5058C38.6337 91.8109 38.2851 75.1149 41.5328 66.0586C43.7123 71.5591 50.934 80.5933 55.5979 85.4665C55.1833 90.1047 56.6986 98.3279 59.2672 103.348C55.5758 104.746 51.1981 106.86 48.0974 109.219C50.1523 111.81 54.5814 115.828 57.3556 118.004C54.996 120.462 51.044 124.979 49.2826 127.588C51.8879 129.537 57.55 131.775 60.4526 132.799C59.0251 135.731 56.9519 141.077 56.4161 144.765C60.5865 145.4 64.8028 145.683 69.0207 145.613C68.8005 149.147 69.2849 154.618 69.9014 157.894C74.3121 157.542 79.5191 155.73 81.8381 154.566C83.0749 159.45 86.1095 164.188 86.2416 164.441C96.8279 152.904 107.47 158.566 111.873 167.813C111.748 171.435 111.502 175.119 111.205 178.693C110.233 172.565 105.646 168.121 99.7747 168.121C96.8977 168.121 93.8777 169.226 91.2212 171.919C90.0551 169.994 89.0358 167.984 88.1716 165.905C85.4356 167.292 82.5235 168.301 79.5154 168.903C78.6677 167.575 76.2461 161.968 75.5707 159.362C72.0395 160.637 68.3988 161.585 64.6944 162.195C64.21 159.905 64.0963 154.607 64.4009 151.671C60.8342 152.471 53.6347 152.845 51.4807 152.625C51.8991 149.29 53.4879 144.13 54.8823 141.217C50.534 140.963 43.683 140.057 40.3549 139.015C42.1235 136.047 46.9451 130.535 49.2863 128.63C45.2647 127.724 36.7551 124.99 32.88 122.587C35.8891 119.787 43.0995 115.912 47.1177 114.382C41.9474 111.964 33.3205 106.25 30.0179 102.273Z" fill="white"/>
<path d="M104.031 230.275C104.923 226.58 104.42 223.446 103.903 221.138C99.9286 224.004 95.5877 224.393 91.3788 222.965C94.2153 219.189 93.8484 213.153 93.8484 213.153C90.59 214.404 84.6491 215.347 81.2512 211.524C87.4965 207.597 87.1993 201.741 90.7 194.468C94.2961 186.99 102.354 184.355 110.647 184.902C110.497 186.41 110.346 187.914 110.2 189.346C106.76 189.644 103.527 191.117 101.044 193.518C95.8079 198.732 96.45 206.621 101.044 209.663C100.509 215.704 105.415 219.443 109.888 219.681C110.787 221.16 112.526 222.951 115.957 223.402C113.766 228.029 108.644 230.613 104.031 230.275Z" fill="white"/>
<path d="M119.652 215.124C121.402 215.229 123.15 214.883 124.727 214.118C124.056 221.292 116.287 222.378 112.988 219.465C115.673 218.899 118.05 217.35 119.652 215.124Z" fill="white"/>
<path d="M118.46 212.019C117.825 213.949 114.933 217.157 110.68 217.157V217.146C106.482 217.146 103.672 214.118 103.598 210.889C106.482 211.679 109.559 211.342 112.203 209.946C112.973 210.513 113.606 211.245 114.056 212.089C115.517 212.327 117.007 212.304 118.46 212.019Z" fill="white"/>
<path d="M109.924 191.936C109.638 194.707 109.407 197.114 109.271 199.073C107.286 197.884 103.98 199.029 104.218 201.767C105.396 200.563 107.359 200.237 108.42 201.297C109.003 201.88 109.282 202.732 109.106 204.255C110.561 204.933 112.114 205.379 113.708 205.576C112.8 206.557 111.703 207.343 110.482 207.887C109.262 208.43 107.943 208.72 106.607 208.739C102.916 208.739 99.9398 206.401 99.9398 202.134C99.9398 196.564 104.626 192.593 109.924 191.936Z" fill="white"/>
<path d="M283.505 88.4423C279.879 92.1486 272.028 97.4803 266.449 99.8544C262.97 98.4968 258.13 97.5061 253.419 96.9226C267.386 91.4037 282.381 81.0409 290.216 71.2728C291.805 74.3588 298.267 88.8754 286.158 100.779C279.788 107.05 266.658 111.377 255.772 113.083C261.405 109.347 265.312 105.869 267.386 102.772C272.088 100.941 278.174 98.1481 281.172 95.6309C285.288 92.1742 283.986 89.0626 283.505 88.4423Z" fill="white"/>
<path d="M273.649 64.5542C275.858 60.7342 275.044 57.3802 273.479 56.2281C272.284 60.3672 264.516 72.0142 257.47 77.8486C257.407 74.0463 256.849 70.2684 255.816 66.6091C264.005 57.6921 273.205 42.93 275.407 37.143C277.898 39.2091 282.191 44.3537 283.251 51.7219C284.312 59.0902 281.928 66.6567 276.151 74.2158C271.712 80.0393 261.94 88.7028 253.419 94.3502C255.328 90.6807 257.191 85.7526 257.433 81.507C263.223 76.957 269.828 71.1591 273.649 64.5542Z" fill="white"/>
<path d="M256.263 115.457C268.651 115.563 284.449 110.665 293.326 105.964C295.354 122.477 284.14 127.453 280.607 128.608C276.9 129.805 270.988 130.491 264.384 130.491C260.456 130.473 256.533 130.189 252.642 129.64C256.377 128.37 260.981 126.447 263.977 124.543L263.998 124.542C267.738 124.465 272.809 124.361 276.06 123.365C280.86 121.897 280.791 118.594 280.705 117.86C276.558 119.53 269.502 121.126 264.288 121.435C261.821 119.178 259.133 117.175 256.263 115.457Z" fill="white"/>
<path d="M256.658 138.34C255.305 136.079 253.758 133.939 252.035 131.944C258.616 133.757 272.053 135.18 284.965 133.184C284.702 138.501 279.53 148.644 267.951 148.644C261.723 148.644 251.823 146.123 245.009 143.705C249.867 143.081 254.556 141.929 255.628 141.477C258.163 142.204 264.214 143.22 266.181 143.11C270.644 142.868 271.121 139.441 271.121 139.441C271.121 139.441 263.093 139.767 256.658 138.34Z" fill="white"/>
<path d="M256.563 156.199C252.695 155.662 248.93 154.536 245.402 152.86V152.867C245.06 150.403 244.523 147.97 243.798 145.591C252.04 150.181 265.484 153.41 273.458 153.517C271.863 157.322 265.674 165.259 257.833 165.259C250.586 165.259 240.209 159.678 234.398 155.531C236.247 155.909 241.112 156.016 243.416 155.697C244.216 156.232 247.723 158.46 250.66 158.827C255.998 159.502 256.563 156.199 256.563 156.199Z" fill="white"/>
<path d="M237.347 167.193C237.347 167.193 234.03 165.6 231.92 163.344C232.378 161.289 232.619 159.192 232.64 157.087C238.367 162.841 249.13 168.433 256.649 169.516C255.163 172.617 249.879 177.49 243.272 177.49C234.672 177.49 225.781 169.068 221.663 163.846C224.059 164.595 226.526 165.089 229.024 165.322C229.024 165.322 231.843 168.881 234.412 168.881C235.005 168.881 235.591 168.726 236.105 168.43C236.621 168.133 237.049 167.707 237.347 167.193Z" fill="white"/>
<path d="M205.999 171.784C205.998 171.785 205.997 171.787 205.997 171.788C208.353 176.783 207.787 184.458 200.274 184.689C200.902 179.24 198.447 174.113 195.823 171.784C198.083 172.341 201.753 175.299 201.753 175.299C202.124 176.23 202.348 177.213 202.417 178.212C203.995 178.495 204.865 177.28 204.211 174.745C204.953 173.855 205.555 172.859 205.997 171.788C205.994 171.782 205.991 171.775 205.987 171.769L205.999 171.784Z" fill="white"/>
<path d="M219.381 166.386C219.381 166.387 219.38 166.389 219.379 166.39C222.218 172.354 227.418 178.409 231.762 180.774C229.197 184.34 221.245 185.067 216.288 181.83C212.949 179.669 210.839 175.699 208.435 170.862C210.215 171.571 212.055 172.121 213.932 172.506C215.913 176.341 218.721 174.851 218.794 174.308C218.107 173.521 217.493 172.674 216.959 171.776C217.86 170.025 218.668 168.227 219.379 166.39C219.376 166.384 219.373 166.377 219.37 166.371L219.381 166.386Z" fill="white"/>
<path d="M245.498 109.215C242.4 106.863 238.021 104.75 234.328 103.344L234.316 103.329C236.895 98.3095 238.4 90.09 237.988 85.4482C242.649 80.5751 249.87 71.5444 252.051 66.0402C255.291 75.1149 254.942 91.8 243.691 99.5058C249.13 99.6307 258.707 100.731 263.57 102.295C260.267 106.265 251.64 111.978 246.47 114.404C250.491 115.934 257.702 119.809 260.707 122.609C256.833 125.012 248.337 127.753 244.3 128.653C246.628 130.557 251.463 136.068 253.233 139.037C249.905 140.076 243.054 140.982 238.705 141.239C240.1 144.152 241.688 149.297 242.109 152.647C239.951 152.867 232.753 152.493 229.186 151.693C229.494 154.614 229.377 159.927 228.892 162.217C225.188 161.607 221.547 160.659 218.016 159.384C217.341 161.986 214.923 167.593 214.071 168.925C211.063 168.323 208.151 167.314 205.415 165.927C204.55 168.001 203.531 170.006 202.366 171.927C199.713 169.23 196.689 168.129 193.812 168.129C187.941 168.129 183.354 172.572 182.382 178.7C182.081 175.126 181.839 171.442 181.714 167.82C186.106 158.577 196.766 152.911 207.345 164.448C207.485 164.195 210.519 159.458 211.749 154.574C214.068 155.737 219.282 157.535 223.685 157.902C224.302 154.625 224.797 149.154 224.566 145.62C228.788 145.687 233.007 145.4 237.181 144.761C236.647 141.074 234.572 135.731 233.144 132.795C236.044 131.771 241.709 129.533 244.312 127.585C242.54 124.972 238.586 120.459 236.24 118C239.016 115.82 243.442 111.806 245.498 109.215Z" fill="white"/>
<path d="M141.346 231.816C138.836 230.161 136.719 225.112 136.719 225.112L136.69 225.097C136.051 227.266 132.752 230.796 128.452 230.491C132.283 226.642 130.561 216.173 128.98 214.089C136.088 213.821 141.952 215.542 146.817 224.242C151.687 215.557 157.547 213.821 164.658 214.089C163.073 216.18 161.337 226.642 165.187 230.491C160.853 230.811 157.558 227.281 156.916 225.112C156.916 225.112 154.798 230.161 152.288 231.816C150.71 231.262 147.918 228.642 146.817 225.919C145.75 228.642 142.924 231.262 141.346 231.816Z" fill="white"/>
<path d="M167.509 237.298C167.497 237.297 167.484 237.297 167.472 237.296C166.76 238.351 163.38 240.122 160.226 238.681C160.713 240.458 160.886 242.63 160.519 244.128C158.73 244.209 156.943 243.935 155.261 243.321C155.07 244.937 154.178 247.572 152.366 248.923C150.931 248.923 147.47 247.249 146.817 246.219C146.164 247.249 142.704 248.923 141.269 248.923C139.456 247.572 138.565 244.937 138.374 243.321C136.692 243.935 134.904 244.209 133.115 244.128C132.763 242.63 132.925 240.447 133.409 238.681C130.213 240.142 126.819 238.333 126.125 237.298C130.987 237.088 135.002 232.884 136.469 230.286C138.088 232.965 140.968 235.056 140.968 235.056C143.023 234.514 145.83 232.275 146.817 230.557C147.804 232.275 150.611 234.514 152.666 235.056C152.666 235.056 155.551 232.965 157.165 230.286C158.629 232.889 162.627 237.067 167.472 237.296C167.475 237.292 167.477 237.288 167.48 237.284L167.509 237.298Z" fill="white"/>
<path d="M190.436 245.102C189.996 247.919 188.319 250.795 185.996 251.856L185.967 251.84C194.098 257.56 189.079 270.972 199.984 268.451C193.904 279.744 181.6 280.877 181.6 280.877C184.327 274.902 180.914 256.684 164.625 248.398C174.676 258.419 179.255 270.57 176.588 279.137C174.144 287.005 166.188 290.191 160.2 290.33C164.434 277.321 161.825 262.428 153.037 253.051C156.791 263.333 162.086 290.781 146.799 296.047C131.501 290.781 136.796 263.326 140.561 253.051C131.772 262.442 129.163 277.321 133.398 290.33C127.409 290.191 119.458 287.005 117.01 279.137C114.346 270.57 118.922 258.419 128.973 248.398C112.662 256.684 109.249 274.902 111.961 280.877C111.961 280.877 99.6609 279.744 93.5768 268.451C104.483 270.972 99.4628 257.56 107.594 251.84C105.271 250.779 103.594 247.902 103.154 245.088C104.73 245.833 106.457 246.202 108.2 246.163C113.465 246.163 120.078 243.235 126.07 240.581C127.073 241.328 128.261 241.781 129.505 241.895C123.457 243.756 111.572 250.353 110.699 254.586C110.126 257.395 111.961 258.498 111.961 258.498C114.607 254.177 121.421 247.481 130.514 244.128C130.495 245.03 130.591 245.933 130.8 246.814C130.8 246.814 132.646 247.265 136.565 246.586C133.137 249.449 124.133 259.549 123.157 267.216C122.518 272.335 126.092 272.57 126.092 272.57C126.606 264.87 130.642 256.907 137.941 248.923C137.941 248.923 139.137 250.798 140.722 251.742C142.468 251.391 144.136 250.73 145.647 249.788C144.788 259.942 144.282 273.135 144.814 277.13C145.184 279.909 146.803 281.074 146.803 281.074C146.803 281.074 148.424 279.909 148.791 277.13C149.327 273.135 148.817 259.942 147.958 249.788C149.47 250.73 151.137 251.391 152.883 251.742C154.472 250.798 155.664 248.923 155.664 248.923C162.952 256.923 166.988 264.879 167.498 272.584C167.498 272.584 171.087 272.349 170.434 267.23C169.458 259.565 160.453 249.463 157.026 246.6C160.959 247.279 162.794 246.828 162.794 246.828C163 245.949 163.095 245.047 163.077 244.142C172.17 247.502 178.984 254.193 181.63 258.512C181.63 258.512 183.475 257.428 182.892 254.6C182.019 250.351 170.133 243.772 164.086 241.912C165.33 241.795 166.518 241.342 167.52 240.598L167.654 240.657C173.611 243.285 180.168 246.179 185.391 246.179C187.133 246.216 188.861 245.849 190.436 245.102Z" fill="white"/>
<path d="M84.0033 149.902C80.5605 151.685 76.8574 152.911 73.0314 153.535C72.6644 150.269 72.3526 145.803 72.8149 142.255C69.0649 142.373 64.7972 142.428 60.6249 141.822C61.2928 138.766 63.9421 133.636 65.6633 130.788C61.9533 129.61 57.0765 127.86 54.6547 126.418C57.0172 123.294 59.6447 120.379 62.5074 117.707C59.6379 115.747 55.3593 112.14 53.5247 110.048C56.4272 108.111 60.746 106.019 64.1147 104.731C59.5058 98.0967 59.0949 87.4407 59.6342 83.1437C64.177 93.6786 75.6809 103.069 83.1188 107.77C86.513 109.913 85.2912 113.982 84.1902 115.784C74.0663 132.637 92.4981 145.198 109.143 136.847C105.514 136.887 101.844 133.797 101.338 131.041C102.49 132.036 107.22 131.493 108.614 130.201C106.471 129.078 105.961 127.941 105.851 126.877C108.504 128.506 113.862 128.73 115.443 125.977C124.239 125.739 130.092 118.87 130.738 116.884C131.391 118.98 132.422 122.682 132.789 126.319C135.174 124.7 139.247 121.042 141.372 116.081C143.782 119.551 145.604 123.394 146.766 127.456C147.927 123.394 149.75 119.551 152.16 116.081C154.285 121.042 158.358 124.7 160.743 126.319C161.091 122.682 162.141 118.994 162.794 116.884C163.444 118.87 169.282 125.739 178.089 125.977C179.67 128.73 185.031 128.506 187.68 126.877C187.57 127.941 187.06 129.078 184.917 130.201C186.327 131.493 191.042 132.039 192.198 131.041C191.688 133.797 188.022 136.887 184.389 136.847C201.048 145.198 219.48 132.637 209.341 115.784C208.255 113.982 207.019 109.913 210.413 107.77C217.858 103.069 229.362 93.6786 233.898 83.1437C234.437 87.4407 234.026 98.0967 229.417 104.731C232.786 106.012 237.105 108.111 240.007 110.048C238.17 112.14 233.893 115.747 231.024 117.707C233.902 120.373 236.542 123.284 238.916 126.407C236.514 127.842 231.637 129.599 227.909 130.777C229.645 133.625 232.279 138.754 232.947 141.811C228.775 142.417 224.515 142.362 220.757 142.244C221.234 145.804 220.911 150.277 220.544 153.535C216.723 152.909 213.026 151.683 209.587 149.902C209.052 152.353 207.577 156.896 206.252 159.326C202.575 155.832 197.76 154.397 193.247 155.161C187.611 156.115 184.077 159.751 181.626 162.867C181.626 151.491 184.224 142.78 185.325 139.778C167.506 138.953 153.147 133.907 146.795 130.663C140.436 133.907 126.081 138.953 108.266 139.778C109.396 142.78 111.965 151.491 111.965 162.867C109.521 159.751 105.983 156.115 100.347 155.161C95.83 154.397 91.0081 155.832 87.3388 159.326C86.0177 156.896 84.5388 152.361 84.0033 149.902Z" fill="white"/>
<path d="M182.936 184.887C191.229 184.34 199.287 186.975 202.883 194.454C206.384 201.726 206.087 207.583 212.332 211.498C208.934 215.329 202.993 214.379 199.735 213.127C199.735 213.127 199.379 219.164 202.204 222.94C197.988 224.393 193.647 223.993 189.673 221.127C189.156 223.435 188.653 226.569 189.545 230.264C184.95 230.631 179.813 228.029 177.626 223.387C181.057 222.936 182.8 221.134 183.699 219.667C188.169 219.428 193.075 215.689 192.539 209.649C197.129 206.621 197.768 198.732 192.539 193.503C190.056 191.103 186.824 189.63 183.383 189.331C183.237 187.9 183.086 186.414 182.936 184.887Z" fill="white"/>
<path d="M173.942 215.113C175.54 217.336 177.91 218.883 180.587 219.454C177.289 222.378 169.539 221.292 168.849 214.118C170.433 214.882 172.187 215.225 173.942 215.113Z" fill="white"/>
<path d="M181.387 209.935C184.033 211.331 187.111 211.669 189.996 210.878C189.904 214.118 187.163 217.146 182.91 217.146C178.657 217.146 175.769 213.938 175.131 212.008C176.589 212.295 178.086 212.318 179.553 212.078C179.996 211.235 180.623 210.503 181.387 209.935Z" fill="white"/>
<path d="M193.64 202.137C193.64 206.416 190.66 208.742 186.969 208.742C185.632 208.722 184.313 208.43 183.093 207.884C181.872 207.339 180.775 206.551 179.868 205.568C181.462 205.372 183.014 204.926 184.47 204.247C184.297 202.724 184.573 201.873 185.156 201.29C186.216 200.229 188.18 200.556 189.357 201.759C189.596 199.018 186.29 197.874 184.305 199.077C184.169 197.117 183.934 194.71 183.651 191.94C188.95 192.597 193.64 196.567 193.64 202.137Z" fill="white"/>
<path fill-rule="evenodd" clip-rule="evenodd" d="M138.495 152.092C138.394 152.081 138.294 152.072 138.193 152.065L138.243 152.028C138.449 152.041 138.656 152.062 138.862 152.092H138.495ZM151.112 205.44C151.05 205.752 150.851 206.038 150.557 206.281C150.612 206.015 150.641 205.734 150.641 205.44H151.112Z" fill="white"/>
<path fill-rule="evenodd" clip-rule="evenodd" d="M175.696 203.315C176.345 205.316 177.541 207.096 179.149 208.453C178.746 208.822 178.377 209.227 178.048 209.663C175.113 209.825 171.898 208.368 171.898 208.368C171.934 209.422 172.057 210.471 172.265 211.506H162.394C154.072 211.506 149.166 216.067 146.773 219.622C144.384 216.067 139.475 211.506 131.156 211.506H121.285C121.492 210.471 121.615 209.422 121.652 208.368C121.652 208.368 118.437 209.836 115.502 209.663C115.173 209.227 114.804 208.822 114.401 208.453C116.009 207.096 117.205 205.316 117.854 203.315C115.776 203.328 113.706 203.065 111.697 202.534C111.602 200.643 112.039 196.351 112.595 190.89C113.42 182.784 114.507 172.103 114.507 162.881C114.507 150.919 111.689 142.13 111.689 142.13C132.297 140.729 146.788 133.544 146.788 133.544C146.788 133.544 161.282 140.718 181.864 142.13C181.864 142.13 179.043 150.919 179.043 162.881C179.043 172.105 180.13 182.775 180.955 190.876C181.512 196.344 181.95 200.641 181.853 202.534C179.844 203.065 177.774 203.328 175.696 203.315ZM132.182 155.186C132.489 155.234 132.802 155.222 133.104 155.149C133.405 155.076 133.69 154.945 133.94 154.762L134.254 154.5C134.575 154.214 134.868 153.878 135.155 153.55C135.759 152.859 136.336 152.198 137.082 152.092C137.451 152.051 137.822 152.042 138.193 152.065L136.816 153.086C137.125 153.345 137.486 153.535 137.874 153.643C138.262 153.752 138.669 153.776 139.068 153.714C140.318 153.656 141.513 153.181 142.462 152.365C143.41 151.549 144.059 150.439 144.303 149.212C144.303 148.06 146.083 147.432 147.706 147.379C150.455 147.632 153.039 148.802 155.043 150.701C157.046 152.6 158.353 155.118 158.753 157.85H165.82C165.559 154.035 163.915 150.447 161.197 147.758C158.479 145.069 154.874 143.464 151.057 143.243H150.219C147.113 143.243 145.352 144.146 143.92 144.881C142.938 145.384 142.11 145.809 141.109 145.809H140.272C139.634 145.848 139.035 146.129 138.596 146.594L135.874 147.484C131.79 148.845 133.885 151.201 134.618 151.62C136.401 151.811 138.204 151.54 139.853 150.835L138.243 152.028C137.716 151.996 137.186 152.017 136.663 152.092C135.814 152.092 135.178 152.714 134.626 153.253C134.191 153.678 133.809 154.052 133.417 154.029C132.657 154.186 131.873 154.186 131.113 154.029C131.651 154.599 132.209 154.652 132.565 154.686C132.798 154.708 132.946 154.722 132.946 154.867C132.946 155.091 132.516 155.178 131.919 155.128C132.005 155.152 132.093 155.171 132.182 155.186ZM125.405 158.946C128.128 164.182 136.661 168.422 146.713 168.422C156.765 168.422 165.299 164.182 168.021 158.946H125.405ZM153.731 193.713C152.741 194.887 151.616 195.941 150.38 196.854H160.851C158.665 195.424 156.26 194.363 153.731 193.713ZM146.343 192.875C141.453 192.868 136.66 194.248 132.522 196.854H141.474C142.938 195.344 144.572 194.009 146.343 192.875ZM150.222 184.289V189.891C150.222 190.787 148.832 191.753 147.065 192.982C143.982 195.124 139.752 198.063 139.752 202.822C139.752 211.263 149.547 211.18 150.557 206.281C150.851 206.038 151.05 205.752 151.112 205.44H150.641C150.641 205.734 150.612 206.015 150.557 206.281C148.885 207.665 144.149 207.658 144.149 203.293C144.149 200.68 147.082 198.488 149.96 196.337C152.734 194.264 155.458 192.229 155.458 189.891C155.392 188.487 154.829 187.153 153.87 186.127C152.911 185.1 151.618 184.449 150.222 184.289ZM144.359 183.19V192.142H147.396C148.024 191.618 148.586 191.021 149.071 190.362V181.043C148.777 181.19 148.492 181.337 148.207 181.483L148.207 181.484C147.072 182.068 145.95 182.646 144.359 183.19ZM149.071 173.398V169.42H144.359V176.016C145.42 175.372 146.563 174.756 147.728 174.127L147.729 174.127C148.174 173.886 148.623 173.644 149.071 173.398ZM157.39 167.586C160.084 166.706 162.626 165.417 164.929 163.764C162.73 173.502 152.573 179.418 143.673 182.926C142.731 183.24 142.574 184.601 143.673 184.601V188.266C143.673 188.266 139.066 188.213 139.066 184.077C139.246 182.525 139.822 181.045 140.739 179.78C141.656 178.515 142.882 177.507 144.301 176.853C149.23 174.653 153.678 171.504 157.39 167.586Z" fill="white"/>
</g>
</svg>
