<svg width="668" height="768" viewBox="0 0 668 768" fill="none" xmlns="http://www.w3.org/2000/svg">
<g opacity="0.1">
<path d="M705.616 51.3637L718.523 50.0391L717.255 63.3126H727.556L726.274 50.0391L739.195 51.3072V40.697L726.287 42.0215L727.569 28.7621H717.255L718.523 42.0779L705.616 40.7533V51.3637Z" fill="white"/>
<path d="M732.079 110.996C732.079 124.931 727.739 152.902 722.399 152.902C717.044 152.902 712.717 124.931 712.717 110.996C712.717 103.387 717.057 98.3987 722.399 98.3987C727.739 98.3987 732.079 103.387 732.079 110.996Z" fill="white"/>
<path d="M777.902 139.995C777.902 147.913 774.027 164.315 770.589 175.108H674.517C671.094 164.315 667.219 147.913 667.219 139.995C667.219 125.523 674.997 109.503 703.08 104.57C703.08 122.057 711.563 164.907 721.821 164.907H722.976C733.262 164.907 741.717 122.381 741.717 104.57C769.884 109.488 777.902 125.509 777.902 139.995Z" fill="white"/>
<path d="M726.877 88.5374C725.54 89.3863 723.981 89.8167 722.399 89.7747C721.366 89.7623 720.347 89.5461 719.399 89.1387C718.451 88.7315 717.592 88.1413 716.872 87.4017C716.152 86.6623 715.585 85.7881 715.204 84.8293C714.822 83.8703 714.633 82.8457 714.648 81.8138C714.649 80.2303 715.121 78.683 716.006 77.3696C716.891 76.0561 718.147 75.0364 719.613 74.4405C721.081 73.8447 722.693 73.6998 724.242 74.0245C725.792 74.3492 727.209 75.1287 728.314 76.2634C729.419 77.398 730.16 78.8363 730.443 80.3943C730.725 81.9522 730.538 83.5592 729.903 85.0098C729.268 86.4603 728.214 87.6885 726.877 88.5374Z" fill="white"/>
<path d="M767.249 184.113C764.713 191.158 762.726 196.048 762.726 196.048H682.381C682.381 196.048 680.394 191.158 677.872 184.113H767.249Z" fill="white"/>
<path d="M909.16 211.379C897.31 223.088 896.211 247.141 896.211 247.141C896.211 247.141 882.033 221.622 893.729 194.54C905.427 167.458 929.334 146.645 905.901 130.822C920.207 130.948 935.719 127.651 942.541 137.359C944.649 140.39 946.623 147.9 939.478 158.566C930.405 172.136 907.758 203.685 926.324 224.694C912.75 222.186 909.16 211.379 909.16 211.379Z" fill="white"/>
<path d="M927.155 123.833C907.651 123.199 894.515 129.412 869.999 107.05H870.041C841.099 80.6443 827.36 85.1534 827.36 85.1534C842.127 75.5293 862.728 71.1753 869.802 76.8116C876.876 82.4478 886.443 97.2851 902.507 107.91C925.181 122.875 948.471 118.929 949.516 132.879H948.882C948.882 132.879 946.649 124.467 927.155 123.833Z" fill="white"/>
<path d="M826.205 147.477C817.046 180.435 794.036 196.188 770.433 196.188L771.899 191.708C785.624 189.989 804.984 170.402 808.606 134.147C812.256 97.6378 821.203 92.9316 821.203 92.9316C830.446 86.5484 853.668 103.458 858.74 109.094C858.74 109.094 835.364 114.519 826.205 147.477Z" fill="white"/>
<path d="M580.574 130.244H613.294C619.112 166.993 640.686 192.088 673.996 192.088L675.405 195.907C632.64 195.907 591.537 181.252 580.574 130.244Z" fill="white"/>
<path d="M410.076 63.2562H399.762L401.058 50.0391L388.151 51.3637V40.7533L401.058 42.0779L399.762 28.8184H410.091L408.808 42.0779L421.715 40.7533V51.3637L408.808 50.0391L410.076 63.2562Z" fill="white"/>
<path d="M414.613 110.996C414.613 124.931 410.274 152.902 404.932 152.902C399.592 152.902 395.252 124.931 395.252 110.996C395.252 103.387 399.592 98.3987 404.932 98.3987C410.274 98.3987 414.613 103.387 414.613 110.996Z" fill="white"/>
<path d="M460.141 139.995C460.141 147.913 456.265 164.315 452.841 175.108H356.771C353.333 164.315 349.458 147.913 349.458 139.995C349.458 125.509 357.461 109.488 385.642 104.57C385.642 122.381 394.125 164.907 404.383 164.907H405.539C415.825 164.907 424.28 122.057 424.28 104.57C452.363 109.503 460.141 125.523 460.141 139.995Z" fill="white"/>
<path d="M409.412 88.5374C408.075 89.3863 406.516 89.8167 404.932 89.7747C402.85 89.7453 400.864 88.8904 399.411 87.3977C397.958 85.905 397.157 83.8968 397.183 81.8138C397.184 80.2303 397.656 78.683 398.541 77.3696C399.425 76.0561 400.682 75.0364 402.149 74.4405C403.615 73.8447 405.227 73.6998 406.777 74.0245C408.327 74.3492 409.744 75.1287 410.849 76.2634C411.953 77.398 412.695 78.8363 412.978 80.3943C413.261 81.9522 413.072 83.5592 412.437 85.0098C411.802 86.4603 410.749 87.6885 409.412 88.5374Z" fill="white"/>
<path d="M444.909 196.048H364.591C364.591 196.048 362.618 191.158 360.082 184.113H449.418C446.896 191.158 444.909 196.048 444.909 196.048Z" fill="white"/>
<path d="M231.08 247.141C231.08 247.141 229.982 223.088 218.132 211.379C218.132 211.379 214.538 222.186 200.983 224.694C219.541 203.657 196.896 172.136 187.822 158.566C180.678 147.9 182.651 140.39 184.765 137.359C191.57 127.651 207.084 130.948 221.4 130.822C197.967 146.632 221.865 167.429 233.575 194.54C245.284 221.651 231.08 247.141 231.08 247.141Z" fill="white"/>
<path d="M257.276 107.05C232.758 129.469 219.625 123.199 200.124 123.833C180.636 124.48 178.396 132.879 178.396 132.879H177.762C178.804 118.929 202.097 122.875 224.782 107.91C240.874 97.2851 250.441 82.3634 257.515 76.8116C264.589 71.2598 285.19 75.5293 299.957 85.1534C299.957 85.1534 286.218 80.6443 257.276 107.05Z" fill="white"/>
<path d="M301.069 147.477C291.925 114.519 268.534 109.094 268.534 109.094H268.548C273.621 103.429 296.843 86.5342 306.128 92.9316C306.128 92.9316 315.076 97.6378 318.725 134.147C322.347 170.402 341.707 189.989 355.432 191.708L356.841 196.188C333.239 196.188 310.215 180.435 301.069 147.477Z" fill="white"/>
<path d="M451.982 195.907L453.391 192.088H453.405C486.645 192.088 508.219 166.993 514.038 130.244H546.813C535.851 181.252 494.747 195.907 451.982 195.907Z" fill="white"/>
<path d="M100.572 394.643C108.534 406.535 123.554 419.894 145.169 434.238C103.362 427.672 52.9593 411.073 28.4836 386.977C-17.9877 341.31 6.79794 285.525 12.8993 273.674C42.9831 311.184 100.572 351.032 154.202 372.168C136.109 374.423 117.537 378.228 104.165 383.441C82.7473 374.324 52.593 353.836 38.6713 339.619C36.8394 342 31.8232 353.949 47.633 367.223C59.1452 376.889 82.5077 387.598 100.572 394.643Z" fill="white"/>
<path d="M138.787 312.973C139.73 329.29 146.875 348.2 154.202 362.291C121.482 340.605 83.959 307.309 66.9092 284.974C44.7444 255.948 35.6136 226.709 39.6576 198.599C43.7017 170.487 60.202 150.549 69.7837 142.616C78.2946 164.837 113.55 221.538 145 255.765C141.028 269.812 138.892 284.315 138.645 298.91C111.591 276.492 81.7468 231.852 77.1673 215.902C71.1646 220.326 68.0646 233.205 76.5191 247.874C91.1875 273.279 116.565 295.501 138.787 312.973Z" fill="white"/>
<path d="M157.16 497.76C142.222 499.868 127.157 500.96 112.07 501.029C86.7068 501.029 63.9924 498.394 49.7326 493.744C36.1632 489.362 -6.85603 470.254 0.936167 406.846C35.0781 424.896 95.7392 443.708 143.253 443.299C132.237 449.897 121.913 457.587 112.436 466.253C92.4136 465.069 65.331 458.94 49.3944 452.528C49.0703 455.417 48.8026 468.028 67.2333 473.664C79.8164 477.497 99.2613 477.906 113.635 478.187C125.132 485.5 142.816 492.884 157.16 497.76Z" fill="white"/>
<path d="M145.719 543.202C149.876 544.935 167.841 549.36 186.511 551.755V551.77C160.345 561.055 122.314 570.736 98.4022 570.665C53.9315 570.665 34.0777 531.719 33.0772 511.3C82.6486 519.022 134.249 513.555 159.514 506.594C152.901 514.256 146.961 522.473 141.759 531.155C117.073 536.693 86.2276 535.382 86.2276 535.382C86.2276 535.382 88.0594 548.543 105.194 549.473C112.747 549.895 135.997 546.02 145.719 543.202Z" fill="white"/>
<path d="M164.798 609.908C176.043 608.485 189.555 599.946 192.613 597.889V597.902C201.532 599.128 220.146 598.72 227.249 597.311C204.886 613.234 165.08 634.665 137.251 634.665C107.139 634.665 83.3813 604.131 77.2519 589.575C107.871 589.167 159.499 576.766 191.147 559.139C188.362 568.247 186.307 577.562 185.004 586.997C171.449 593.434 156.989 597.758 142.126 599.819C142.126 599.819 144.296 612.501 164.798 609.908Z" fill="white"/>
<path d="M248.032 634.905C257.601 633.987 267.047 632.064 276.214 629.17C260.348 649.151 226.191 681.489 193.29 681.56C167.912 681.56 147.565 662.847 141.928 650.941C170.801 646.784 212.129 625.309 234.125 603.215C234.214 611.324 235.159 619.4 236.942 627.31C228.77 635.976 216.088 642.092 216.088 642.092C217.235 644.064 218.88 645.701 220.859 646.838C222.837 647.976 225.079 648.574 227.361 648.573C237.253 648.573 248.032 634.905 248.032 634.905Z" fill="white"/>
<path d="M375.483 659.663C375.414 659.68 375.344 659.698 375.274 659.716C365.251 668.72 355.922 688.321 358.391 709.219C329.463 708.388 327.321 678.84 336.409 659.663C338.106 663.78 340.42 667.614 343.272 671.034C340.763 680.77 344.103 685.435 350.162 684.35C350.428 680.51 351.289 676.737 352.712 673.162C352.712 673.162 366.593 661.985 375.274 659.716C375.32 659.675 375.367 659.633 375.413 659.592L375.483 659.663Z" fill="white"/>
<path d="M287.345 669.4C287.697 671.485 298.392 677.206 306.016 662.48L305.945 662.368C313.139 660.944 320.193 658.889 327.025 656.225C317.796 674.796 309.693 689.986 296.885 698.342C277.848 710.77 247.314 707.98 237.45 694.284C254.19 685.195 274.198 661.903 285.077 638.977C287.815 646.036 290.924 652.946 294.391 659.676C292.331 663.118 289.974 666.371 287.345 669.4Z" fill="white"/>
<path d="M520.111 458.897C517.786 445.99 511.079 431.336 503.54 419.217C497.805 442.848 475.697 465.802 452.87 467.521C467.722 448.244 468.342 414.92 467.284 403.831C477.162 388.457 483.672 374.578 486.786 365.151C493.451 371.788 503.864 384.681 513.179 399.575C513.577 385.786 514.905 372.04 517.152 358.43C526.748 367.109 544.122 373.38 553.407 375.818C557.755 385.135 561.19 394.851 563.666 404.831C566.156 394.835 569.61 385.105 573.98 375.775C583.266 373.338 600.639 367.067 610.236 358.387C612.483 371.998 613.811 385.744 614.209 399.532C623.523 384.639 633.88 371.746 640.601 365.109C643.701 374.536 650.24 388.415 660.103 403.789C659.018 414.877 659.666 448.202 674.517 467.478C651.635 465.717 629.526 442.806 623.791 419.217C616.252 431.336 609.546 445.92 607.22 458.897C599.992 450.147 592.354 434.957 587.183 416.794C580.842 424.713 569.767 440.861 563.666 454.191C557.564 440.861 546.489 424.713 540.148 416.794C534.976 434.943 527.339 450.147 520.111 458.897Z" fill="white"/>
<path d="M632.26 318.187C652.226 320.131 666.387 313.325 675.363 301.362V301.404C677.801 308.323 678.533 315.974 677.238 325.866C669.375 343 665.527 374.817 667.965 392.6C655.397 375.071 649.816 355.358 646.224 339.591C638.058 347.984 630.358 356.819 623.157 366.053C622.03 356.838 620.043 345.368 618.31 337.111C608.925 346.072 589.452 357.331 576.277 361.318C585.14 323.908 600.315 300.066 600.315 300.066C613.194 301.362 633.922 298.22 643.236 289.047C641.574 302.602 632.26 318.187 632.26 318.187Z" fill="white"/>
<path d="M450.094 325.866C448.798 315.932 449.516 308.281 451.954 301.362V301.404C460.944 313.367 475.091 320.173 495.086 318.229C495.086 318.229 485.757 302.645 484.095 289.09C493.423 298.263 514.15 301.404 527.029 300.109C527.029 300.109 542.191 323.95 551.054 361.318C537.88 357.331 518.406 346.072 509.021 337.111C507.288 345.368 505.301 356.795 504.174 366.053C496.973 356.819 489.272 347.984 481.107 339.591C477.5 355.358 471.921 375.071 459.366 392.6C461.789 374.817 457.984 343 450.094 325.866Z" fill="white"/>
<path d="M679.618 205.912C636.768 205.912 607.756 196.936 589.437 187.904V187.946C592.538 200.134 605.459 214.027 610.56 216.789C603.768 220.396 593.312 223.285 586.267 221.679C591.297 231.049 608.869 237.7 616.957 238.264C611.701 244.351 602.951 250.762 595.75 252.524C598.991 255.821 614.688 258.54 626.116 255.891C617.929 268.235 601.697 282.143 589.227 281.663C603.867 292.865 631.175 289.047 653.311 269.644C655.397 282.17 652.733 300.813 650.493 305.533C659.891 303.433 674.307 287.018 679.618 278.254C687.453 295.303 687.326 302.447 687.326 302.447C704.207 279.522 746.93 266.967 762.599 214.027C764.079 208.941 762.388 206.122 757.851 206.122L679.618 205.912Z" fill="white"/>
<path d="M838.309 315.707C838.859 315.354 839.647 315.467 838.957 316.383V316.425C835.026 321.653 823.909 337.533 799.545 323.274C775.183 309.014 762.613 301.263 762.613 301.263C764.909 306.352 765.235 312.111 763.53 317.426C763.36 317.961 762.796 317.947 762.571 317.426C760.148 311.719 738.983 295.205 711.999 292.908C721.891 284.256 732.741 276.535 732.741 276.535C744.281 278.338 766.615 286.313 795.529 305.11C824.444 323.908 837.759 316.059 838.309 315.707Z" fill="white"/>
<path d="M823.063 288.878C824.458 287.173 847.003 262.585 830.7 240.123V240.166C814.397 217.719 772.843 219.128 772.871 219.143C768.024 237.235 753.074 259.625 740.463 269.644C739.096 271.053 740.039 271.025 741.449 270.63C809.662 252.397 821.527 286.849 821.386 288.188C821.245 289.526 822.09 290.075 823.063 288.878Z" fill="white"/>
<path d="M327.828 323.344C303.409 337.561 292.305 321.653 288.374 316.425C287.684 315.51 288.529 315.425 289.05 315.778C289.572 316.129 302.888 323.992 331.844 305.181C360.8 286.369 383.092 278.464 394.618 276.605C394.618 276.605 405.51 284.326 415.375 292.979C388.39 295.275 367.226 311.789 364.803 317.497C364.577 317.99 363.999 318.004 363.83 317.497C362.128 312.18 362.46 306.42 364.76 301.334C364.76 301.334 352.248 309.126 327.828 323.344Z" fill="white"/>
<path d="M537.78 187.946C519.463 196.978 490.521 205.954 447.6 205.954L369.283 206.165C364.746 206.165 363.041 209.053 364.535 214.07C380.204 267.009 422.885 279.564 439.793 302.489C439.793 302.489 439.681 295.345 447.501 278.296C452.827 287.06 467.257 303.476 476.64 305.576C474.414 300.855 471.737 282.213 473.823 269.686C495.959 289.09 523.254 292.908 537.907 281.706C525.437 282.185 509.19 268.277 501.018 255.933C512.431 258.583 528.143 255.863 531.384 252.566C524.169 250.805 515.432 244.393 510.163 238.306C518.321 237.742 535.836 231.091 540.867 221.721C533.822 223.327 523.366 220.439 516.56 216.831C521.745 214.027 534.681 200.134 537.78 187.946Z" fill="white"/>
<path d="M386.883 269.63C374.201 259.612 359.307 237.179 354.474 219.128C354.474 219.128 312.948 217.649 296.631 240.11C280.314 262.57 302.859 287.159 304.268 288.864C305.241 290.061 306.058 289.273 305.931 288.173C305.804 287.074 317.669 252.439 385.91 270.616C387.361 271.039 388.292 271.039 386.883 269.63Z" fill="white"/>
<path d="M585.689 -7.08492C582.914 26.0989 572.12 61.1709 563.666 61.1709C555.394 61.1709 544.065 23.8725 541.628 -7.08492C541.628 -13.8062 550.04 -24.0784 563.666 -24.3461C577.235 -24.0784 585.689 -13.8062 585.689 -7.08492Z" fill="white"/>
<path d="M646.618 27.0148C646.618 54.4073 632.626 81.532 629.807 85.0406H497.495C494.677 81.532 480.685 54.4073 480.685 27.0148C480.685 2.36999 511.614 -11.1994 530.003 -11.8194C532.103 23.7034 546.743 78.6575 563.651 78.6575C581.49 78.6575 595.172 23.4075 597.3 -11.8194C615.703 -11.1994 646.618 2.36999 646.618 27.0148Z" fill="white"/>
<path d="M622.258 95.3892C622.879 96.2572 623.231 97.2895 623.27 98.3567C623.296 99.8231 622.74 101.239 621.723 102.297C620.706 103.353 619.311 103.963 617.844 103.993C616.776 103.994 615.732 103.683 614.84 103.095C613.949 102.507 613.25 101.67 612.831 100.687C612.412 99.7061 612.292 98.6219 612.484 97.5717C612.677 96.5215 613.175 95.5508 613.915 94.7819C614.655 94.0121 615.607 93.4781 616.649 93.2451C617.691 93.0129 618.779 93.0914 619.775 93.4728C620.773 93.8541 621.636 94.5203 622.258 95.3892Z" fill="white"/>
<path d="M513.012 95.3901C513.633 96.2581 513.985 97.2895 514.023 98.3567C514.037 99.0836 513.906 99.8061 513.64 100.483C513.374 101.16 512.977 101.778 512.472 102.301C511.967 102.824 511.364 103.243 510.697 103.534C510.03 103.824 509.312 103.98 508.585 103.993C507.518 103.992 506.474 103.677 505.584 103.088C504.695 102.499 503.998 101.661 503.581 100.678C503.164 99.6953 503.046 98.6121 503.24 97.5628C503.435 96.5135 503.933 95.5446 504.674 94.7766C505.415 94.0086 506.366 93.4754 507.408 93.2441C508.45 93.0129 509.537 93.0923 510.533 93.4745C511.53 93.8559 512.392 94.5221 513.012 95.3901Z" fill="white"/>
<path d="M513.713 120C511.951 120.032 510.196 119.755 508.529 119.183C506.939 118.618 505.539 117.618 504.488 116.298C503.437 114.979 502.777 113.391 502.582 111.715H624.735C624.54 113.391 623.88 114.979 622.829 116.298C621.778 117.618 620.379 118.618 618.788 119.183C617.122 119.757 615.366 120.034 613.603 120H513.713Z" fill="white"/>
<path d="M540.194 95.3901C540.815 96.2581 541.166 97.2895 541.205 98.3567C541.218 99.0836 541.087 99.8061 540.821 100.483C540.555 101.16 540.158 101.778 539.653 102.301C539.148 102.824 538.545 103.243 537.878 103.534C537.211 103.824 536.493 103.98 535.766 103.993C534.699 103.992 533.656 103.677 532.765 103.088C531.876 102.499 531.179 101.661 530.762 100.678C530.346 99.6953 530.227 98.6121 530.421 97.5628C530.616 96.5135 531.114 95.5446 531.855 94.7766C532.596 94.0086 533.547 93.4754 534.589 93.2441C535.631 93.0129 536.718 93.0923 537.714 93.4745C538.711 93.8559 539.574 94.5221 540.194 95.3901Z" fill="white"/>
<path d="M570.584 -69.7325H556.733L558.226 -86.6415L543.164 -84.9646V-98.2522L558.226 -96.6456L556.733 -113.414H570.584L569.091 -96.6456L584.153 -98.2522V-85.021L569.091 -86.6415L570.584 -69.7325Z" fill="white"/>
<path d="M555.367 -41.8191C554.199 -43.4374 553.532 -45.3627 553.449 -47.3564V-47.4268C553.427 -48.79 553.674 -50.1441 554.175 -51.4119C554.677 -52.6796 555.424 -53.836 556.372 -54.8149C557.322 -55.7938 558.454 -56.5761 559.705 -57.117C560.956 -57.6578 562.302 -57.9466 563.666 -57.9667C565.661 -57.9595 567.61 -57.3665 569.271 -56.2613C570.933 -55.1561 572.233 -53.5873 573.01 -51.7498C573.788 -49.9122 574.009 -47.8868 573.646 -45.9247C573.283 -43.9627 572.351 -42.1505 570.968 -40.7132C569.584 -39.2758 567.808 -38.2764 565.862 -37.8392C563.914 -37.4018 561.882 -37.546 560.016 -38.2534C558.15 -38.961 556.534 -40.2009 555.367 -41.8191Z" fill="white"/>
<path d="M595.063 95.3901C595.684 96.2581 596.036 97.2895 596.074 98.3567C596.089 99.0845 595.96 99.8079 595.695 100.486C595.429 101.163 595.032 101.781 594.527 102.306C594.021 102.829 593.417 103.248 592.75 103.537C592.082 103.827 591.363 103.982 590.635 103.993C589.568 103.992 588.525 103.677 587.635 103.088C586.746 102.499 586.048 101.661 585.632 100.678C585.215 99.6953 585.096 98.6121 585.291 97.5628C585.485 96.5135 585.984 95.5446 586.725 94.7766C587.466 94.0086 588.417 93.4754 589.459 93.2441C590.5 93.0129 591.587 93.0923 592.583 93.4745C593.58 93.8559 594.443 94.5221 595.063 95.3901Z" fill="white"/>
<path d="M567.629 95.3901C568.249 96.2581 568.6 97.2895 568.64 98.3567H568.654C568.667 99.0845 568.536 99.8088 568.269 100.487C568.001 101.164 567.603 101.782 567.097 102.307C566.59 102.83 565.986 103.249 565.317 103.538C564.648 103.827 563.929 103.982 563.2 103.993C562.133 103.992 561.09 103.677 560.201 103.088C559.31 102.499 558.614 101.661 558.198 100.678C557.781 99.6953 557.662 98.6121 557.856 97.5628C558.05 96.5135 558.549 95.5446 559.291 94.7766C560.031 94.0086 560.982 93.4754 562.023 93.2441C563.065 93.0129 564.152 93.0923 565.149 93.4745C566.146 93.8559 567.008 94.5221 567.629 95.3901Z" fill="white"/>
<path d="M115.269 392.727C133.896 386.809 170.688 382.582 191.556 382.102C148.354 352.554 147.015 288.441 159.486 253.665C167.855 274.787 195.586 309.478 213.496 328.191C211.904 346.002 217.723 377.579 227.586 396.855C213.411 402.224 196.601 410.341 184.694 419.4C192.585 429.349 209.593 444.778 220.245 453.134C211.185 462.574 196.009 479.921 189.245 489.939C199.25 497.421 220.992 506.016 232.138 509.948C226.656 521.207 218.695 541.736 216.638 555.898C232.652 558.334 248.843 559.424 265.039 559.153C264.194 572.723 266.054 593.732 268.421 606.315C285.358 604.963 305.353 598.001 314.258 593.535C319.008 612.289 330.661 630.481 331.168 631.453C371.819 587.151 412.683 608.894 429.592 644.402C429.113 658.31 428.169 672.457 427.028 686.181C423.293 662.65 405.68 645.586 383.135 645.586C372.087 645.586 360.49 649.827 350.289 660.17C345.812 652.776 341.898 645.057 338.579 637.075C328.073 642.402 316.89 646.275 305.339 648.588C302.084 643.487 292.785 621.956 290.191 611.951C276.632 616.847 262.652 620.488 248.427 622.829C246.566 614.037 246.13 593.69 247.3 582.417C233.603 585.488 205.957 586.926 197.686 586.081C199.292 573.272 205.394 553.46 210.748 542.272C194.05 541.3 167.743 537.82 154.963 533.818C161.754 522.419 180.269 501.254 189.259 493.941C173.816 490.461 141.14 479.963 126.259 470.733C137.814 459.982 165.502 445.103 180.932 439.226C161.078 429.941 127.951 408.001 115.269 392.727Z" fill="white"/>
<path d="M399.48 884.256C402.904 870.066 400.974 858.033 398.987 849.17C383.726 860.174 367.057 861.668 350.895 856.187C361.787 841.687 360.378 818.508 360.378 818.508C347.866 823.313 325.052 826.934 312.004 812.252C335.987 797.174 334.845 774.685 348.288 746.758C362.097 718.041 393.04 707.924 424.885 710.023C424.307 715.814 423.73 721.591 423.166 727.087C409.957 728.235 397.543 733.891 388.01 743.108C367.902 763.131 370.368 793.426 388.01 805.108C385.953 828.301 404.792 842.659 421.969 843.576C425.421 849.254 432.1 856.131 445.275 857.863C436.862 875.632 417.192 885.552 399.48 884.256Z" fill="white"/>
<path d="M459.464 826.074C466.184 826.48 472.894 825.15 478.952 822.214C476.373 849.762 446.543 853.932 433.875 842.744C444.184 840.571 453.31 834.626 459.464 826.074Z" fill="white"/>
<path d="M454.885 814.154C452.447 821.565 441.344 833.881 425.012 833.881V833.839C408.892 833.839 398.099 822.214 397.817 809.814C408.891 812.848 420.705 811.553 430.86 806.193C433.816 808.37 436.248 811.181 437.976 814.421C443.583 815.336 449.309 815.245 454.885 814.154Z" fill="white"/>
<path d="M422.11 737.035C421.01 747.674 420.123 756.917 419.601 764.441C411.978 759.876 399.282 764.273 400.199 774.784C404.722 770.163 412.26 768.908 416.332 772.98C418.573 775.221 419.643 778.49 418.967 784.338C424.556 786.943 430.518 788.655 436.637 789.41C433.153 793.177 428.939 796.195 424.252 798.284C419.565 800.372 414.502 801.486 409.372 801.557C395.196 801.557 383.769 792.581 383.769 776.194C383.769 754.804 401.762 739.557 422.11 737.035Z" fill="white"/>
<path d="M1088.66 339.619C1074.74 353.851 1044.59 374.324 1023.16 383.441C1009.8 378.228 991.22 374.423 973.127 372.183C1026.76 350.99 1084.34 311.197 1114.43 273.688C1120.53 285.538 1145.35 341.281 1098.85 386.992C1074.39 411.073 1023.97 427.686 982.165 434.238C1003.79 419.894 1018.8 406.535 1026.76 394.643C1044.82 387.612 1068.19 376.889 1079.7 367.223C1095.51 353.949 1090.51 342 1088.66 339.619Z" fill="white"/>
<path d="M1050.81 247.888C1059.3 233.219 1056.17 220.34 1050.16 215.916C1045.57 231.81 1015.74 276.535 988.684 298.939C988.443 284.338 986.3 269.831 982.335 255.779C1013.78 221.538 1049.11 164.851 1057.56 142.629C1067.13 150.563 1083.61 170.318 1087.68 198.612C1091.76 226.906 1082.6 255.962 1060.42 284.989C1043.37 307.351 1005.85 340.619 973.127 362.305C980.459 348.214 987.612 329.29 988.541 312.987C1010.78 295.515 1036.14 273.251 1050.81 247.888Z" fill="white"/>
<path d="M984.049 443.355C1031.62 443.764 1092.28 424.952 1126.37 406.903C1134.16 470.311 1091.1 489.418 1077.53 493.856C1063.3 498.45 1040.6 501.085 1015.23 501.085C1000.15 501.016 985.085 499.924 970.145 497.816C984.487 492.941 1002.17 485.557 1013.67 478.243L1013.75 478.242C1028.11 477.946 1047.58 477.546 1060.07 473.72C1078.5 468.084 1078.24 455.403 1077.91 452.584C1061.98 458.996 1034.89 465.125 1014.87 466.309C1005.39 457.643 995.069 449.953 984.049 443.355Z" fill="white"/>
<path d="M985.567 531.225C980.37 522.544 974.431 514.326 967.814 506.665C993.086 513.626 1044.69 519.093 1094.27 511.427C1093.26 531.845 1073.4 570.792 1028.93 570.792C1005.02 570.792 967.001 561.112 940.836 551.826C959.491 549.431 977.494 545.006 981.611 543.273C991.345 546.062 1014.58 549.966 1022.14 549.543C1039.27 548.613 1041.1 535.452 1041.1 535.452C1041.1 535.452 1010.28 536.706 985.567 531.225Z" fill="white"/>
<path d="M985.201 599.805C970.35 597.743 955.892 593.419 942.345 586.982V587.01C941.032 577.548 938.969 568.205 936.183 559.068C967.832 576.696 1019.46 589.096 1050.08 589.504C1043.95 604.117 1020.19 634.595 990.077 634.595C962.251 634.595 922.404 613.163 900.087 597.241C907.187 598.692 925.869 599.101 934.719 597.875C937.791 599.932 951.257 608.485 962.536 609.894C983.031 612.486 985.201 599.805 985.201 599.805Z" fill="white"/>
<path d="M911.411 642.021C911.411 642.021 898.676 635.906 890.572 627.24C892.331 619.35 893.255 611.298 893.336 603.215C915.331 625.309 956.66 646.784 985.531 650.941C979.825 662.847 959.536 681.56 934.165 681.56C901.141 681.56 866.998 649.222 851.188 629.17C860.385 632.044 869.859 633.943 879.454 634.835C879.454 634.835 890.275 648.503 900.141 648.503C902.418 648.505 904.668 647.907 906.642 646.769C908.624 645.633 910.268 643.995 911.411 642.021Z" fill="white"/>
<path d="M791.035 659.649C791.032 659.655 791.03 659.661 791.027 659.667C800.075 678.847 797.901 708.32 769.053 709.206C771.462 688.281 762.035 668.596 751.96 659.649C760.641 661.79 774.732 673.148 774.732 673.148C776.155 676.722 777.016 680.496 777.282 684.335C783.34 685.42 786.68 680.756 784.172 671.019C787.02 667.605 789.331 663.777 791.027 659.667C791.015 659.642 791.004 659.617 790.992 659.592L791.035 659.649Z" fill="white"/>
<path d="M842.424 638.921C842.421 638.927 842.419 638.933 842.416 638.939C853.317 661.841 873.286 685.092 889.966 694.171C880.116 707.867 849.581 710.657 830.545 698.229C817.723 689.929 809.62 674.684 800.391 656.111C807.227 658.833 814.291 660.946 821.498 662.424C829.108 677.149 839.888 671.429 840.169 669.343C837.531 666.322 835.172 663.068 833.124 659.62C836.583 652.895 839.685 645.992 842.416 638.939C842.405 638.914 842.393 638.889 842.381 638.864L842.424 638.921Z" fill="white"/>
<path d="M942.711 419.387C930.816 410.354 914 402.238 899.819 396.842L899.775 396.785C909.678 377.509 915.456 345.946 913.875 328.121C931.772 309.408 959.5 274.731 967.876 253.595C980.316 288.441 978.977 352.512 935.772 382.102C956.66 382.582 993.435 386.809 1012.11 392.811C999.427 408.058 966.296 429.997 946.444 439.311C961.884 445.186 989.577 460.067 1001.11 470.818C986.237 480.047 953.615 490.573 938.112 494.026C947.051 501.339 965.617 522.503 972.413 533.902C959.634 537.89 933.326 541.37 916.626 542.357C921.984 553.545 928.083 573.3 929.7 586.165C921.412 587.01 893.773 585.573 880.074 582.501C881.258 593.718 880.807 614.121 878.947 622.914C864.722 620.573 850.741 616.931 837.182 612.036C834.589 622.026 825.304 643.557 822.034 648.672C810.484 646.36 799.3 642.487 788.794 637.16C785.473 645.122 781.559 652.822 777.085 660.198C766.897 649.841 755.286 645.614 744.239 645.614C721.694 645.614 704.08 662.678 700.346 686.21C699.191 672.485 698.26 658.338 697.782 644.431C714.648 608.936 755.582 587.18 796.206 631.481C796.741 630.508 808.394 612.318 813.115 593.563C822.02 598.029 842.043 604.934 858.952 606.343C861.319 593.76 863.221 572.75 862.334 559.181C878.546 559.44 894.747 558.337 910.777 555.884C908.723 541.723 900.757 521.207 895.274 509.934C906.41 506.002 928.164 497.407 938.157 489.925C931.352 479.893 916.17 462.561 907.16 453.12C917.823 444.75 934.817 429.334 942.711 419.387Z" fill="white"/>
<path d="M542.769 890.174C533.13 883.819 525 864.43 525 864.43L524.888 864.373C522.436 872.701 509.768 886.256 493.254 885.087C507.965 870.306 501.356 830.104 495.283 822.101C522.577 821.072 545.094 827.681 563.778 861.091C582.477 827.737 604.98 821.072 632.287 822.101C626.2 830.133 619.536 870.306 634.317 885.087C617.676 886.313 605.022 872.758 602.556 864.43C602.556 864.43 594.426 883.819 584.787 890.174C578.728 888.046 568.006 877.985 563.778 867.53C559.678 877.985 548.828 888.046 542.769 890.174Z" fill="white"/>
<path d="M643.236 911.223C643.188 911.221 643.14 911.219 643.092 911.217C640.359 915.268 627.38 922.07 615.266 916.537C617.14 923.359 617.802 931.7 616.393 937.451C609.524 937.764 602.66 936.71 596.201 934.352C595.469 940.559 592.044 950.677 585.084 955.865C579.574 955.865 566.287 949.436 563.778 945.479C561.271 949.436 547.982 955.865 542.473 955.865C535.512 950.677 532.088 940.559 531.355 934.352C524.896 936.71 518.033 937.764 511.163 937.451C509.811 931.7 510.431 923.315 512.291 916.537C500.017 922.145 486.983 915.197 484.32 911.223C502.991 910.419 518.406 894.273 524.042 884.298C530.257 894.586 541.318 902.614 541.318 902.614C549.208 900.534 559.988 891.935 563.778 885.341C567.569 891.935 578.348 900.534 586.239 902.614C586.239 902.614 597.315 894.586 603.514 884.298C609.136 894.292 624.487 910.337 643.092 911.217C643.102 911.201 643.113 911.185 643.123 911.17L643.236 911.223Z" fill="white"/>
<path d="M731.275 941.193C729.585 952.007 723.145 963.054 714.226 967.126L714.113 967.064C745.338 989.032 726.062 1040.53 767.939 1030.85C744.591 1074.22 697.345 1078.57 697.345 1078.57C707.814 1055.62 694.71 985.666 632.16 953.847C670.755 992.327 688.341 1038.99 678.097 1071.89C668.712 1102.1 638.163 1114.33 615.167 1114.87C631.428 1064.91 621.409 1007.72 587.662 971.716C602.077 1011.2 622.41 1116.6 563.708 1136.82C504.964 1116.6 525.296 1011.17 539.753 971.716C506.006 1007.78 495.988 1064.91 512.248 1114.87C489.252 1114.33 458.717 1102.1 449.319 1071.89C439.089 1038.99 456.66 992.327 495.255 953.847C432.622 985.666 419.516 1055.62 429.93 1078.57C429.93 1078.57 382.698 1074.22 359.335 1030.85C401.213 1040.53 381.937 989.032 413.162 967.064C404.242 962.992 397.803 951.945 396.112 941.139C402.162 943.997 408.796 945.417 415.487 945.265C435.707 945.265 461.099 934.022 484.109 923.833C487.96 926.699 492.522 928.441 497.298 928.878C474.077 936.022 428.436 961.357 425.083 977.61C422.885 988.398 429.93 992.631 429.93 992.631C440.089 976.039 466.256 950.329 501.173 937.451C501.101 940.916 501.471 944.381 502.272 947.766C502.272 947.766 509.36 949.498 524.408 946.89C511.248 957.884 476.669 996.668 472.921 1026.11C470.469 1045.77 484.194 1046.67 484.194 1046.67C486.166 1017.1 501.667 986.523 529.692 955.865C529.692 955.865 534.286 963.063 540.374 966.689C547.076 965.34 553.482 962.804 559.284 959.187C555.986 998.177 554.041 1048.84 556.085 1064.18C557.508 1074.85 563.722 1079.33 563.722 1079.33C563.722 1079.33 569.95 1074.85 571.359 1064.18C573.416 1048.84 571.458 998.177 568.16 959.187C573.963 962.804 580.368 965.34 587.07 966.689C593.172 963.063 597.751 955.865 597.751 955.865C625.735 986.585 641.235 1017.14 643.194 1046.72C643.194 1046.72 656.975 1045.82 654.466 1026.16C650.718 996.73 616.14 957.937 602.979 946.944C618.084 949.552 625.13 947.819 625.13 947.819C625.921 944.443 626.286 940.979 626.215 937.505C661.132 950.409 687.298 976.101 697.457 992.685C697.457 992.685 704.545 988.523 702.305 977.664C698.951 961.349 653.311 936.085 630.09 928.941C634.865 928.494 639.428 926.753 643.279 923.895L643.793 924.122C666.667 934.216 691.845 945.328 711.9 945.328C718.592 945.471 725.225 944.059 731.275 941.193Z" fill="white"/>
<path d="M322.573 575.625C309.352 582.469 295.133 587.177 280.441 589.575C279.031 577.034 277.834 559.885 279.609 546.26C265.209 546.711 248.821 546.922 232.8 544.598C235.364 532.86 245.538 513.161 252.147 502.227C237.9 497.703 219.174 490.982 209.874 485.444C218.946 473.449 229.035 462.257 240.029 451.993C229.01 444.468 212.58 430.617 205.535 422.585C216.68 415.145 233.265 407.113 246.2 402.168C228.502 376.691 226.924 335.772 228.995 319.272C246.44 359.726 290.615 395.784 319.176 413.835C332.21 422.064 327.518 437.69 323.291 444.609C284.415 509.328 355.193 557.561 419.108 525.491C405.173 525.645 391.082 513.78 389.138 503.199C393.562 507.018 411.725 504.932 417.079 499.972C408.85 495.66 406.892 491.292 406.468 487.206C416.656 493.461 437.229 494.321 443.302 483.753C477.078 482.837 499.553 456.459 502.033 448.836C504.54 456.882 508.5 471.1 509.909 485.063C519.068 478.85 534.709 464.801 542.867 445.751C552.122 459.076 559.121 473.833 563.581 489.432C568.041 473.833 575.039 459.076 584.294 445.751C592.453 464.801 608.094 478.85 617.253 485.063C618.591 471.1 622.621 456.939 625.13 448.836C627.624 456.459 650.042 482.837 683.86 483.753C689.933 494.321 710.52 493.461 720.693 487.206C720.271 491.292 718.312 495.66 710.083 499.972C715.494 504.932 733.601 507.031 738.039 503.199C736.081 513.78 722.004 525.645 708.054 525.491C772.026 557.561 842.804 509.328 803.871 444.609C799.701 437.69 794.951 422.064 807.986 413.835C836.576 395.784 880.75 359.726 898.167 319.272C900.239 335.772 898.658 376.691 880.962 402.168C893.898 407.086 910.482 415.145 921.627 422.585C914.572 430.617 898.149 444.468 887.134 451.993C898.185 462.233 908.321 473.411 917.438 485.402C908.214 490.912 889.487 497.66 875.171 502.184C881.835 513.119 891.953 532.817 894.515 544.555C878.496 546.88 862.136 546.669 847.708 546.218C849.539 559.885 848.3 577.063 846.891 589.575C832.218 587.169 818.018 582.461 804.815 575.625C802.758 585.037 797.094 602.482 792.006 611.81C777.888 598.396 759.4 592.886 742.069 595.817C720.425 599.481 706.856 613.445 697.443 625.408C697.443 581.726 707.42 548.275 711.647 536.749C643.222 533.579 588.084 514.204 563.693 501.747C539.274 514.204 484.151 533.579 415.741 536.749C420.081 548.275 429.944 581.726 429.944 625.408C420.559 613.445 406.976 599.481 385.332 595.817C367.987 592.886 349.471 598.396 335.381 611.81C330.308 602.482 324.629 585.066 322.573 575.625Z" fill="white"/>
<path d="M702.474 709.967C734.319 707.867 765.262 717.984 779.072 746.701C792.513 774.629 791.372 797.118 815.355 812.153C802.307 826.864 779.494 823.214 766.981 818.409C766.981 818.409 765.615 841.589 776.465 856.088C760.275 861.668 743.604 860.132 728.344 849.127C726.357 857.99 724.428 870.023 727.851 884.214C710.21 885.622 690.483 875.632 682.084 857.807C695.26 856.074 701.952 849.155 705.404 843.519C722.568 842.603 741.407 828.244 739.349 805.052C756.977 793.426 759.429 763.131 739.349 743.052C729.816 733.835 717.403 728.178 704.193 727.031C703.629 721.535 703.051 715.829 702.474 709.967Z" fill="white"/>
<path d="M667.938 826.032C674.075 834.569 683.173 840.512 693.456 842.701C680.788 853.932 651.028 849.762 648.38 822.214C654.462 825.147 661.198 826.463 667.938 826.032Z" fill="white"/>
<path d="M696.528 806.15C706.687 811.513 718.506 812.807 729.585 809.772C729.232 822.214 718.706 833.839 702.375 833.839C686.044 833.839 674.954 821.523 672.503 814.111C678.101 815.211 683.851 815.302 689.482 814.379C691.185 811.143 693.592 808.331 696.528 806.15Z" fill="white"/>
<path d="M743.577 776.208C743.577 792.638 732.135 801.571 717.959 801.571C712.826 801.492 707.762 800.371 703.075 798.276C698.388 796.181 694.176 793.156 690.694 789.383C696.813 788.627 702.775 786.915 708.364 784.309C707.701 778.462 708.759 775.192 710.998 772.953C715.07 768.881 722.609 770.134 727.133 774.756C728.049 764.231 715.353 759.834 707.73 764.456C707.208 756.931 706.306 747.687 705.221 737.049C725.569 739.571 743.577 754.817 743.577 776.208Z" fill="white"/>
<path fill-rule="evenodd" clip-rule="evenodd" d="M531.821 584.033C531.435 583.99 531.047 583.956 530.659 583.931L530.852 583.789C531.646 583.838 532.439 583.92 533.228 584.033H531.821ZM580.271 788.888C580.031 790.089 579.266 791.186 578.139 792.119C578.35 791.096 578.462 790.018 578.462 788.888H580.271Z" fill="white"/>
<path fill-rule="evenodd" clip-rule="evenodd" d="M674.673 780.731C677.166 788.414 681.759 795.247 687.932 800.458C686.385 801.876 684.969 803.432 683.705 805.108C672.432 805.728 660.089 800.134 660.089 800.134C660.228 804.181 660.7 808.21 661.498 812.181H623.594C591.636 812.181 572.797 829.696 563.609 843.35C554.436 829.696 535.583 812.181 503.639 812.181H465.735C466.529 808.21 467 804.181 467.144 800.134C467.144 800.134 454.8 805.77 443.527 805.108C442.263 803.432 440.848 801.876 439.3 800.458C445.473 795.247 450.066 788.414 452.56 780.731C444.58 780.778 436.629 779.769 428.915 777.73C428.552 770.47 430.23 753.987 432.365 733.017C435.534 701.889 439.709 660.875 439.709 625.465C439.709 579.528 428.887 545.781 428.887 545.781C508.021 540.398 563.666 512.809 563.666 512.809C563.666 512.809 619.324 540.356 698.359 545.781C698.359 545.781 687.523 579.528 687.523 625.465C687.523 660.882 691.697 701.856 694.866 732.964C697.005 753.96 698.686 770.462 698.317 777.73C690.603 779.769 682.652 780.778 674.673 780.731ZM507.58 595.912C508.757 596.099 509.96 596.052 511.118 595.772C512.276 595.493 513.368 594.988 514.331 594.286L515.537 593.281C516.767 592.18 517.892 590.893 518.994 589.632C521.315 586.977 523.53 584.442 526.393 584.033C527.81 583.875 529.238 583.841 530.659 583.931L525.375 587.849C526.561 588.844 527.945 589.574 529.436 589.991C530.927 590.407 532.49 590.499 534.02 590.262C538.82 590.04 543.408 588.216 547.052 585.083C550.696 581.949 553.185 577.686 554.123 572.972C554.123 568.549 560.959 566.137 567.191 565.936C577.747 566.907 587.67 571.4 595.364 578.693C603.058 585.986 608.075 595.654 609.61 606.144H636.75C635.746 591.496 629.434 577.717 618.997 567.391C608.56 557.065 594.715 550.901 580.057 550.054H576.841C564.914 550.054 558.152 553.521 552.652 556.342C548.881 558.275 545.703 559.905 541.86 559.905H538.643C536.194 560.055 533.893 561.134 532.21 562.92L521.756 566.338C506.075 571.565 514.117 580.612 516.931 582.22C523.78 582.953 530.703 581.915 537.035 579.205L530.852 583.789C528.828 583.663 526.795 583.745 524.785 584.033C521.525 584.033 519.082 586.422 516.964 588.492C515.295 590.125 513.827 591.56 512.32 591.471C509.403 592.072 506.393 592.072 503.475 591.471C505.542 593.66 507.682 593.863 509.051 593.993C509.946 594.078 510.511 594.132 510.511 594.688C510.511 595.548 508.86 595.882 506.567 595.691C506.9 595.784 507.238 595.858 507.58 595.912ZM481.557 610.354C492.011 630.457 524.78 646.742 563.379 646.742C601.978 646.742 634.747 630.457 645.201 610.354H481.557ZM590.327 743.857C586.525 748.367 582.207 752.415 577.461 755.919H617.668C609.275 750.43 600.039 746.355 590.327 743.857ZM561.958 740.641C543.178 740.613 524.775 745.911 508.884 755.92H543.262C548.882 750.12 555.156 744.993 561.958 740.641ZM576.853 707.669V729.18C576.853 732.623 571.514 736.333 564.728 741.049C552.89 749.275 536.646 760.563 536.646 778.836C536.646 811.25 574.259 810.932 578.139 792.119C579.266 791.186 580.031 790.089 580.271 788.888H578.462C578.462 790.018 578.35 791.096 578.139 792.119C571.719 797.435 553.533 797.405 553.533 780.645C553.533 770.612 564.795 762.195 575.848 753.934C586.499 745.973 596.957 738.158 596.957 729.18C596.706 723.791 594.545 718.668 590.862 714.727C587.178 710.785 582.213 708.284 576.853 707.669ZM554.339 703.448V737.826H566C568.411 735.815 570.571 733.52 572.433 730.991V695.206C571.305 695.77 570.209 696.334 569.116 696.896L569.113 696.898C564.755 699.141 560.446 701.359 554.339 703.448ZM572.433 665.85V650.571H554.339V675.902C558.412 673.429 562.801 671.062 567.276 668.647L567.278 668.646C568.988 667.724 570.71 666.795 572.433 665.85ZM604.377 643.53C614.722 640.151 624.486 635.202 633.326 628.855C624.882 666.248 585.881 688.965 551.705 702.434C548.086 703.64 547.483 708.867 551.705 708.867V722.94C551.705 722.94 534.014 722.739 534.014 706.857C534.704 700.897 536.916 695.214 540.436 690.356C543.957 685.497 548.668 681.626 554.117 679.114C573.044 670.668 590.123 658.577 604.377 643.53Z" fill="white"/>
</g>
</svg>
