<svg xmlns="http://www.w3.org/2000/svg" viewBox="0 0 64 64">
    <g fill="none" fill-rule="nonzero">
        <path fill="#4AAE48" d="M32 48.376c-3.25 0-6.208-.876-8.876-2.624-2.668-1.75-4.668-4-6-6.75L4 16c-2.75 4.918-4 10.418-4 16 0 8 2.604 14.98 7.812 20.938 5.208 5.958 11.688 9.52 19.438 10.688l9.282-16.062c-.934.274-2.492.812-4.532.812z"/>
        <path fill="#EA3939" d="M21.938 19.062C24.894 16.772 28.25 16 32 16h27.5c-2.834-4.832-6.688-8.916-11.562-11.75C43.062 1.418 37.75 0 32 0c-5 0-9.668 1.062-14 3.188-4.334 2.124-8.344 5.218-11.282 9.188L16 28c.916-3.582 2.978-6.644 5.938-8.938z"/>
        <path fill="#FED14B" d="M61.594 20H43c3.25 3.25 5.376 7.418 5.376 12 0 3.418-.958 6.542-2.876 9.376L32.376 64c8.75-.084 16.208-3.25 22.376-9.5C60.916 48.25 64 40.75 64 32c0-4.082-.688-8.376-2.406-12z"/>
        <circle cx="32" cy="32" r="12" fill="#188FD1"/>
    </g>
</svg>
