<svg xmlns="http://www.w3.org/2000/svg" viewBox="0 0 64 62">
    <path fill="#FF9800" fill-rule="nonzero" d="M64 30.968c0 17.875-14.332 30.967-32 30.967S0 47.435 0 29.56c0-5.6 1.42-10.894 3.896-15.483a.618.618 0 0 1 .14-.227C2.644 11.74 2.032 6.39 5.564 2.813c0 1.493.892 4.055 1.892 5.969.808 1.522 1.668 2.618 2.28 2.477 1.392-.336 6.26-.336 6.956 0 1.144-1.49 3.928-5.63 8.352-5.63-2.476 2.505-9.572 11.263 2.784 11.263h2.784l-8.352 5.63s.948 1.857 0 2.816c-1.056-1.072-5.564 1.154-5.564 4.221 0 3.068 3.228 7.038 9.74 7.038 6.512 0 4.868-2.817 8.348-2.817 3.48 0 4.172 2.817 4.172 2.817-4.788 0-8.264 5.63-13.912 5.63 2.784 2.084 4.62 2.816 8.348 2.816 9.212 0 16.696-7.572 16.696-16.892a16.93 16.93 0 0 0-3.284-10.049 17.044 17.044 0 0 1 6.68 12.077c.5-1.971.78-4.084.78-6.249 0-8.474-3.56-19.68-9.74-23.93C53.428 2.7 64 11.437 64 28.151v2.817z"/>
</svg>
