<svg xmlns="http://www.w3.org/2000/svg" viewBox="0 0 60 64">
    <path fill="#2196F3" fill-rule="nonzero" d="M0 28.424h.036a39.117 39.117 0 0 1 2.1-8.636 32.645 32.645 0 0 1 4.13-7.76 30.426 30.426 0 0 1 6.013-6.292c2.274-1.776 4.949-3.176 8.026-4.2C23.38.512 26.69 0 30.23 0c5.531 0 10.484 1.256 14.866 3.772s7.897 6.132 10.556 10.852c2.49 4.456 3.735 9.724 3.735 15.804v6.72H18.991c.024 2.644.663 4.94 1.92 6.884s2.892 3.404 4.9 4.38c2.009.975 4.278 1.655 6.805 2.035 2.526.38 5.073.416 7.648.108a37.837 37.837 0 0 0 7.467-1.664c2.406-.8 4.483-1.803 6.23-3.02v13.48c-2.201 1.312-4.949 2.408-8.239 3.288-3.29.88-7.029 1.336-11.218 1.36-4.19.024-7.97-.608-11.348-1.896-4.522-1.74-8.25-4.708-11.182-8.9-2.932-4.192-4.423-8.631-4.47-13.303-.073-5.768 1.256-10.676 3.984-14.728 2.727-4.052 6.62-7.248 11.668-9.584a21.644 21.644 0 0 0-2.8 4.488c-.718 1.56-1.268 3.464-1.65 5.704h22.799c.193-1.836.096-3.504-.29-5.004-.38-1.5-.943-2.712-1.686-3.628a12.565 12.565 0 0 0-2.53-2.376c-.945-.668-1.909-1.156-2.893-1.464-.98-.308-1.88-.556-2.691-.732-.812-.176-1.482-.28-2.013-.304l-.787-.044c-3.23.12-6.338.648-9.319 1.592-2.98.944-5.651 2.188-8.021 3.736-2.37 1.548-4.479 3.224-6.318 5.024A40.66 40.66 0 0 0 0 28.424z"/>
</svg>
