<svg xmlns="http://www.w3.org/2000/svg" viewBox="0 0 64 64">
    <g fill="#FF3501" fill-rule="nonzero">
        <path d="M34.826 8.666c8.136 1.681 14.38 11.487 14.38 23.334s-6.244 21.654-14.381 23.334c2.868 1.42 5.997 2.18 9.208 2.18 3.734 0 7.403-1.029 10.68-2.977C60.45 48.753 64 40.792 64 32c0-8.791-3.548-16.752-9.286-22.535-3.276-1.95-6.946-2.977-10.681-2.977-3.21 0-6.34.758-9.207 2.178z"/>
        <path d="M30.476 63.963a31.885 31.885 0 0 0 22.85-8.106c-3.751 2.487-8.137 3.918-12.824 3.918-7.62 0-14.444-3.78-19.034-9.741-3.539-4.177-5.83-10.351-5.987-17.28v-1.507c.157-6.929 2.448-13.104 5.986-17.28 4.59-5.961 11.415-9.741 19.036-9.741 4.688 0 9.074 1.43 12.825 3.92A31.88 31.88 0 0 0 32.121.002L32 0C14.327 0 0 14.326 0 32c0 17.162 13.51 31.167 30.476 31.963z"/>
    </g>
</svg>
