<svg xmlns="http://www.w3.org/2000/svg" xmlns:xlink="http://www.w3.org/1999/xlink" viewBox="0 0 64 64">
    <defs>
        <path id="a" d="M.007 0H64v64H.008z"/>
    </defs>
    <g fill="none" fill-rule="evenodd">
        <g>
            <mask id="b" fill="#fff">
                <use xlink:href="#a"/>
            </mask>
            <path fill="#008DC4" d="M32 0c17.673 0 32 14.327 32 32 0 17.673-14.327 32-32 32C14.327 64 0 49.673 0 32 0 14.327 14.327 0 32 0" mask="url(#b)"/>
        </g>
        <path fill="#EBE8E4" d="M32.533 4.267c-.294 0-.533-.146-.533-.325V2.458c0-.18.239-.325.533-.325.295 0 .534.146.534.325v1.484c0 .18-.24.325-.534.325M32.533 61.867c-.294 0-.533-.146-.533-.325v-1.484c0-.18.239-.325.533-.325.295 0 .534.146.534.325v1.484c0 .18-.24.325-.534.325M27.351 4.267c-.182 0-.343-.112-.375-.271l-.303-1.478c-.037-.178.102-.348.309-.38.208-.03.406.088.442.266l.303 1.478c.037.178-.102.348-.309.38a.464.464 0 0 1-.067.005M36.951 60.8c-.182 0-.343-.112-.375-.271l-.303-1.478c-.037-.178.102-.348.309-.38.208-.03.406.088.442.267l.303 1.477c.037.178-.102.349-.309.38a.436.436 0 0 1-.067.005M22.1 6.4c-.121 0-.236-.085-.28-.223l-.469-1.456c-.056-.176.024-.37.18-.434.154-.064.326.027.383.202l.468 1.456c.056.176-.024.37-.179.435a.268.268 0 0 1-.102.02M42.367 59.733c-.122 0-.236-.085-.28-.223l-.469-1.455c-.056-.176.024-.37.179-.435.155-.063.327.027.383.203l.469 1.456c.056.176-.024.37-.18.434a.268.268 0 0 1-.102.02M18.703 8.533c-.172 0-.34-.064-.431-.179l-1.139-1.417c-.137-.171-.056-.39.182-.489.238-.099.543-.04.68.131l1.138 1.418c.138.17.056.39-.182.488a.647.647 0 0 1-.248.048M47.503 57.6c-.172 0-.34-.064-.431-.179l-1.139-1.418c-.137-.17-.056-.39.182-.488.238-.1.542-.04.68.13l1.138 1.418c.138.171.056.39-.182.489a.647.647 0 0 1-.248.048M14.502 10.667a.452.452 0 0 1-.331-.139L12.9 9.17a.36.36 0 0 1 .053-.546.466.466 0 0 1 .609.048l1.27 1.358a.36.36 0 0 1-.054.546.46.46 0 0 1-.277.09M50.768 54.4a.452.452 0 0 1-.33-.138l-1.27-1.359a.36.36 0 0 1 .053-.546.467.467 0 0 1 .608.048l1.27 1.358a.36.36 0 0 1-.053.546.46.46 0 0 1-.278.091M10.279 14.933a.362.362 0 0 1-.249-.1l-1.358-1.27a.466.466 0 0 1-.048-.609.36.36 0 0 1 .546-.053l1.358 1.27a.466.466 0 0 1 .048.608.373.373 0 0 1-.297.154M54.012 51.2a.363.363 0 0 1-.249-.1l-1.358-1.27a.467.467 0 0 1-.048-.61.361.361 0 0 1 .546-.052l1.359 1.27a.467.467 0 0 1 .047.608.372.372 0 0 1-.297.154M8.175 19.2a.284.284 0 0 1-.178-.067l-1.418-1.138c-.171-.137-.23-.442-.131-.68.099-.237.317-.32.489-.181l1.417 1.138c.172.137.23.441.131.68-.066.159-.186.248-.31.248M57.242 48a.284.284 0 0 1-.179-.067l-1.417-1.138c-.172-.137-.23-.441-.131-.68.098-.237.317-.32.488-.181l1.418 1.138c.171.137.23.441.131.68-.066.159-.187.248-.31.248M6.061 22.4a.378.378 0 0 1-.115-.018l-1.456-.468c-.176-.057-.267-.228-.203-.384.064-.155.259-.235.434-.179l1.456.469c.176.056.266.228.202.383a.34.34 0 0 1-.318.197M59.395 42.667a.38.38 0 0 1-.116-.018l-1.456-.469c-.176-.056-.266-.228-.202-.383.063-.156.258-.235.434-.179l1.456.468c.175.057.266.228.202.384a.34.34 0 0 1-.318.197M3.939 27.733a.287.287 0 0 1-.057-.006l-1.478-.303c-.178-.037-.297-.234-.266-.442.032-.207.201-.346.38-.31l1.478.304c.178.036.297.234.266.442-.028.185-.167.315-.323.315M60.472 37.333a.287.287 0 0 1-.057-.006l-1.477-.303c-.179-.037-.298-.234-.266-.442.031-.207.2-.346.38-.31l1.477.304c.178.036.297.234.266.442-.028.185-.166.315-.323.315M3.942 33.067H2.458c-.18 0-.325-.24-.325-.534 0-.294.146-.533.325-.533h1.484c.18 0 .325.239.325.533 0 .295-.146.534-.325.534M61.542 33.067h-1.484c-.18 0-.325-.24-.325-.534 0-.294.146-.533.325-.533h1.484c.18 0 .325.239.325.533 0 .295-.146.534-.325.534M2.461 37.333c-.156 0-.295-.13-.323-.315-.031-.208.088-.406.266-.442l1.478-.304c.179-.036.348.102.38.31.031.208-.088.406-.266.442l-1.478.303a.288.288 0 0 1-.057.006M58.994 27.733c-.156 0-.294-.13-.322-.315-.032-.208.087-.406.266-.442l1.477-.304c.179-.036.349.102.38.31.031.208-.088.406-.266.442l-1.477.303a.288.288 0 0 1-.058.006M4.605 42.667a.34.34 0 0 1-.318-.197c-.064-.156.027-.327.203-.384l1.456-.468c.175-.056.37.024.433.179.064.155-.026.327-.202.383l-1.456.469a.374.374 0 0 1-.116.018M57.939 22.4a.34.34 0 0 1-.318-.197c-.064-.155.026-.327.202-.383l1.456-.469c.176-.056.37.024.434.18.064.155-.027.326-.202.383l-1.456.468a.381.381 0 0 1-.116.018M6.758 48c-.123 0-.244-.09-.31-.249-.099-.238-.04-.542.13-.68l1.419-1.137c.171-.138.39-.056.488.182.1.238.04.542-.13.679l-1.418 1.138a.283.283 0 0 1-.179.067M55.825 19.2c-.124 0-.244-.09-.31-.249-.1-.238-.04-.542.13-.68l1.418-1.137c.171-.138.39-.056.49.182.098.237.04.542-.132.679l-1.418 1.138a.283.283 0 0 1-.178.067M8.921 51.2a.372.372 0 0 1-.297-.154.466.466 0 0 1 .048-.609l1.358-1.27a.36.36 0 0 1 .546.054.466.466 0 0 1-.048.608L9.17 51.1a.362.362 0 0 1-.249.101M52.654 14.933a.372.372 0 0 1-.297-.154.466.466 0 0 1 .048-.608l1.358-1.27a.361.361 0 0 1 .546.053.466.466 0 0 1-.047.608l-1.359 1.27a.364.364 0 0 1-.249.101M13.231 54.4a.46.46 0 0 1-.277-.09.36.36 0 0 1-.053-.547l1.27-1.358a.467.467 0 0 1 .608-.048.36.36 0 0 1 .053.546l-1.27 1.359a.453.453 0 0 1-.33.138M49.498 10.667a.46.46 0 0 1-.277-.09.36.36 0 0 1-.053-.547l1.27-1.358a.467.467 0 0 1 .608-.048.36.36 0 0 1 .053.546l-1.27 1.358a.453.453 0 0 1-.33.139M17.564 57.6a.65.65 0 0 1-.249-.048c-.238-.099-.319-.318-.182-.489l1.139-1.417c.137-.171.44-.23.68-.131.237.099.319.317.181.488l-1.138 1.418c-.092.115-.26.179-.431.179M46.364 8.533a.65.65 0 0 1-.249-.048c-.238-.098-.319-.317-.182-.488l1.139-1.418c.137-.171.44-.23.68-.13.237.098.319.317.181.488l-1.138 1.417c-.092.115-.26.18-.431.18M21.633 59.733a.268.268 0 0 1-.103-.02c-.155-.064-.235-.258-.179-.434l.469-1.456c.056-.176.228-.266.383-.202s.235.258.179.434l-.468 1.455c-.045.138-.16.223-.281.223M41.9 6.4a.268.268 0 0 1-.103-.02c-.155-.064-.235-.259-.179-.435l.468-1.456c.057-.175.229-.266.384-.202s.235.258.179.434l-.469 1.456c-.044.138-.159.223-.28.223M27.049 60.8a.448.448 0 0 1-.067-.005c-.207-.032-.346-.201-.31-.38l.304-1.477c.036-.179.233-.298.442-.266.207.031.346.201.31.38l-.304 1.477c-.033.159-.193.271-.375.271M36.649 4.267a.448.448 0 0 1-.067-.005c-.207-.032-.346-.202-.31-.38l.304-1.478c.036-.178.233-.297.442-.266.207.032.346.202.31.38l-.304 1.478c-.033.159-.193.27-.375.27M29.516 7.467c-.18 0-.333-.15-.348-.35L28.8 2.55c-.016-.21.126-.396.319-.414.193-.02.362.137.379.347l.366 4.57c.017.21-.125.395-.318.413l-.03.002M34.85 61.867c-.18 0-.333-.15-.349-.35l-.366-4.568c-.017-.21.125-.396.318-.414.194-.02.362.137.38.347l.366 4.57c.016.21-.126.395-.319.413a.44.44 0 0 1-.03.002M25.182 8.533a.414.414 0 0 1-.403-.29L23.48 3.693c-.06-.21.072-.424.295-.48a.42.42 0 0 1 .512.277l1.298 4.548c.06.21-.073.425-.296.48a.44.44 0 0 1-.108.014M40.115 60.8a.414.414 0 0 1-.403-.29l-1.298-4.55c-.06-.209.073-.424.296-.48a.42.42 0 0 1 .511.278l1.298 4.548c.06.21-.072.424-.295.48a.443.443 0 0 1-.109.014M21.948 10.667a.457.457 0 0 1-.41-.24l-2.296-4.504c-.105-.208-.007-.454.22-.55.225-.097.495-.008.6.2l2.296 4.504c.105.208.007.454-.22.55a.486.486 0 0 1-.19.04M44.348 59.733a.457.457 0 0 1-.41-.239l-2.296-4.505c-.105-.207-.007-.454.22-.55.226-.097.495-.007.6.2l2.296 4.505c.105.207.007.454-.22.55a.487.487 0 0 1-.19.04M17.773 11.733a.36.36 0 0 1-.295-.153l-2.48-3.546a.361.361 0 0 1 .59-.413l2.48 3.545a.361.361 0 0 1-.295.567M48.707 56.533a.36.36 0 0 1-.296-.153l-2.48-3.546a.361.361 0 0 1 .591-.413l2.48 3.545a.361.361 0 0 1-.295.567M14.526 14.933a.406.406 0 0 1-.287-.119l-3.453-3.453a.407.407 0 0 1 .575-.575l3.453 3.453a.407.407 0 0 1-.288.694M52.926 53.333a.406.406 0 0 1-.287-.119l-3.453-3.453a.407.407 0 0 1 .575-.575l3.453 3.453a.407.407 0 0 1-.288.694M11.372 18.133a.36.36 0 0 1-.206-.065l-3.546-2.48a.36.36 0 1 1 .414-.59l3.546 2.48a.36.36 0 0 1-.208.655M56.172 49.067a.36.36 0 0 1-.206-.066l-3.546-2.479a.36.36 0 1 1 .414-.59l3.546 2.48a.36.36 0 0 1-.208.655M10.252 22.4a.382.382 0 0 1-.175-.043l-4.504-2.294c-.208-.106-.297-.375-.2-.602.096-.226.342-.324.55-.219l4.504 2.295c.208.106.297.375.2.602a.413.413 0 0 1-.375.261M59.319 44.8a.383.383 0 0 1-.175-.043l-4.505-2.294c-.207-.106-.297-.375-.2-.602.097-.226.343-.324.55-.219l4.505 2.295c.207.106.297.375.2.602a.413.413 0 0 1-.375.261M8.141 25.6a.365.365 0 0 1-.102-.014l-4.548-1.298a.42.42 0 0 1-.277-.511c.055-.223.27-.356.48-.296l4.548 1.298a.42.42 0 0 1 .278.511.398.398 0 0 1-.379.31M60.408 40.533a.365.365 0 0 1-.102-.014l-4.548-1.298a.42.42 0 0 1-.278-.511c.056-.223.27-.356.48-.296l4.55 1.298a.42.42 0 0 1 .276.512.397.397 0 0 1-.378.31M7.085 29.867a.38.38 0 0 1-.034-.002L2.482 29.5c-.21-.017-.366-.186-.347-.38.018-.192.204-.335.414-.318l4.569.367c.21.016.366.186.347.379-.017.182-.184.32-.38.32M61.485 35.2a.38.38 0 0 1-.034-.001l-4.569-.367c-.21-.016-.366-.186-.347-.379.018-.193.202-.335.414-.318l4.569.366c.21.017.366.186.347.38-.017.182-.184.319-.38.319M2.515 35.2c-.196 0-.363-.137-.38-.32-.019-.192.137-.362.347-.379l4.57-.366c.213-.017.395.126.413.318.019.193-.137.363-.347.38l-4.57.366a.494.494 0 0 1-.033.001M56.915 29.867c-.196 0-.363-.138-.38-.32-.019-.193.137-.362.347-.38l4.57-.365c.21-.019.395.125.413.318.019.193-.137.362-.347.38l-4.57.365a.494.494 0 0 1-.033.002M3.592 40.533a.397.397 0 0 1-.379-.31.421.421 0 0 1 .278-.51l4.548-1.298c.21-.061.425.072.48.295a.421.421 0 0 1-.277.511L3.694 40.52a.369.369 0 0 1-.102.014M55.859 25.6a.397.397 0 0 1-.379-.31.421.421 0 0 1 .278-.511l4.548-1.298c.21-.06.424.073.48.296a.421.421 0 0 1-.277.511l-4.548 1.298a.374.374 0 0 1-.102.014M5.748 44.8a.413.413 0 0 1-.376-.261c-.096-.227-.007-.496.2-.602l4.505-2.295c.207-.105.454-.007.55.22.097.226.008.495-.2.6l-4.504 2.295a.383.383 0 0 1-.175.043M54.814 22.4a.413.413 0 0 1-.375-.261c-.097-.227-.007-.496.2-.602l4.505-2.295c.207-.105.454-.007.55.22.097.226.007.495-.2.6l-4.505 2.296a.383.383 0 0 1-.175.042M7.828 49.067a.36.36 0 0 1-.208-.656l3.546-2.48a.36.36 0 0 1 .414.591l-3.546 2.48a.36.36 0 0 1-.206.065M52.628 18.133a.36.36 0 0 1-.208-.655l3.546-2.48a.36.36 0 0 1 .414.59l-3.546 2.48a.36.36 0 0 1-.206.065M11.073 53.333a.406.406 0 0 1-.287-.694l3.453-3.453a.407.407 0 0 1 .575.575l-3.453 3.453a.406.406 0 0 1-.288.12M49.473 14.933a.406.406 0 0 1-.287-.694l3.453-3.453a.407.407 0 0 1 .575.575l-3.453 3.453a.407.407 0 0 1-.288.12M15.293 56.533a.361.361 0 0 1-.295-.568l2.48-3.545a.36.36 0 1 1 .59.414l-2.48 3.545a.36.36 0 0 1-.295.154M46.227 11.733a.361.361 0 0 1-.295-.568l2.48-3.544a.36.36 0 1 1 .59.413l-2.48 3.545a.36.36 0 0 1-.295.154M19.652 59.733a.485.485 0 0 1-.19-.039c-.227-.096-.325-.343-.22-.55l2.295-4.505c.106-.207.375-.297.602-.2.226.096.324.343.218.55l-2.294 4.505a.457.457 0 0 1-.41.24M42.052 10.667a.486.486 0 0 1-.19-.04c-.227-.096-.325-.342-.22-.55l2.295-4.504c.106-.208.375-.297.602-.2.226.096.324.342.218.55l-2.294 4.504a.457.457 0 0 1-.41.24M23.885 60.8a.437.437 0 0 1-.109-.014c-.223-.056-.355-.27-.295-.48l1.298-4.548a.421.421 0 0 1 .511-.278c.223.056.355.272.296.48l-1.298 4.549a.414.414 0 0 1-.403.291M38.818 8.533a.437.437 0 0 1-.108-.013c-.223-.056-.355-.271-.296-.48l1.298-4.549a.42.42 0 0 1 .512-.277c.223.056.355.271.295.48L39.22 8.242a.415.415 0 0 1-.403.291M29.15 61.867c-.01 0-.02 0-.03-.002-.193-.018-.336-.204-.319-.414l.367-4.569c.016-.21.186-.366.379-.347.193.018.335.204.318.414l-.366 4.569c-.016.199-.169.349-.348.349M34.484 7.467c-.01 0-.02 0-.03-.002-.194-.018-.336-.204-.32-.414l.367-4.569c.017-.21.185-.366.38-.347.192.018.335.204.318.414l-.367 4.569c-.015.199-.168.349-.348.349"/>
        <path fill="#EBE8E4" d="M35.907 35.907l17.426-25.24-25.24 17.426-17.426 25.24 25.24-17.426"/>
        <path fill="#BEBEB9" d="M35.907 35.907l17.426-25.24-42.666 42.666 25.24-17.426"/>
        <path fill="#DD4359" d="M35.328 35.2l16.939-24.533-24.534 16.938 7.595 7.595"/>
        <path fill="#DC3C52" d="M35.907 35.2l17.426-24.533L32 31.402l3.907 3.798"/>
    </g>
</svg>
